G04 #@! TF.GenerationSoftware,KiCad,Pcbnew,(5.1.4)-1*
G04 #@! TF.CreationDate,2019-11-29T00:22:24+00:00*
G04 #@! TF.ProjectId,relay-replacement-board,72656c61-792d-4726-9570-6c6163656d65,rev?*
G04 #@! TF.SameCoordinates,Original*
G04 #@! TF.FileFunction,Legend,Bot*
G04 #@! TF.FilePolarity,Positive*
%FSLAX46Y46*%
G04 Gerber Fmt 4.6, Leading zero omitted, Abs format (unit mm)*
G04 Created by KiCad (PCBNEW (5.1.4)-1) date 2019-11-29 00:22:24*
%MOMM*%
%LPD*%
G04 APERTURE LIST*
%ADD10C,0.150000*%
%ADD11C,0.010000*%
%ADD12C,0.120000*%
%ADD13C,1.002000*%
%ADD14C,8.702000*%
%ADD15R,2.402000X3.602000*%
%ADD16R,3.602000X2.402000*%
%ADD17C,0.100000*%
%ADD18C,1.527000*%
%ADD19O,2.082000X4.062000*%
%ADD20R,2.082000X4.062000*%
%ADD21O,4.062000X2.082000*%
%ADD22R,4.062000X2.082000*%
G04 APERTURE END LIST*
D10*
X148261904Y-88977380D02*
X147595238Y-88977380D01*
X148023809Y-89977380D01*
X147309523Y-89977380D02*
X146785714Y-89310714D01*
X147309523Y-89310714D02*
X146785714Y-89977380D01*
X146404761Y-89977380D02*
X146404761Y-88977380D01*
X146071428Y-89691666D01*
X145738095Y-88977380D01*
X145738095Y-89977380D01*
X145071428Y-88977380D02*
X144880952Y-88977380D01*
X144785714Y-89025000D01*
X144690476Y-89120238D01*
X144642857Y-89310714D01*
X144642857Y-89644047D01*
X144690476Y-89834523D01*
X144785714Y-89929761D01*
X144880952Y-89977380D01*
X145071428Y-89977380D01*
X145166666Y-89929761D01*
X145261904Y-89834523D01*
X145309523Y-89644047D01*
X145309523Y-89310714D01*
X145261904Y-89120238D01*
X145166666Y-89025000D01*
X145071428Y-88977380D01*
X144261904Y-89929761D02*
X144119047Y-89977380D01*
X143880952Y-89977380D01*
X143785714Y-89929761D01*
X143738095Y-89882142D01*
X143690476Y-89786904D01*
X143690476Y-89691666D01*
X143738095Y-89596428D01*
X143785714Y-89548809D01*
X143880952Y-89501190D01*
X144071428Y-89453571D01*
X144166666Y-89405952D01*
X144214285Y-89358333D01*
X144261904Y-89263095D01*
X144261904Y-89167857D01*
X144214285Y-89072619D01*
X144166666Y-89025000D01*
X144071428Y-88977380D01*
X143833333Y-88977380D01*
X143690476Y-89025000D01*
X142928571Y-89453571D02*
X143261904Y-89453571D01*
X143261904Y-89977380D02*
X143261904Y-88977380D01*
X142785714Y-88977380D01*
X142404761Y-89453571D02*
X142071428Y-89453571D01*
X141928571Y-89977380D02*
X142404761Y-89977380D01*
X142404761Y-88977380D01*
X141928571Y-88977380D01*
X141642857Y-88977380D02*
X141071428Y-88977380D01*
X141357142Y-89977380D02*
X141357142Y-88977380D01*
X139976190Y-89977380D02*
X139976190Y-89310714D01*
X139976190Y-89501190D02*
X139928571Y-89405952D01*
X139880952Y-89358333D01*
X139785714Y-89310714D01*
X139690476Y-89310714D01*
X138976190Y-89929761D02*
X139071428Y-89977380D01*
X139261904Y-89977380D01*
X139357142Y-89929761D01*
X139404761Y-89834523D01*
X139404761Y-89453571D01*
X139357142Y-89358333D01*
X139261904Y-89310714D01*
X139071428Y-89310714D01*
X138976190Y-89358333D01*
X138928571Y-89453571D01*
X138928571Y-89548809D01*
X139404761Y-89644047D01*
X138357142Y-89977380D02*
X138452380Y-89929761D01*
X138500000Y-89834523D01*
X138500000Y-88977380D01*
X137547619Y-89977380D02*
X137547619Y-89453571D01*
X137595238Y-89358333D01*
X137690476Y-89310714D01*
X137880952Y-89310714D01*
X137976190Y-89358333D01*
X137547619Y-89929761D02*
X137642857Y-89977380D01*
X137880952Y-89977380D01*
X137976190Y-89929761D01*
X138023809Y-89834523D01*
X138023809Y-89739285D01*
X137976190Y-89644047D01*
X137880952Y-89596428D01*
X137642857Y-89596428D01*
X137547619Y-89548809D01*
X137166666Y-89310714D02*
X136928571Y-89977380D01*
X136690476Y-89310714D02*
X136928571Y-89977380D01*
X137023809Y-90215476D01*
X137071428Y-90263095D01*
X137166666Y-90310714D01*
X135547619Y-89977380D02*
X135547619Y-89310714D01*
X135547619Y-89501190D02*
X135500000Y-89405952D01*
X135452380Y-89358333D01*
X135357142Y-89310714D01*
X135261904Y-89310714D01*
X134547619Y-89929761D02*
X134642857Y-89977380D01*
X134833333Y-89977380D01*
X134928571Y-89929761D01*
X134976190Y-89834523D01*
X134976190Y-89453571D01*
X134928571Y-89358333D01*
X134833333Y-89310714D01*
X134642857Y-89310714D01*
X134547619Y-89358333D01*
X134500000Y-89453571D01*
X134500000Y-89548809D01*
X134976190Y-89644047D01*
X134071428Y-89310714D02*
X134071428Y-90310714D01*
X134071428Y-89358333D02*
X133976190Y-89310714D01*
X133785714Y-89310714D01*
X133690476Y-89358333D01*
X133642857Y-89405952D01*
X133595238Y-89501190D01*
X133595238Y-89786904D01*
X133642857Y-89882142D01*
X133690476Y-89929761D01*
X133785714Y-89977380D01*
X133976190Y-89977380D01*
X134071428Y-89929761D01*
X133023809Y-89977380D02*
X133119047Y-89929761D01*
X133166666Y-89834523D01*
X133166666Y-88977380D01*
X132214285Y-89977380D02*
X132214285Y-89453571D01*
X132261904Y-89358333D01*
X132357142Y-89310714D01*
X132547619Y-89310714D01*
X132642857Y-89358333D01*
X132214285Y-89929761D02*
X132309523Y-89977380D01*
X132547619Y-89977380D01*
X132642857Y-89929761D01*
X132690476Y-89834523D01*
X132690476Y-89739285D01*
X132642857Y-89644047D01*
X132547619Y-89596428D01*
X132309523Y-89596428D01*
X132214285Y-89548809D01*
X131309523Y-89929761D02*
X131404761Y-89977380D01*
X131595238Y-89977380D01*
X131690476Y-89929761D01*
X131738095Y-89882142D01*
X131785714Y-89786904D01*
X131785714Y-89501190D01*
X131738095Y-89405952D01*
X131690476Y-89358333D01*
X131595238Y-89310714D01*
X131404761Y-89310714D01*
X131309523Y-89358333D01*
X130500000Y-89929761D02*
X130595238Y-89977380D01*
X130785714Y-89977380D01*
X130880952Y-89929761D01*
X130928571Y-89834523D01*
X130928571Y-89453571D01*
X130880952Y-89358333D01*
X130785714Y-89310714D01*
X130595238Y-89310714D01*
X130500000Y-89358333D01*
X130452380Y-89453571D01*
X130452380Y-89548809D01*
X130928571Y-89644047D01*
X130023809Y-89977380D02*
X130023809Y-89310714D01*
X130023809Y-89405952D02*
X129976190Y-89358333D01*
X129880952Y-89310714D01*
X129738095Y-89310714D01*
X129642857Y-89358333D01*
X129595238Y-89453571D01*
X129595238Y-89977380D01*
X129595238Y-89453571D02*
X129547619Y-89358333D01*
X129452380Y-89310714D01*
X129309523Y-89310714D01*
X129214285Y-89358333D01*
X129166666Y-89453571D01*
X129166666Y-89977380D01*
X128309523Y-89929761D02*
X128404761Y-89977380D01*
X128595238Y-89977380D01*
X128690476Y-89929761D01*
X128738095Y-89834523D01*
X128738095Y-89453571D01*
X128690476Y-89358333D01*
X128595238Y-89310714D01*
X128404761Y-89310714D01*
X128309523Y-89358333D01*
X128261904Y-89453571D01*
X128261904Y-89548809D01*
X128738095Y-89644047D01*
X127833333Y-89310714D02*
X127833333Y-89977380D01*
X127833333Y-89405952D02*
X127785714Y-89358333D01*
X127690476Y-89310714D01*
X127547619Y-89310714D01*
X127452380Y-89358333D01*
X127404761Y-89453571D01*
X127404761Y-89977380D01*
X127071428Y-89310714D02*
X126690476Y-89310714D01*
X126928571Y-88977380D02*
X126928571Y-89834523D01*
X126880952Y-89929761D01*
X126785714Y-89977380D01*
X126690476Y-89977380D01*
X125595238Y-89977380D02*
X125595238Y-88977380D01*
X125595238Y-89358333D02*
X125500000Y-89310714D01*
X125309523Y-89310714D01*
X125214285Y-89358333D01*
X125166666Y-89405952D01*
X125119047Y-89501190D01*
X125119047Y-89786904D01*
X125166666Y-89882142D01*
X125214285Y-89929761D01*
X125309523Y-89977380D01*
X125500000Y-89977380D01*
X125595238Y-89929761D01*
X124547619Y-89977380D02*
X124642857Y-89929761D01*
X124690476Y-89882142D01*
X124738095Y-89786904D01*
X124738095Y-89501190D01*
X124690476Y-89405952D01*
X124642857Y-89358333D01*
X124547619Y-89310714D01*
X124404761Y-89310714D01*
X124309523Y-89358333D01*
X124261904Y-89405952D01*
X124214285Y-89501190D01*
X124214285Y-89786904D01*
X124261904Y-89882142D01*
X124309523Y-89929761D01*
X124404761Y-89977380D01*
X124547619Y-89977380D01*
X123357142Y-89977380D02*
X123357142Y-89453571D01*
X123404761Y-89358333D01*
X123500000Y-89310714D01*
X123690476Y-89310714D01*
X123785714Y-89358333D01*
X123357142Y-89929761D02*
X123452380Y-89977380D01*
X123690476Y-89977380D01*
X123785714Y-89929761D01*
X123833333Y-89834523D01*
X123833333Y-89739285D01*
X123785714Y-89644047D01*
X123690476Y-89596428D01*
X123452380Y-89596428D01*
X123357142Y-89548809D01*
X122880952Y-89977380D02*
X122880952Y-89310714D01*
X122880952Y-89501190D02*
X122833333Y-89405952D01*
X122785714Y-89358333D01*
X122690476Y-89310714D01*
X122595238Y-89310714D01*
X121833333Y-89977380D02*
X121833333Y-88977380D01*
X121833333Y-89929761D02*
X121928571Y-89977380D01*
X122119047Y-89977380D01*
X122214285Y-89929761D01*
X122261904Y-89882142D01*
X122309523Y-89786904D01*
X122309523Y-89501190D01*
X122261904Y-89405952D01*
X122214285Y-89358333D01*
X122119047Y-89310714D01*
X121928571Y-89310714D01*
X121833333Y-89358333D01*
X152523809Y-90627380D02*
X152523809Y-91436904D01*
X152476190Y-91532142D01*
X152428571Y-91579761D01*
X152333333Y-91627380D01*
X152142857Y-91627380D01*
X152047619Y-91579761D01*
X152000000Y-91532142D01*
X151952380Y-91436904D01*
X151952380Y-90627380D01*
X151476190Y-90960714D02*
X151476190Y-91627380D01*
X151476190Y-91055952D02*
X151428571Y-91008333D01*
X151333333Y-90960714D01*
X151190476Y-90960714D01*
X151095238Y-91008333D01*
X151047619Y-91103571D01*
X151047619Y-91627380D01*
X150571428Y-91627380D02*
X150571428Y-90960714D01*
X150571428Y-90627380D02*
X150619047Y-90675000D01*
X150571428Y-90722619D01*
X150523809Y-90675000D01*
X150571428Y-90627380D01*
X150571428Y-90722619D01*
X150190476Y-90960714D02*
X149952380Y-91627380D01*
X149714285Y-90960714D01*
X148952380Y-91579761D02*
X149047619Y-91627380D01*
X149238095Y-91627380D01*
X149333333Y-91579761D01*
X149380952Y-91484523D01*
X149380952Y-91103571D01*
X149333333Y-91008333D01*
X149238095Y-90960714D01*
X149047619Y-90960714D01*
X148952380Y-91008333D01*
X148904761Y-91103571D01*
X148904761Y-91198809D01*
X149380952Y-91294047D01*
X148476190Y-91627380D02*
X148476190Y-90960714D01*
X148476190Y-91151190D02*
X148428571Y-91055952D01*
X148380952Y-91008333D01*
X148285714Y-90960714D01*
X148190476Y-90960714D01*
X147904761Y-91579761D02*
X147809523Y-91627380D01*
X147619047Y-91627380D01*
X147523809Y-91579761D01*
X147476190Y-91484523D01*
X147476190Y-91436904D01*
X147523809Y-91341666D01*
X147619047Y-91294047D01*
X147761904Y-91294047D01*
X147857142Y-91246428D01*
X147904761Y-91151190D01*
X147904761Y-91103571D01*
X147857142Y-91008333D01*
X147761904Y-90960714D01*
X147619047Y-90960714D01*
X147523809Y-91008333D01*
X147047619Y-91627380D02*
X147047619Y-90960714D01*
X147047619Y-90627380D02*
X147095238Y-90675000D01*
X147047619Y-90722619D01*
X147000000Y-90675000D01*
X147047619Y-90627380D01*
X147047619Y-90722619D01*
X146714285Y-90960714D02*
X146333333Y-90960714D01*
X146571428Y-90627380D02*
X146571428Y-91484523D01*
X146523809Y-91579761D01*
X146428571Y-91627380D01*
X146333333Y-91627380D01*
X146095238Y-90960714D02*
X145857142Y-91627380D01*
X145619047Y-90960714D02*
X145857142Y-91627380D01*
X145952380Y-91865476D01*
X146000000Y-91913095D01*
X146095238Y-91960714D01*
X144333333Y-91627380D02*
X144428571Y-91579761D01*
X144476190Y-91532142D01*
X144523809Y-91436904D01*
X144523809Y-91151190D01*
X144476190Y-91055952D01*
X144428571Y-91008333D01*
X144333333Y-90960714D01*
X144190476Y-90960714D01*
X144095238Y-91008333D01*
X144047619Y-91055952D01*
X144000000Y-91151190D01*
X144000000Y-91436904D01*
X144047619Y-91532142D01*
X144095238Y-91579761D01*
X144190476Y-91627380D01*
X144333333Y-91627380D01*
X143714285Y-90960714D02*
X143333333Y-90960714D01*
X143571428Y-91627380D02*
X143571428Y-90770238D01*
X143523809Y-90675000D01*
X143428571Y-90627380D01*
X143333333Y-90627380D01*
X142285714Y-91579761D02*
X142142857Y-91627380D01*
X141904761Y-91627380D01*
X141809523Y-91579761D01*
X141761904Y-91532142D01*
X141714285Y-91436904D01*
X141714285Y-91341666D01*
X141761904Y-91246428D01*
X141809523Y-91198809D01*
X141904761Y-91151190D01*
X142095238Y-91103571D01*
X142190476Y-91055952D01*
X142238095Y-91008333D01*
X142285714Y-90913095D01*
X142285714Y-90817857D01*
X142238095Y-90722619D01*
X142190476Y-90675000D01*
X142095238Y-90627380D01*
X141857142Y-90627380D01*
X141714285Y-90675000D01*
X141142857Y-91627380D02*
X141238095Y-91579761D01*
X141285714Y-91532142D01*
X141333333Y-91436904D01*
X141333333Y-91151190D01*
X141285714Y-91055952D01*
X141238095Y-91008333D01*
X141142857Y-90960714D01*
X141000000Y-90960714D01*
X140904761Y-91008333D01*
X140857142Y-91055952D01*
X140809523Y-91151190D01*
X140809523Y-91436904D01*
X140857142Y-91532142D01*
X140904761Y-91579761D01*
X141000000Y-91627380D01*
X141142857Y-91627380D01*
X139952380Y-90960714D02*
X139952380Y-91627380D01*
X140380952Y-90960714D02*
X140380952Y-91484523D01*
X140333333Y-91579761D01*
X140238095Y-91627380D01*
X140095238Y-91627380D01*
X140000000Y-91579761D01*
X139952380Y-91532142D01*
X139619047Y-90960714D02*
X139238095Y-90960714D01*
X139476190Y-90627380D02*
X139476190Y-91484523D01*
X139428571Y-91579761D01*
X139333333Y-91627380D01*
X139238095Y-91627380D01*
X138904761Y-91627380D02*
X138904761Y-90627380D01*
X138476190Y-91627380D02*
X138476190Y-91103571D01*
X138523809Y-91008333D01*
X138619047Y-90960714D01*
X138761904Y-90960714D01*
X138857142Y-91008333D01*
X138904761Y-91055952D01*
X137571428Y-91627380D02*
X137571428Y-91103571D01*
X137619047Y-91008333D01*
X137714285Y-90960714D01*
X137904761Y-90960714D01*
X138000000Y-91008333D01*
X137571428Y-91579761D02*
X137666666Y-91627380D01*
X137904761Y-91627380D01*
X138000000Y-91579761D01*
X138047619Y-91484523D01*
X138047619Y-91389285D01*
X138000000Y-91294047D01*
X137904761Y-91246428D01*
X137666666Y-91246428D01*
X137571428Y-91198809D01*
X137095238Y-91627380D02*
X137095238Y-90960714D01*
X137095238Y-91055952D02*
X137047619Y-91008333D01*
X136952380Y-90960714D01*
X136809523Y-90960714D01*
X136714285Y-91008333D01*
X136666666Y-91103571D01*
X136666666Y-91627380D01*
X136666666Y-91103571D02*
X136619047Y-91008333D01*
X136523809Y-90960714D01*
X136380952Y-90960714D01*
X136285714Y-91008333D01*
X136238095Y-91103571D01*
X136238095Y-91627380D01*
X135761904Y-90960714D02*
X135761904Y-91960714D01*
X135761904Y-91008333D02*
X135666666Y-90960714D01*
X135476190Y-90960714D01*
X135380952Y-91008333D01*
X135333333Y-91055952D01*
X135285714Y-91151190D01*
X135285714Y-91436904D01*
X135333333Y-91532142D01*
X135380952Y-91579761D01*
X135476190Y-91627380D01*
X135666666Y-91627380D01*
X135761904Y-91579761D01*
X135000000Y-90960714D02*
X134619047Y-90960714D01*
X134857142Y-90627380D02*
X134857142Y-91484523D01*
X134809523Y-91579761D01*
X134714285Y-91627380D01*
X134619047Y-91627380D01*
X134142857Y-91627380D02*
X134238095Y-91579761D01*
X134285714Y-91532142D01*
X134333333Y-91436904D01*
X134333333Y-91151190D01*
X134285714Y-91055952D01*
X134238095Y-91008333D01*
X134142857Y-90960714D01*
X134000000Y-90960714D01*
X133904761Y-91008333D01*
X133857142Y-91055952D01*
X133809523Y-91151190D01*
X133809523Y-91436904D01*
X133857142Y-91532142D01*
X133904761Y-91579761D01*
X134000000Y-91627380D01*
X134142857Y-91627380D01*
X133380952Y-90960714D02*
X133380952Y-91627380D01*
X133380952Y-91055952D02*
X133333333Y-91008333D01*
X133238095Y-90960714D01*
X133095238Y-90960714D01*
X133000000Y-91008333D01*
X132952380Y-91103571D01*
X132952380Y-91627380D01*
X131761904Y-91579761D02*
X131619047Y-91627380D01*
X131380952Y-91627380D01*
X131285714Y-91579761D01*
X131238095Y-91532142D01*
X131190476Y-91436904D01*
X131190476Y-91341666D01*
X131238095Y-91246428D01*
X131285714Y-91198809D01*
X131380952Y-91151190D01*
X131571428Y-91103571D01*
X131666666Y-91055952D01*
X131714285Y-91008333D01*
X131761904Y-90913095D01*
X131761904Y-90817857D01*
X131714285Y-90722619D01*
X131666666Y-90675000D01*
X131571428Y-90627380D01*
X131333333Y-90627380D01*
X131190476Y-90675000D01*
X130761904Y-90627380D02*
X130761904Y-91436904D01*
X130714285Y-91532142D01*
X130666666Y-91579761D01*
X130571428Y-91627380D01*
X130380952Y-91627380D01*
X130285714Y-91579761D01*
X130238095Y-91532142D01*
X130190476Y-91436904D01*
X130190476Y-90627380D01*
X129761904Y-91579761D02*
X129619047Y-91627380D01*
X129380952Y-91627380D01*
X129285714Y-91579761D01*
X129238095Y-91532142D01*
X129190476Y-91436904D01*
X129190476Y-91341666D01*
X129238095Y-91246428D01*
X129285714Y-91198809D01*
X129380952Y-91151190D01*
X129571428Y-91103571D01*
X129666666Y-91055952D01*
X129714285Y-91008333D01*
X129761904Y-90913095D01*
X129761904Y-90817857D01*
X129714285Y-90722619D01*
X129666666Y-90675000D01*
X129571428Y-90627380D01*
X129333333Y-90627380D01*
X129190476Y-90675000D01*
X128428571Y-91103571D02*
X128761904Y-91103571D01*
X128761904Y-91627380D02*
X128761904Y-90627380D01*
X128285714Y-90627380D01*
X126666666Y-91627380D02*
X127142857Y-91627380D01*
X127142857Y-90627380D01*
X125904761Y-90960714D02*
X125904761Y-91627380D01*
X126333333Y-90960714D02*
X126333333Y-91484523D01*
X126285714Y-91579761D01*
X126190476Y-91627380D01*
X126047619Y-91627380D01*
X125952380Y-91579761D01*
X125904761Y-91532142D01*
X125428571Y-90960714D02*
X125428571Y-91627380D01*
X125428571Y-91055952D02*
X125380952Y-91008333D01*
X125285714Y-90960714D01*
X125142857Y-90960714D01*
X125047619Y-91008333D01*
X125000000Y-91103571D01*
X125000000Y-91627380D01*
X124095238Y-91627380D02*
X124095238Y-91103571D01*
X124142857Y-91008333D01*
X124238095Y-90960714D01*
X124428571Y-90960714D01*
X124523809Y-91008333D01*
X124095238Y-91579761D02*
X124190476Y-91627380D01*
X124428571Y-91627380D01*
X124523809Y-91579761D01*
X124571428Y-91484523D01*
X124571428Y-91389285D01*
X124523809Y-91294047D01*
X124428571Y-91246428D01*
X124190476Y-91246428D01*
X124095238Y-91198809D01*
X123619047Y-91627380D02*
X123619047Y-90960714D01*
X123619047Y-91151190D02*
X123571428Y-91055952D01*
X123523809Y-91008333D01*
X123428571Y-90960714D01*
X123333333Y-90960714D01*
X122238095Y-91627380D02*
X122238095Y-90627380D01*
X122238095Y-91103571D02*
X121666666Y-91103571D01*
X121666666Y-91627380D02*
X121666666Y-90627380D01*
X121047619Y-91627380D02*
X121142857Y-91579761D01*
X121190476Y-91532142D01*
X121238095Y-91436904D01*
X121238095Y-91151190D01*
X121190476Y-91055952D01*
X121142857Y-91008333D01*
X121047619Y-90960714D01*
X120904761Y-90960714D01*
X120809523Y-91008333D01*
X120761904Y-91055952D01*
X120714285Y-91151190D01*
X120714285Y-91436904D01*
X120761904Y-91532142D01*
X120809523Y-91579761D01*
X120904761Y-91627380D01*
X121047619Y-91627380D01*
X120285714Y-90960714D02*
X120285714Y-91960714D01*
X120285714Y-91008333D02*
X120190476Y-90960714D01*
X120000000Y-90960714D01*
X119904761Y-91008333D01*
X119857142Y-91055952D01*
X119809523Y-91151190D01*
X119809523Y-91436904D01*
X119857142Y-91532142D01*
X119904761Y-91579761D01*
X120000000Y-91627380D01*
X120190476Y-91627380D01*
X120285714Y-91579761D01*
X119380952Y-90960714D02*
X119380952Y-91960714D01*
X119380952Y-91008333D02*
X119285714Y-90960714D01*
X119095238Y-90960714D01*
X119000000Y-91008333D01*
X118952380Y-91055952D01*
X118904761Y-91151190D01*
X118904761Y-91436904D01*
X118952380Y-91532142D01*
X119000000Y-91579761D01*
X119095238Y-91627380D01*
X119285714Y-91627380D01*
X119380952Y-91579761D01*
X118095238Y-91579761D02*
X118190476Y-91627380D01*
X118380952Y-91627380D01*
X118476190Y-91579761D01*
X118523809Y-91484523D01*
X118523809Y-91103571D01*
X118476190Y-91008333D01*
X118380952Y-90960714D01*
X118190476Y-90960714D01*
X118095238Y-91008333D01*
X118047619Y-91103571D01*
X118047619Y-91198809D01*
X118523809Y-91294047D01*
X117619047Y-91627380D02*
X117619047Y-90960714D01*
X117619047Y-91151190D02*
X117571428Y-91055952D01*
X117523809Y-91008333D01*
X117428571Y-90960714D01*
X117333333Y-90960714D01*
X141285714Y-93277380D02*
X141285714Y-92277380D01*
X141285714Y-92753571D02*
X140714285Y-92753571D01*
X140714285Y-93277380D02*
X140714285Y-92277380D01*
X139809523Y-93277380D02*
X139809523Y-92753571D01*
X139857142Y-92658333D01*
X139952380Y-92610714D01*
X140142857Y-92610714D01*
X140238095Y-92658333D01*
X139809523Y-93229761D02*
X139904761Y-93277380D01*
X140142857Y-93277380D01*
X140238095Y-93229761D01*
X140285714Y-93134523D01*
X140285714Y-93039285D01*
X140238095Y-92944047D01*
X140142857Y-92896428D01*
X139904761Y-92896428D01*
X139809523Y-92848809D01*
X139333333Y-93277380D02*
X139333333Y-92610714D01*
X139333333Y-92801190D02*
X139285714Y-92705952D01*
X139238095Y-92658333D01*
X139142857Y-92610714D01*
X139047619Y-92610714D01*
X138714285Y-93277380D02*
X138714285Y-92610714D01*
X138714285Y-92801190D02*
X138666666Y-92705952D01*
X138619047Y-92658333D01*
X138523809Y-92610714D01*
X138428571Y-92610714D01*
X138190476Y-92610714D02*
X137952380Y-93277380D01*
X137714285Y-92610714D02*
X137952380Y-93277380D01*
X138047619Y-93515476D01*
X138095238Y-93563095D01*
X138190476Y-93610714D01*
X136619047Y-93229761D02*
X136476190Y-93277380D01*
X136238095Y-93277380D01*
X136142857Y-93229761D01*
X136095238Y-93182142D01*
X136047619Y-93086904D01*
X136047619Y-92991666D01*
X136095238Y-92896428D01*
X136142857Y-92848809D01*
X136238095Y-92801190D01*
X136428571Y-92753571D01*
X136523809Y-92705952D01*
X136571428Y-92658333D01*
X136619047Y-92563095D01*
X136619047Y-92467857D01*
X136571428Y-92372619D01*
X136523809Y-92325000D01*
X136428571Y-92277380D01*
X136190476Y-92277380D01*
X136047619Y-92325000D01*
X135619047Y-92610714D02*
X135619047Y-93277380D01*
X135619047Y-92705952D02*
X135571428Y-92658333D01*
X135476190Y-92610714D01*
X135333333Y-92610714D01*
X135238095Y-92658333D01*
X135190476Y-92753571D01*
X135190476Y-93277380D01*
X134333333Y-93229761D02*
X134428571Y-93277380D01*
X134619047Y-93277380D01*
X134714285Y-93229761D01*
X134761904Y-93134523D01*
X134761904Y-92753571D01*
X134714285Y-92658333D01*
X134619047Y-92610714D01*
X134428571Y-92610714D01*
X134333333Y-92658333D01*
X134285714Y-92753571D01*
X134285714Y-92848809D01*
X134761904Y-92944047D01*
X133714285Y-93277380D02*
X133809523Y-93229761D01*
X133857142Y-93134523D01*
X133857142Y-92277380D01*
X133190476Y-93277380D02*
X133285714Y-93229761D01*
X133333333Y-93134523D01*
X133333333Y-92277380D01*
X132095238Y-92372619D02*
X132047619Y-92325000D01*
X131952380Y-92277380D01*
X131714285Y-92277380D01*
X131619047Y-92325000D01*
X131571428Y-92372619D01*
X131523809Y-92467857D01*
X131523809Y-92563095D01*
X131571428Y-92705952D01*
X132142857Y-93277380D01*
X131523809Y-93277380D01*
X130904761Y-92277380D02*
X130809523Y-92277380D01*
X130714285Y-92325000D01*
X130666666Y-92372619D01*
X130619047Y-92467857D01*
X130571428Y-92658333D01*
X130571428Y-92896428D01*
X130619047Y-93086904D01*
X130666666Y-93182142D01*
X130714285Y-93229761D01*
X130809523Y-93277380D01*
X130904761Y-93277380D01*
X131000000Y-93229761D01*
X131047619Y-93182142D01*
X131095238Y-93086904D01*
X131142857Y-92896428D01*
X131142857Y-92658333D01*
X131095238Y-92467857D01*
X131047619Y-92372619D01*
X131000000Y-92325000D01*
X130904761Y-92277380D01*
X129619047Y-93277380D02*
X130190476Y-93277380D01*
X129904761Y-93277380D02*
X129904761Y-92277380D01*
X130000000Y-92420238D01*
X130095238Y-92515476D01*
X130190476Y-92563095D01*
X129142857Y-93277380D02*
X128952380Y-93277380D01*
X128857142Y-93229761D01*
X128809523Y-93182142D01*
X128714285Y-93039285D01*
X128666666Y-92848809D01*
X128666666Y-92467857D01*
X128714285Y-92372619D01*
X128761904Y-92325000D01*
X128857142Y-92277380D01*
X129047619Y-92277380D01*
X129142857Y-92325000D01*
X129190476Y-92372619D01*
X129238095Y-92467857D01*
X129238095Y-92705952D01*
X129190476Y-92801190D01*
X129142857Y-92848809D01*
X129047619Y-92896428D01*
X128857142Y-92896428D01*
X128761904Y-92848809D01*
X128714285Y-92801190D01*
X128666666Y-92705952D01*
X150333333Y-94832142D02*
X150380952Y-94879761D01*
X150523809Y-94927380D01*
X150619047Y-94927380D01*
X150761904Y-94879761D01*
X150857142Y-94784523D01*
X150904761Y-94689285D01*
X150952380Y-94498809D01*
X150952380Y-94355952D01*
X150904761Y-94165476D01*
X150857142Y-94070238D01*
X150761904Y-93975000D01*
X150619047Y-93927380D01*
X150523809Y-93927380D01*
X150380952Y-93975000D01*
X150333333Y-94022619D01*
X149761904Y-94927380D02*
X149857142Y-94879761D01*
X149904761Y-94832142D01*
X149952380Y-94736904D01*
X149952380Y-94451190D01*
X149904761Y-94355952D01*
X149857142Y-94308333D01*
X149761904Y-94260714D01*
X149619047Y-94260714D01*
X149523809Y-94308333D01*
X149476190Y-94355952D01*
X149428571Y-94451190D01*
X149428571Y-94736904D01*
X149476190Y-94832142D01*
X149523809Y-94879761D01*
X149619047Y-94927380D01*
X149761904Y-94927380D01*
X149000000Y-94260714D02*
X149000000Y-94927380D01*
X149000000Y-94355952D02*
X148952380Y-94308333D01*
X148857142Y-94260714D01*
X148714285Y-94260714D01*
X148619047Y-94308333D01*
X148571428Y-94403571D01*
X148571428Y-94927380D01*
X148095238Y-94260714D02*
X148095238Y-94927380D01*
X148095238Y-94355952D02*
X148047619Y-94308333D01*
X147952380Y-94260714D01*
X147809523Y-94260714D01*
X147714285Y-94308333D01*
X147666666Y-94403571D01*
X147666666Y-94927380D01*
X146809523Y-94879761D02*
X146904761Y-94927380D01*
X147095238Y-94927380D01*
X147190476Y-94879761D01*
X147238095Y-94784523D01*
X147238095Y-94403571D01*
X147190476Y-94308333D01*
X147095238Y-94260714D01*
X146904761Y-94260714D01*
X146809523Y-94308333D01*
X146761904Y-94403571D01*
X146761904Y-94498809D01*
X147238095Y-94594047D01*
X145904761Y-94879761D02*
X146000000Y-94927380D01*
X146190476Y-94927380D01*
X146285714Y-94879761D01*
X146333333Y-94832142D01*
X146380952Y-94736904D01*
X146380952Y-94451190D01*
X146333333Y-94355952D01*
X146285714Y-94308333D01*
X146190476Y-94260714D01*
X146000000Y-94260714D01*
X145904761Y-94308333D01*
X145619047Y-94260714D02*
X145238095Y-94260714D01*
X145476190Y-93927380D02*
X145476190Y-94784523D01*
X145428571Y-94879761D01*
X145333333Y-94927380D01*
X145238095Y-94927380D01*
X144190476Y-94879761D02*
X144095238Y-94927380D01*
X143904761Y-94927380D01*
X143809523Y-94879761D01*
X143761904Y-94784523D01*
X143761904Y-94736904D01*
X143809523Y-94641666D01*
X143904761Y-94594047D01*
X144047619Y-94594047D01*
X144142857Y-94546428D01*
X144190476Y-94451190D01*
X144190476Y-94403571D01*
X144142857Y-94308333D01*
X144047619Y-94260714D01*
X143904761Y-94260714D01*
X143809523Y-94308333D01*
X143190476Y-94927380D02*
X143285714Y-94879761D01*
X143333333Y-94832142D01*
X143380952Y-94736904D01*
X143380952Y-94451190D01*
X143333333Y-94355952D01*
X143285714Y-94308333D01*
X143190476Y-94260714D01*
X143047619Y-94260714D01*
X142952380Y-94308333D01*
X142904761Y-94355952D01*
X142857142Y-94451190D01*
X142857142Y-94736904D01*
X142904761Y-94832142D01*
X142952380Y-94879761D01*
X143047619Y-94927380D01*
X143190476Y-94927380D01*
X142285714Y-94927380D02*
X142380952Y-94879761D01*
X142428571Y-94784523D01*
X142428571Y-93927380D01*
X141523809Y-94879761D02*
X141619047Y-94927380D01*
X141809523Y-94927380D01*
X141904761Y-94879761D01*
X141952380Y-94784523D01*
X141952380Y-94403571D01*
X141904761Y-94308333D01*
X141809523Y-94260714D01*
X141619047Y-94260714D01*
X141523809Y-94308333D01*
X141476190Y-94403571D01*
X141476190Y-94498809D01*
X141952380Y-94594047D01*
X141047619Y-94260714D02*
X141047619Y-94927380D01*
X141047619Y-94355952D02*
X141000000Y-94308333D01*
X140904761Y-94260714D01*
X140761904Y-94260714D01*
X140666666Y-94308333D01*
X140619047Y-94403571D01*
X140619047Y-94927380D01*
X140000000Y-94927380D02*
X140095238Y-94879761D01*
X140142857Y-94832142D01*
X140190476Y-94736904D01*
X140190476Y-94451190D01*
X140142857Y-94355952D01*
X140095238Y-94308333D01*
X140000000Y-94260714D01*
X139857142Y-94260714D01*
X139761904Y-94308333D01*
X139714285Y-94355952D01*
X139666666Y-94451190D01*
X139666666Y-94736904D01*
X139714285Y-94832142D01*
X139761904Y-94879761D01*
X139857142Y-94927380D01*
X140000000Y-94927380D01*
X139238095Y-94927380D02*
X139238095Y-94260714D01*
X139238095Y-93927380D02*
X139285714Y-93975000D01*
X139238095Y-94022619D01*
X139190476Y-93975000D01*
X139238095Y-93927380D01*
X139238095Y-94022619D01*
X138333333Y-94927380D02*
X138333333Y-93927380D01*
X138333333Y-94879761D02*
X138428571Y-94927380D01*
X138619047Y-94927380D01*
X138714285Y-94879761D01*
X138761904Y-94832142D01*
X138809523Y-94736904D01*
X138809523Y-94451190D01*
X138761904Y-94355952D01*
X138714285Y-94308333D01*
X138619047Y-94260714D01*
X138428571Y-94260714D01*
X138333333Y-94308333D01*
X137190476Y-94260714D02*
X136952380Y-94927380D01*
X136714285Y-94260714D01*
X135904761Y-94927380D02*
X135904761Y-94403571D01*
X135952380Y-94308333D01*
X136047619Y-94260714D01*
X136238095Y-94260714D01*
X136333333Y-94308333D01*
X135904761Y-94879761D02*
X136000000Y-94927380D01*
X136238095Y-94927380D01*
X136333333Y-94879761D01*
X136380952Y-94784523D01*
X136380952Y-94689285D01*
X136333333Y-94594047D01*
X136238095Y-94546428D01*
X136000000Y-94546428D01*
X135904761Y-94498809D01*
X135285714Y-94927380D02*
X135380952Y-94879761D01*
X135428571Y-94784523D01*
X135428571Y-93927380D01*
X135000000Y-94260714D02*
X134761904Y-94927380D01*
X134523809Y-94260714D01*
X133761904Y-94879761D02*
X133857142Y-94927380D01*
X134047619Y-94927380D01*
X134142857Y-94879761D01*
X134190476Y-94784523D01*
X134190476Y-94403571D01*
X134142857Y-94308333D01*
X134047619Y-94260714D01*
X133857142Y-94260714D01*
X133761904Y-94308333D01*
X133714285Y-94403571D01*
X133714285Y-94498809D01*
X134190476Y-94594047D01*
X132666666Y-94260714D02*
X132285714Y-94260714D01*
X132523809Y-93927380D02*
X132523809Y-94784523D01*
X132476190Y-94879761D01*
X132380952Y-94927380D01*
X132285714Y-94927380D01*
X131809523Y-94927380D02*
X131904761Y-94879761D01*
X131952380Y-94832142D01*
X132000000Y-94736904D01*
X132000000Y-94451190D01*
X131952380Y-94355952D01*
X131904761Y-94308333D01*
X131809523Y-94260714D01*
X131666666Y-94260714D01*
X131571428Y-94308333D01*
X131523809Y-94355952D01*
X131476190Y-94451190D01*
X131476190Y-94736904D01*
X131523809Y-94832142D01*
X131571428Y-94879761D01*
X131666666Y-94927380D01*
X131809523Y-94927380D01*
X130285714Y-94546428D02*
X129523809Y-94546428D01*
X129904761Y-94927380D02*
X129904761Y-94165476D01*
X128523809Y-94927380D02*
X129095238Y-94927380D01*
X128809523Y-94927380D02*
X128809523Y-93927380D01*
X128904761Y-94070238D01*
X129000000Y-94165476D01*
X129095238Y-94213095D01*
X128142857Y-94022619D02*
X128095238Y-93975000D01*
X128000000Y-93927380D01*
X127761904Y-93927380D01*
X127666666Y-93975000D01*
X127619047Y-94022619D01*
X127571428Y-94117857D01*
X127571428Y-94213095D01*
X127619047Y-94355952D01*
X128190476Y-94927380D01*
X127571428Y-94927380D01*
X127285714Y-93927380D02*
X126952380Y-94927380D01*
X126619047Y-93927380D01*
X125095238Y-94927380D02*
X125095238Y-94403571D01*
X125142857Y-94308333D01*
X125238095Y-94260714D01*
X125428571Y-94260714D01*
X125523809Y-94308333D01*
X125095238Y-94879761D02*
X125190476Y-94927380D01*
X125428571Y-94927380D01*
X125523809Y-94879761D01*
X125571428Y-94784523D01*
X125571428Y-94689285D01*
X125523809Y-94594047D01*
X125428571Y-94546428D01*
X125190476Y-94546428D01*
X125095238Y-94498809D01*
X124619047Y-94260714D02*
X124619047Y-94927380D01*
X124619047Y-94355952D02*
X124571428Y-94308333D01*
X124476190Y-94260714D01*
X124333333Y-94260714D01*
X124238095Y-94308333D01*
X124190476Y-94403571D01*
X124190476Y-94927380D01*
X123285714Y-94927380D02*
X123285714Y-93927380D01*
X123285714Y-94879761D02*
X123380952Y-94927380D01*
X123571428Y-94927380D01*
X123666666Y-94879761D01*
X123714285Y-94832142D01*
X123761904Y-94736904D01*
X123761904Y-94451190D01*
X123714285Y-94355952D01*
X123666666Y-94308333D01*
X123571428Y-94260714D01*
X123380952Y-94260714D01*
X123285714Y-94308333D01*
X121904761Y-94927380D02*
X122000000Y-94879761D01*
X122047619Y-94832142D01*
X122095238Y-94736904D01*
X122095238Y-94451190D01*
X122047619Y-94355952D01*
X122000000Y-94308333D01*
X121904761Y-94260714D01*
X121761904Y-94260714D01*
X121666666Y-94308333D01*
X121619047Y-94355952D01*
X121571428Y-94451190D01*
X121571428Y-94736904D01*
X121619047Y-94832142D01*
X121666666Y-94879761D01*
X121761904Y-94927380D01*
X121904761Y-94927380D01*
X120714285Y-94260714D02*
X120714285Y-94927380D01*
X121142857Y-94260714D02*
X121142857Y-94784523D01*
X121095238Y-94879761D01*
X121000000Y-94927380D01*
X120857142Y-94927380D01*
X120761904Y-94879761D01*
X120714285Y-94832142D01*
X120380952Y-94260714D02*
X120000000Y-94260714D01*
X120238095Y-93927380D02*
X120238095Y-94784523D01*
X120190476Y-94879761D01*
X120095238Y-94927380D01*
X120000000Y-94927380D01*
X119666666Y-94927380D02*
X119666666Y-93927380D01*
X119095238Y-94927380D01*
X119095238Y-93927380D01*
D11*
G36*
X110909967Y-88915584D02*
G01*
X110819274Y-88946223D01*
X110735829Y-89018293D01*
X110706020Y-89050859D01*
X110635367Y-89137394D01*
X110599139Y-89215071D01*
X110588712Y-89315526D01*
X110594741Y-89459128D01*
X110646898Y-89727867D01*
X110766958Y-89946607D01*
X110956586Y-90118086D01*
X111018650Y-90155920D01*
X111201188Y-90229337D01*
X111386424Y-90254820D01*
X111549028Y-90231488D01*
X111645047Y-90177759D01*
X111712790Y-90126855D01*
X111747485Y-90117787D01*
X111770071Y-90160299D01*
X111821378Y-90266348D01*
X111895011Y-90422430D01*
X111984576Y-90615039D01*
X112042668Y-90741140D01*
X112147297Y-90970306D01*
X112220644Y-91137597D01*
X112267015Y-91257962D01*
X112290717Y-91346350D01*
X112296059Y-91417709D01*
X112287348Y-91486988D01*
X112274442Y-91545474D01*
X112237310Y-91683220D01*
X112198222Y-91797652D01*
X112184510Y-91828500D01*
X112149033Y-91880904D01*
X112067740Y-91991802D01*
X111946894Y-92152932D01*
X111792760Y-92356036D01*
X111611602Y-92592853D01*
X111409683Y-92855123D01*
X111227131Y-93090963D01*
X110984010Y-93403732D01*
X110786798Y-93655617D01*
X110629896Y-93852931D01*
X110507703Y-94001988D01*
X110414622Y-94109100D01*
X110345053Y-94180581D01*
X110293397Y-94222744D01*
X110254056Y-94241902D01*
X110221429Y-94244368D01*
X110206704Y-94241526D01*
X110025872Y-94200094D01*
X109902922Y-94187918D01*
X109815696Y-94206642D01*
X109742037Y-94257914D01*
X109721591Y-94277560D01*
X109639946Y-94390190D01*
X109620110Y-94515559D01*
X109660883Y-94673735D01*
X109693345Y-94749500D01*
X109803185Y-94928502D01*
X109940023Y-95065342D01*
X110091262Y-95158710D01*
X110244307Y-95207295D01*
X110386563Y-95209786D01*
X110505434Y-95164874D01*
X110588324Y-95071247D01*
X110622638Y-94927595D01*
X110618816Y-94845787D01*
X110601643Y-94718003D01*
X110585369Y-94620136D01*
X110581444Y-94602111D01*
X110580182Y-94574237D01*
X110597363Y-94545445D01*
X110642635Y-94510381D01*
X110725646Y-94463692D01*
X110856046Y-94400025D01*
X111043483Y-94314026D01*
X111297604Y-94200342D01*
X111337746Y-94182493D01*
X111813326Y-93971110D01*
X111666309Y-94263047D01*
X111582604Y-94443385D01*
X111494637Y-94657205D01*
X111406407Y-94891721D01*
X111321915Y-95134147D01*
X111245161Y-95371698D01*
X111180144Y-95591587D01*
X111130865Y-95781029D01*
X111101323Y-95927239D01*
X111095519Y-96017430D01*
X111110183Y-96040667D01*
X111138812Y-96005080D01*
X111187151Y-95913054D01*
X111229978Y-95818417D01*
X111397501Y-95446597D01*
X111588196Y-95057125D01*
X111789975Y-94672816D01*
X111990749Y-94316484D01*
X112178429Y-94010943D01*
X112225163Y-93940300D01*
X112290204Y-93849261D01*
X112355125Y-93777976D01*
X112436219Y-93715455D01*
X112549778Y-93650706D01*
X112712093Y-93572741D01*
X112886682Y-93494054D01*
X113100598Y-93400105D01*
X113256440Y-93336925D01*
X113372832Y-93299422D01*
X113468396Y-93282505D01*
X113561756Y-93281081D01*
X113642978Y-93287254D01*
X113883789Y-93310167D01*
X114670491Y-94018216D01*
X114886038Y-94213446D01*
X115079101Y-94390675D01*
X115241187Y-94541911D01*
X115363803Y-94659166D01*
X115438457Y-94734449D01*
X115457940Y-94759050D01*
X115422571Y-94789786D01*
X115361760Y-94806128D01*
X115213858Y-94862851D01*
X115118297Y-94971734D01*
X115075916Y-95117739D01*
X115087550Y-95285828D01*
X115154035Y-95460962D01*
X115276207Y-95628105D01*
X115313971Y-95665417D01*
X115506579Y-95804408D01*
X115717336Y-95890231D01*
X115927099Y-95919543D01*
X116116727Y-95888998D01*
X116232791Y-95825927D01*
X116317657Y-95709124D01*
X116346722Y-95551232D01*
X116318902Y-95375769D01*
X116259509Y-95245893D01*
X116204070Y-95140380D01*
X116175891Y-95058211D01*
X116175000Y-95048186D01*
X116154979Y-94999756D01*
X116097747Y-94885407D01*
X116062884Y-94818787D01*
X115853924Y-94818787D01*
X115806976Y-94826335D01*
X115736617Y-94778883D01*
X115681502Y-94729408D01*
X115572307Y-94632060D01*
X115418329Y-94495105D01*
X115228870Y-94326807D01*
X115013227Y-94135432D01*
X114781250Y-93929733D01*
X114499683Y-93679219D01*
X114276273Y-93476119D01*
X114105442Y-93312117D01*
X113981609Y-93178897D01*
X113899193Y-93068141D01*
X113852616Y-92971533D01*
X113843803Y-92922510D01*
X113504858Y-92922510D01*
X113498288Y-92999276D01*
X113433200Y-93072603D01*
X113303408Y-93152935D01*
X113102724Y-93250717D01*
X113031750Y-93283207D01*
X112848940Y-93365885D01*
X112696416Y-93434079D01*
X112589377Y-93481051D01*
X112543020Y-93500061D01*
X112542418Y-93500172D01*
X112548007Y-93471645D01*
X112560839Y-93447750D01*
X112597432Y-93394939D01*
X112674134Y-93289700D01*
X112779883Y-93147057D01*
X112903614Y-92982034D01*
X112909361Y-92974411D01*
X113226382Y-92553988D01*
X113367191Y-92716880D01*
X113459097Y-92831860D01*
X113504858Y-92922510D01*
X113843803Y-92922510D01*
X113836296Y-92880758D01*
X113844655Y-92787497D01*
X113872111Y-92683436D01*
X113896071Y-92610456D01*
X113915353Y-92568790D01*
X113795551Y-92568790D01*
X113782283Y-92659635D01*
X113781212Y-92664583D01*
X113731407Y-92796121D01*
X113658142Y-92860679D01*
X113633381Y-92865018D01*
X113596117Y-92835558D01*
X113523417Y-92758719D01*
X113455388Y-92679987D01*
X113369580Y-92573352D01*
X113332985Y-92508960D01*
X113338746Y-92465611D01*
X113373799Y-92427683D01*
X113434418Y-92385011D01*
X113476500Y-92409999D01*
X113499235Y-92444029D01*
X113589830Y-92512821D01*
X113681056Y-92527000D01*
X113768054Y-92533158D01*
X113795551Y-92568790D01*
X113915353Y-92568790D01*
X114001768Y-92382066D01*
X114124875Y-92236835D01*
X112969956Y-92236835D01*
X112961573Y-92287961D01*
X112917789Y-92363901D01*
X112831037Y-92478654D01*
X112733158Y-92598692D01*
X112578370Y-92794520D01*
X112409881Y-93021188D01*
X112258209Y-93237337D01*
X112223790Y-93289000D01*
X112117945Y-93449435D01*
X112024556Y-93589433D01*
X111956549Y-93689695D01*
X111932915Y-93723283D01*
X111877186Y-93764733D01*
X111757771Y-93832114D01*
X111588853Y-93918120D01*
X111384616Y-94015449D01*
X111224678Y-94087984D01*
X110966144Y-94200548D01*
X110774826Y-94278163D01*
X110642219Y-94323760D01*
X110559818Y-94340272D01*
X110519551Y-94331034D01*
X110489806Y-94276989D01*
X110521836Y-94220333D01*
X110560212Y-94172289D01*
X110643764Y-94065811D01*
X110765852Y-93909422D01*
X110919836Y-93711649D01*
X111099075Y-93481015D01*
X111296929Y-93226044D01*
X111412201Y-93077333D01*
X111670069Y-92744958D01*
X111881624Y-92473621D01*
X112052100Y-92257195D01*
X112186733Y-92089553D01*
X112290756Y-91964567D01*
X112369405Y-91876109D01*
X112427914Y-91818052D01*
X112471517Y-91784268D01*
X112505450Y-91768630D01*
X112533289Y-91765000D01*
X112588441Y-91788312D01*
X112671318Y-91862575D01*
X112788193Y-91994278D01*
X112945341Y-92189910D01*
X112950502Y-92196525D01*
X112969956Y-92236835D01*
X114124875Y-92236835D01*
X114146321Y-92211536D01*
X114245905Y-92126969D01*
X114321539Y-92072489D01*
X114346794Y-92061333D01*
X114376797Y-92097115D01*
X114440719Y-92197739D01*
X114533050Y-92353121D01*
X114648277Y-92553180D01*
X114780889Y-92787831D01*
X114925377Y-93046992D01*
X115076228Y-93320580D01*
X115227933Y-93598512D01*
X115374979Y-93870704D01*
X115511855Y-94127075D01*
X115633052Y-94357540D01*
X115733057Y-94552017D01*
X115806359Y-94700423D01*
X115847449Y-94792675D01*
X115853924Y-94818787D01*
X116062884Y-94818787D01*
X116007546Y-94713042D01*
X115888621Y-94490564D01*
X115745216Y-94225878D01*
X115581575Y-93926886D01*
X115401942Y-93601492D01*
X115288758Y-93397780D01*
X114431710Y-91858892D01*
X113101956Y-91858892D01*
X113079321Y-91944322D01*
X113051727Y-92047757D01*
X113055731Y-92107994D01*
X113068239Y-92173657D01*
X113065782Y-92188333D01*
X113036435Y-92157596D01*
X112969121Y-92076483D01*
X112877604Y-91961640D01*
X112864503Y-91944917D01*
X112773869Y-91819210D01*
X112712256Y-91714612D01*
X112691729Y-91651903D01*
X112692452Y-91648583D01*
X112743108Y-91613581D01*
X112845198Y-91596166D01*
X112867247Y-91595667D01*
X112976903Y-91605793D01*
X113037330Y-91650922D01*
X113073845Y-91728328D01*
X113101956Y-91858892D01*
X114431710Y-91858892D01*
X114402517Y-91806475D01*
X114516175Y-91532062D01*
X114577714Y-91396203D01*
X114624759Y-91311468D01*
X113755176Y-91311468D01*
X113744876Y-91335126D01*
X113702251Y-91380572D01*
X113677746Y-91371250D01*
X113677333Y-91365332D01*
X113707402Y-91329525D01*
X113726208Y-91316457D01*
X113755176Y-91311468D01*
X114624759Y-91311468D01*
X114632256Y-91297965D01*
X114668537Y-91257478D01*
X114669891Y-91257325D01*
X114726212Y-91234733D01*
X114754157Y-91218219D01*
X113651413Y-91218219D01*
X113650796Y-91223357D01*
X113597143Y-91243395D01*
X113551591Y-91236232D01*
X113461535Y-91247123D01*
X113351892Y-91315868D01*
X113214985Y-91393614D01*
X113038816Y-91443457D01*
X112851525Y-91462668D01*
X112681253Y-91448515D01*
X112556141Y-91398269D01*
X112550184Y-91393642D01*
X112490278Y-91318426D01*
X112408780Y-91179433D01*
X112312689Y-90992579D01*
X112209006Y-90773778D01*
X112104732Y-90538946D01*
X112006867Y-90303998D01*
X111922412Y-90084850D01*
X111858366Y-89897417D01*
X111821730Y-89757614D01*
X111817088Y-89726947D01*
X111791248Y-89488060D01*
X112173374Y-89830242D01*
X112545086Y-90163912D01*
X112856425Y-90445260D01*
X113110870Y-90677564D01*
X113311899Y-90864104D01*
X113462990Y-91008160D01*
X113567620Y-91113012D01*
X113629269Y-91181938D01*
X113651413Y-91218219D01*
X114754157Y-91218219D01*
X114822193Y-91178014D01*
X114870975Y-91145409D01*
X114986456Y-91045125D01*
X115030705Y-90948745D01*
X115032000Y-90927519D01*
X115062377Y-90825326D01*
X115140653Y-90696102D01*
X115247552Y-90564349D01*
X115363794Y-90454564D01*
X115446300Y-90401004D01*
X115447079Y-90400329D01*
X115243080Y-90400329D01*
X115201359Y-90486636D01*
X115131579Y-90579380D01*
X115052712Y-90660561D01*
X115003984Y-90675321D01*
X114985221Y-90657139D01*
X114988933Y-90585559D01*
X115062896Y-90484845D01*
X115167994Y-90391376D01*
X115230007Y-90365890D01*
X115243080Y-90400329D01*
X115447079Y-90400329D01*
X115542206Y-90318002D01*
X115546419Y-90304500D01*
X115095500Y-90304500D01*
X114992871Y-90420917D01*
X114910134Y-90509380D01*
X114869960Y-90536846D01*
X114862667Y-90523546D01*
X114891065Y-90489512D01*
X114961164Y-90423090D01*
X114979083Y-90407129D01*
X115095500Y-90304500D01*
X115546419Y-90304500D01*
X115576687Y-90207506D01*
X115569904Y-90170444D01*
X115356556Y-90170444D01*
X115350745Y-90195611D01*
X115328333Y-90198667D01*
X115293488Y-90183177D01*
X115300111Y-90170444D01*
X115350351Y-90165378D01*
X115356556Y-90170444D01*
X115569904Y-90170444D01*
X115555767Y-90093201D01*
X115485468Y-89998769D01*
X115371816Y-89947894D01*
X115330239Y-89944667D01*
X115201734Y-89974491D01*
X115128259Y-90055913D01*
X115116667Y-90118909D01*
X115083701Y-90187987D01*
X115001523Y-90276775D01*
X114895210Y-90364372D01*
X114789842Y-90429876D01*
X114716208Y-90452667D01*
X114621194Y-90433115D01*
X114562132Y-90408085D01*
X114500597Y-90388512D01*
X114460770Y-90425811D01*
X114433774Y-90492751D01*
X114378822Y-90588449D01*
X114315738Y-90622000D01*
X114257511Y-90659823D01*
X114186990Y-90761266D01*
X114114243Y-90908287D01*
X114049335Y-91082844D01*
X114038197Y-91119417D01*
X114001116Y-91193392D01*
X113968853Y-91214667D01*
X113929745Y-91187378D01*
X113836960Y-91110746D01*
X113699246Y-90992621D01*
X113525354Y-90840856D01*
X113324034Y-90663300D01*
X113104036Y-90467805D01*
X112874109Y-90262222D01*
X112643004Y-90054402D01*
X112419470Y-89852196D01*
X112212257Y-89663455D01*
X112030116Y-89496031D01*
X111881796Y-89357773D01*
X111776047Y-89256534D01*
X111721619Y-89200163D01*
X111717313Y-89194424D01*
X111662873Y-89145420D01*
X111642322Y-89140333D01*
X111585298Y-89118581D01*
X111487025Y-89063339D01*
X111429847Y-89026947D01*
X111256086Y-88940464D01*
X111063489Y-88910899D01*
X111046338Y-88910530D01*
X110909967Y-88915584D01*
X110909967Y-88915584D01*
G37*
X110909967Y-88915584D02*
X110819274Y-88946223D01*
X110735829Y-89018293D01*
X110706020Y-89050859D01*
X110635367Y-89137394D01*
X110599139Y-89215071D01*
X110588712Y-89315526D01*
X110594741Y-89459128D01*
X110646898Y-89727867D01*
X110766958Y-89946607D01*
X110956586Y-90118086D01*
X111018650Y-90155920D01*
X111201188Y-90229337D01*
X111386424Y-90254820D01*
X111549028Y-90231488D01*
X111645047Y-90177759D01*
X111712790Y-90126855D01*
X111747485Y-90117787D01*
X111770071Y-90160299D01*
X111821378Y-90266348D01*
X111895011Y-90422430D01*
X111984576Y-90615039D01*
X112042668Y-90741140D01*
X112147297Y-90970306D01*
X112220644Y-91137597D01*
X112267015Y-91257962D01*
X112290717Y-91346350D01*
X112296059Y-91417709D01*
X112287348Y-91486988D01*
X112274442Y-91545474D01*
X112237310Y-91683220D01*
X112198222Y-91797652D01*
X112184510Y-91828500D01*
X112149033Y-91880904D01*
X112067740Y-91991802D01*
X111946894Y-92152932D01*
X111792760Y-92356036D01*
X111611602Y-92592853D01*
X111409683Y-92855123D01*
X111227131Y-93090963D01*
X110984010Y-93403732D01*
X110786798Y-93655617D01*
X110629896Y-93852931D01*
X110507703Y-94001988D01*
X110414622Y-94109100D01*
X110345053Y-94180581D01*
X110293397Y-94222744D01*
X110254056Y-94241902D01*
X110221429Y-94244368D01*
X110206704Y-94241526D01*
X110025872Y-94200094D01*
X109902922Y-94187918D01*
X109815696Y-94206642D01*
X109742037Y-94257914D01*
X109721591Y-94277560D01*
X109639946Y-94390190D01*
X109620110Y-94515559D01*
X109660883Y-94673735D01*
X109693345Y-94749500D01*
X109803185Y-94928502D01*
X109940023Y-95065342D01*
X110091262Y-95158710D01*
X110244307Y-95207295D01*
X110386563Y-95209786D01*
X110505434Y-95164874D01*
X110588324Y-95071247D01*
X110622638Y-94927595D01*
X110618816Y-94845787D01*
X110601643Y-94718003D01*
X110585369Y-94620136D01*
X110581444Y-94602111D01*
X110580182Y-94574237D01*
X110597363Y-94545445D01*
X110642635Y-94510381D01*
X110725646Y-94463692D01*
X110856046Y-94400025D01*
X111043483Y-94314026D01*
X111297604Y-94200342D01*
X111337746Y-94182493D01*
X111813326Y-93971110D01*
X111666309Y-94263047D01*
X111582604Y-94443385D01*
X111494637Y-94657205D01*
X111406407Y-94891721D01*
X111321915Y-95134147D01*
X111245161Y-95371698D01*
X111180144Y-95591587D01*
X111130865Y-95781029D01*
X111101323Y-95927239D01*
X111095519Y-96017430D01*
X111110183Y-96040667D01*
X111138812Y-96005080D01*
X111187151Y-95913054D01*
X111229978Y-95818417D01*
X111397501Y-95446597D01*
X111588196Y-95057125D01*
X111789975Y-94672816D01*
X111990749Y-94316484D01*
X112178429Y-94010943D01*
X112225163Y-93940300D01*
X112290204Y-93849261D01*
X112355125Y-93777976D01*
X112436219Y-93715455D01*
X112549778Y-93650706D01*
X112712093Y-93572741D01*
X112886682Y-93494054D01*
X113100598Y-93400105D01*
X113256440Y-93336925D01*
X113372832Y-93299422D01*
X113468396Y-93282505D01*
X113561756Y-93281081D01*
X113642978Y-93287254D01*
X113883789Y-93310167D01*
X114670491Y-94018216D01*
X114886038Y-94213446D01*
X115079101Y-94390675D01*
X115241187Y-94541911D01*
X115363803Y-94659166D01*
X115438457Y-94734449D01*
X115457940Y-94759050D01*
X115422571Y-94789786D01*
X115361760Y-94806128D01*
X115213858Y-94862851D01*
X115118297Y-94971734D01*
X115075916Y-95117739D01*
X115087550Y-95285828D01*
X115154035Y-95460962D01*
X115276207Y-95628105D01*
X115313971Y-95665417D01*
X115506579Y-95804408D01*
X115717336Y-95890231D01*
X115927099Y-95919543D01*
X116116727Y-95888998D01*
X116232791Y-95825927D01*
X116317657Y-95709124D01*
X116346722Y-95551232D01*
X116318902Y-95375769D01*
X116259509Y-95245893D01*
X116204070Y-95140380D01*
X116175891Y-95058211D01*
X116175000Y-95048186D01*
X116154979Y-94999756D01*
X116097747Y-94885407D01*
X116062884Y-94818787D01*
X115853924Y-94818787D01*
X115806976Y-94826335D01*
X115736617Y-94778883D01*
X115681502Y-94729408D01*
X115572307Y-94632060D01*
X115418329Y-94495105D01*
X115228870Y-94326807D01*
X115013227Y-94135432D01*
X114781250Y-93929733D01*
X114499683Y-93679219D01*
X114276273Y-93476119D01*
X114105442Y-93312117D01*
X113981609Y-93178897D01*
X113899193Y-93068141D01*
X113852616Y-92971533D01*
X113843803Y-92922510D01*
X113504858Y-92922510D01*
X113498288Y-92999276D01*
X113433200Y-93072603D01*
X113303408Y-93152935D01*
X113102724Y-93250717D01*
X113031750Y-93283207D01*
X112848940Y-93365885D01*
X112696416Y-93434079D01*
X112589377Y-93481051D01*
X112543020Y-93500061D01*
X112542418Y-93500172D01*
X112548007Y-93471645D01*
X112560839Y-93447750D01*
X112597432Y-93394939D01*
X112674134Y-93289700D01*
X112779883Y-93147057D01*
X112903614Y-92982034D01*
X112909361Y-92974411D01*
X113226382Y-92553988D01*
X113367191Y-92716880D01*
X113459097Y-92831860D01*
X113504858Y-92922510D01*
X113843803Y-92922510D01*
X113836296Y-92880758D01*
X113844655Y-92787497D01*
X113872111Y-92683436D01*
X113896071Y-92610456D01*
X113915353Y-92568790D01*
X113795551Y-92568790D01*
X113782283Y-92659635D01*
X113781212Y-92664583D01*
X113731407Y-92796121D01*
X113658142Y-92860679D01*
X113633381Y-92865018D01*
X113596117Y-92835558D01*
X113523417Y-92758719D01*
X113455388Y-92679987D01*
X113369580Y-92573352D01*
X113332985Y-92508960D01*
X113338746Y-92465611D01*
X113373799Y-92427683D01*
X113434418Y-92385011D01*
X113476500Y-92409999D01*
X113499235Y-92444029D01*
X113589830Y-92512821D01*
X113681056Y-92527000D01*
X113768054Y-92533158D01*
X113795551Y-92568790D01*
X113915353Y-92568790D01*
X114001768Y-92382066D01*
X114124875Y-92236835D01*
X112969956Y-92236835D01*
X112961573Y-92287961D01*
X112917789Y-92363901D01*
X112831037Y-92478654D01*
X112733158Y-92598692D01*
X112578370Y-92794520D01*
X112409881Y-93021188D01*
X112258209Y-93237337D01*
X112223790Y-93289000D01*
X112117945Y-93449435D01*
X112024556Y-93589433D01*
X111956549Y-93689695D01*
X111932915Y-93723283D01*
X111877186Y-93764733D01*
X111757771Y-93832114D01*
X111588853Y-93918120D01*
X111384616Y-94015449D01*
X111224678Y-94087984D01*
X110966144Y-94200548D01*
X110774826Y-94278163D01*
X110642219Y-94323760D01*
X110559818Y-94340272D01*
X110519551Y-94331034D01*
X110489806Y-94276989D01*
X110521836Y-94220333D01*
X110560212Y-94172289D01*
X110643764Y-94065811D01*
X110765852Y-93909422D01*
X110919836Y-93711649D01*
X111099075Y-93481015D01*
X111296929Y-93226044D01*
X111412201Y-93077333D01*
X111670069Y-92744958D01*
X111881624Y-92473621D01*
X112052100Y-92257195D01*
X112186733Y-92089553D01*
X112290756Y-91964567D01*
X112369405Y-91876109D01*
X112427914Y-91818052D01*
X112471517Y-91784268D01*
X112505450Y-91768630D01*
X112533289Y-91765000D01*
X112588441Y-91788312D01*
X112671318Y-91862575D01*
X112788193Y-91994278D01*
X112945341Y-92189910D01*
X112950502Y-92196525D01*
X112969956Y-92236835D01*
X114124875Y-92236835D01*
X114146321Y-92211536D01*
X114245905Y-92126969D01*
X114321539Y-92072489D01*
X114346794Y-92061333D01*
X114376797Y-92097115D01*
X114440719Y-92197739D01*
X114533050Y-92353121D01*
X114648277Y-92553180D01*
X114780889Y-92787831D01*
X114925377Y-93046992D01*
X115076228Y-93320580D01*
X115227933Y-93598512D01*
X115374979Y-93870704D01*
X115511855Y-94127075D01*
X115633052Y-94357540D01*
X115733057Y-94552017D01*
X115806359Y-94700423D01*
X115847449Y-94792675D01*
X115853924Y-94818787D01*
X116062884Y-94818787D01*
X116007546Y-94713042D01*
X115888621Y-94490564D01*
X115745216Y-94225878D01*
X115581575Y-93926886D01*
X115401942Y-93601492D01*
X115288758Y-93397780D01*
X114431710Y-91858892D01*
X113101956Y-91858892D01*
X113079321Y-91944322D01*
X113051727Y-92047757D01*
X113055731Y-92107994D01*
X113068239Y-92173657D01*
X113065782Y-92188333D01*
X113036435Y-92157596D01*
X112969121Y-92076483D01*
X112877604Y-91961640D01*
X112864503Y-91944917D01*
X112773869Y-91819210D01*
X112712256Y-91714612D01*
X112691729Y-91651903D01*
X112692452Y-91648583D01*
X112743108Y-91613581D01*
X112845198Y-91596166D01*
X112867247Y-91595667D01*
X112976903Y-91605793D01*
X113037330Y-91650922D01*
X113073845Y-91728328D01*
X113101956Y-91858892D01*
X114431710Y-91858892D01*
X114402517Y-91806475D01*
X114516175Y-91532062D01*
X114577714Y-91396203D01*
X114624759Y-91311468D01*
X113755176Y-91311468D01*
X113744876Y-91335126D01*
X113702251Y-91380572D01*
X113677746Y-91371250D01*
X113677333Y-91365332D01*
X113707402Y-91329525D01*
X113726208Y-91316457D01*
X113755176Y-91311468D01*
X114624759Y-91311468D01*
X114632256Y-91297965D01*
X114668537Y-91257478D01*
X114669891Y-91257325D01*
X114726212Y-91234733D01*
X114754157Y-91218219D01*
X113651413Y-91218219D01*
X113650796Y-91223357D01*
X113597143Y-91243395D01*
X113551591Y-91236232D01*
X113461535Y-91247123D01*
X113351892Y-91315868D01*
X113214985Y-91393614D01*
X113038816Y-91443457D01*
X112851525Y-91462668D01*
X112681253Y-91448515D01*
X112556141Y-91398269D01*
X112550184Y-91393642D01*
X112490278Y-91318426D01*
X112408780Y-91179433D01*
X112312689Y-90992579D01*
X112209006Y-90773778D01*
X112104732Y-90538946D01*
X112006867Y-90303998D01*
X111922412Y-90084850D01*
X111858366Y-89897417D01*
X111821730Y-89757614D01*
X111817088Y-89726947D01*
X111791248Y-89488060D01*
X112173374Y-89830242D01*
X112545086Y-90163912D01*
X112856425Y-90445260D01*
X113110870Y-90677564D01*
X113311899Y-90864104D01*
X113462990Y-91008160D01*
X113567620Y-91113012D01*
X113629269Y-91181938D01*
X113651413Y-91218219D01*
X114754157Y-91218219D01*
X114822193Y-91178014D01*
X114870975Y-91145409D01*
X114986456Y-91045125D01*
X115030705Y-90948745D01*
X115032000Y-90927519D01*
X115062377Y-90825326D01*
X115140653Y-90696102D01*
X115247552Y-90564349D01*
X115363794Y-90454564D01*
X115446300Y-90401004D01*
X115447079Y-90400329D01*
X115243080Y-90400329D01*
X115201359Y-90486636D01*
X115131579Y-90579380D01*
X115052712Y-90660561D01*
X115003984Y-90675321D01*
X114985221Y-90657139D01*
X114988933Y-90585559D01*
X115062896Y-90484845D01*
X115167994Y-90391376D01*
X115230007Y-90365890D01*
X115243080Y-90400329D01*
X115447079Y-90400329D01*
X115542206Y-90318002D01*
X115546419Y-90304500D01*
X115095500Y-90304500D01*
X114992871Y-90420917D01*
X114910134Y-90509380D01*
X114869960Y-90536846D01*
X114862667Y-90523546D01*
X114891065Y-90489512D01*
X114961164Y-90423090D01*
X114979083Y-90407129D01*
X115095500Y-90304500D01*
X115546419Y-90304500D01*
X115576687Y-90207506D01*
X115569904Y-90170444D01*
X115356556Y-90170444D01*
X115350745Y-90195611D01*
X115328333Y-90198667D01*
X115293488Y-90183177D01*
X115300111Y-90170444D01*
X115350351Y-90165378D01*
X115356556Y-90170444D01*
X115569904Y-90170444D01*
X115555767Y-90093201D01*
X115485468Y-89998769D01*
X115371816Y-89947894D01*
X115330239Y-89944667D01*
X115201734Y-89974491D01*
X115128259Y-90055913D01*
X115116667Y-90118909D01*
X115083701Y-90187987D01*
X115001523Y-90276775D01*
X114895210Y-90364372D01*
X114789842Y-90429876D01*
X114716208Y-90452667D01*
X114621194Y-90433115D01*
X114562132Y-90408085D01*
X114500597Y-90388512D01*
X114460770Y-90425811D01*
X114433774Y-90492751D01*
X114378822Y-90588449D01*
X114315738Y-90622000D01*
X114257511Y-90659823D01*
X114186990Y-90761266D01*
X114114243Y-90908287D01*
X114049335Y-91082844D01*
X114038197Y-91119417D01*
X114001116Y-91193392D01*
X113968853Y-91214667D01*
X113929745Y-91187378D01*
X113836960Y-91110746D01*
X113699246Y-90992621D01*
X113525354Y-90840856D01*
X113324034Y-90663300D01*
X113104036Y-90467805D01*
X112874109Y-90262222D01*
X112643004Y-90054402D01*
X112419470Y-89852196D01*
X112212257Y-89663455D01*
X112030116Y-89496031D01*
X111881796Y-89357773D01*
X111776047Y-89256534D01*
X111721619Y-89200163D01*
X111717313Y-89194424D01*
X111662873Y-89145420D01*
X111642322Y-89140333D01*
X111585298Y-89118581D01*
X111487025Y-89063339D01*
X111429847Y-89026947D01*
X111256086Y-88940464D01*
X111063489Y-88910899D01*
X111046338Y-88910530D01*
X110909967Y-88915584D01*
D12*
X102960000Y-99674000D02*
X102960000Y-92374000D01*
X98660000Y-99674000D02*
X98660000Y-92374000D01*
X102960000Y-99674000D02*
X98660000Y-99674000D01*
X115450000Y-83686000D02*
X108150000Y-83686000D01*
X115450000Y-87986000D02*
X108150000Y-87986000D01*
X115450000Y-83686000D02*
X115450000Y-87986000D01*
X127896000Y-83686000D02*
X120596000Y-83686000D01*
X127896000Y-87986000D02*
X120596000Y-87986000D01*
X127896000Y-83686000D02*
X127896000Y-87986000D01*
X139900000Y-83686000D02*
X132600000Y-83686000D01*
X139900000Y-87986000D02*
X132600000Y-87986000D01*
X139900000Y-83686000D02*
X139900000Y-87986000D01*
X152346000Y-83686000D02*
X145046000Y-83686000D01*
X152346000Y-87986000D02*
X145046000Y-87986000D01*
X152346000Y-83686000D02*
X152346000Y-87986000D01*
X164632000Y-83686000D02*
X157332000Y-83686000D01*
X164632000Y-87986000D02*
X157332000Y-87986000D01*
X164632000Y-83686000D02*
X164632000Y-87986000D01*
X171286000Y-99928000D02*
X171286000Y-92628000D01*
X166986000Y-99928000D02*
X166986000Y-92628000D01*
X171286000Y-99928000D02*
X166986000Y-99928000D01*
X135665564Y-100208000D02*
X134461436Y-100208000D01*
X135665564Y-98388000D02*
X134461436Y-98388000D01*
X108306564Y-100208000D02*
X107102436Y-100208000D01*
X108306564Y-98388000D02*
X107102436Y-98388000D01*
X117631564Y-100208000D02*
X116427436Y-100208000D01*
X117631564Y-98388000D02*
X116427436Y-98388000D01*
X126521564Y-98388000D02*
X125317436Y-98388000D01*
X126521564Y-100208000D02*
X125317436Y-100208000D01*
X144809564Y-100462000D02*
X143605436Y-100462000D01*
X144809564Y-98642000D02*
X143605436Y-98642000D01*
X154026564Y-100462000D02*
X152822436Y-100462000D01*
X154026564Y-98642000D02*
X152822436Y-98642000D01*
X163134064Y-100462000D02*
X161929936Y-100462000D01*
X163134064Y-98642000D02*
X161929936Y-98642000D01*
D10*
X104262380Y-94335904D02*
X103262380Y-94335904D01*
X103262380Y-94574000D01*
X103310000Y-94716857D01*
X103405238Y-94812095D01*
X103500476Y-94859714D01*
X103690952Y-94907333D01*
X103833809Y-94907333D01*
X104024285Y-94859714D01*
X104119523Y-94812095D01*
X104214761Y-94716857D01*
X104262380Y-94574000D01*
X104262380Y-94335904D01*
X103262380Y-95240666D02*
X103262380Y-95907333D01*
X104262380Y-95478761D01*
X111588095Y-83288380D02*
X111588095Y-82288380D01*
X111350000Y-82288380D01*
X111207142Y-82336000D01*
X111111904Y-82431238D01*
X111064285Y-82526476D01*
X111016666Y-82716952D01*
X111016666Y-82859809D01*
X111064285Y-83050285D01*
X111111904Y-83145523D01*
X111207142Y-83240761D01*
X111350000Y-83288380D01*
X111588095Y-83288380D01*
X110159523Y-82288380D02*
X110350000Y-82288380D01*
X110445238Y-82336000D01*
X110492857Y-82383619D01*
X110588095Y-82526476D01*
X110635714Y-82716952D01*
X110635714Y-83097904D01*
X110588095Y-83193142D01*
X110540476Y-83240761D01*
X110445238Y-83288380D01*
X110254761Y-83288380D01*
X110159523Y-83240761D01*
X110111904Y-83193142D01*
X110064285Y-83097904D01*
X110064285Y-82859809D01*
X110111904Y-82764571D01*
X110159523Y-82716952D01*
X110254761Y-82669333D01*
X110445238Y-82669333D01*
X110540476Y-82716952D01*
X110588095Y-82764571D01*
X110635714Y-82859809D01*
X124034095Y-83288380D02*
X124034095Y-82288380D01*
X123796000Y-82288380D01*
X123653142Y-82336000D01*
X123557904Y-82431238D01*
X123510285Y-82526476D01*
X123462666Y-82716952D01*
X123462666Y-82859809D01*
X123510285Y-83050285D01*
X123557904Y-83145523D01*
X123653142Y-83240761D01*
X123796000Y-83288380D01*
X124034095Y-83288380D01*
X122557904Y-82288380D02*
X123034095Y-82288380D01*
X123081714Y-82764571D01*
X123034095Y-82716952D01*
X122938857Y-82669333D01*
X122700761Y-82669333D01*
X122605523Y-82716952D01*
X122557904Y-82764571D01*
X122510285Y-82859809D01*
X122510285Y-83097904D01*
X122557904Y-83193142D01*
X122605523Y-83240761D01*
X122700761Y-83288380D01*
X122938857Y-83288380D01*
X123034095Y-83240761D01*
X123081714Y-83193142D01*
X136038095Y-83288380D02*
X136038095Y-82288380D01*
X135800000Y-82288380D01*
X135657142Y-82336000D01*
X135561904Y-82431238D01*
X135514285Y-82526476D01*
X135466666Y-82716952D01*
X135466666Y-82859809D01*
X135514285Y-83050285D01*
X135561904Y-83145523D01*
X135657142Y-83240761D01*
X135800000Y-83288380D01*
X136038095Y-83288380D01*
X134609523Y-82621714D02*
X134609523Y-83288380D01*
X134847619Y-82240761D02*
X135085714Y-82955047D01*
X134466666Y-82955047D01*
X148484095Y-83288380D02*
X148484095Y-82288380D01*
X148246000Y-82288380D01*
X148103142Y-82336000D01*
X148007904Y-82431238D01*
X147960285Y-82526476D01*
X147912666Y-82716952D01*
X147912666Y-82859809D01*
X147960285Y-83050285D01*
X148007904Y-83145523D01*
X148103142Y-83240761D01*
X148246000Y-83288380D01*
X148484095Y-83288380D01*
X147579333Y-82288380D02*
X146960285Y-82288380D01*
X147293619Y-82669333D01*
X147150761Y-82669333D01*
X147055523Y-82716952D01*
X147007904Y-82764571D01*
X146960285Y-82859809D01*
X146960285Y-83097904D01*
X147007904Y-83193142D01*
X147055523Y-83240761D01*
X147150761Y-83288380D01*
X147436476Y-83288380D01*
X147531714Y-83240761D01*
X147579333Y-83193142D01*
X160770095Y-83288380D02*
X160770095Y-82288380D01*
X160532000Y-82288380D01*
X160389142Y-82336000D01*
X160293904Y-82431238D01*
X160246285Y-82526476D01*
X160198666Y-82716952D01*
X160198666Y-82859809D01*
X160246285Y-83050285D01*
X160293904Y-83145523D01*
X160389142Y-83240761D01*
X160532000Y-83288380D01*
X160770095Y-83288380D01*
X159817714Y-82383619D02*
X159770095Y-82336000D01*
X159674857Y-82288380D01*
X159436761Y-82288380D01*
X159341523Y-82336000D01*
X159293904Y-82383619D01*
X159246285Y-82478857D01*
X159246285Y-82574095D01*
X159293904Y-82716952D01*
X159865333Y-83288380D01*
X159246285Y-83288380D01*
X172588380Y-94589904D02*
X171588380Y-94589904D01*
X171588380Y-94828000D01*
X171636000Y-94970857D01*
X171731238Y-95066095D01*
X171826476Y-95113714D01*
X172016952Y-95161333D01*
X172159809Y-95161333D01*
X172350285Y-95113714D01*
X172445523Y-95066095D01*
X172540761Y-94970857D01*
X172588380Y-94828000D01*
X172588380Y-94589904D01*
X172588380Y-96113714D02*
X172588380Y-95542285D01*
X172588380Y-95828000D02*
X171588380Y-95828000D01*
X171731238Y-95732761D01*
X171826476Y-95637523D01*
X171874095Y-95542285D01*
X135230166Y-97930380D02*
X135563500Y-97454190D01*
X135801595Y-97930380D02*
X135801595Y-96930380D01*
X135420642Y-96930380D01*
X135325404Y-96978000D01*
X135277785Y-97025619D01*
X135230166Y-97120857D01*
X135230166Y-97263714D01*
X135277785Y-97358952D01*
X135325404Y-97406571D01*
X135420642Y-97454190D01*
X135801595Y-97454190D01*
X134373023Y-97263714D02*
X134373023Y-97930380D01*
X134611119Y-96882761D02*
X134849214Y-97597047D01*
X134230166Y-97597047D01*
X107871166Y-97930380D02*
X108204500Y-97454190D01*
X108442595Y-97930380D02*
X108442595Y-96930380D01*
X108061642Y-96930380D01*
X107966404Y-96978000D01*
X107918785Y-97025619D01*
X107871166Y-97120857D01*
X107871166Y-97263714D01*
X107918785Y-97358952D01*
X107966404Y-97406571D01*
X108061642Y-97454190D01*
X108442595Y-97454190D01*
X107537833Y-96930380D02*
X106871166Y-96930380D01*
X107299738Y-97930380D01*
X117196166Y-97930380D02*
X117529500Y-97454190D01*
X117767595Y-97930380D02*
X117767595Y-96930380D01*
X117386642Y-96930380D01*
X117291404Y-96978000D01*
X117243785Y-97025619D01*
X117196166Y-97120857D01*
X117196166Y-97263714D01*
X117243785Y-97358952D01*
X117291404Y-97406571D01*
X117386642Y-97454190D01*
X117767595Y-97454190D01*
X116339023Y-96930380D02*
X116529500Y-96930380D01*
X116624738Y-96978000D01*
X116672357Y-97025619D01*
X116767595Y-97168476D01*
X116815214Y-97358952D01*
X116815214Y-97739904D01*
X116767595Y-97835142D01*
X116719976Y-97882761D01*
X116624738Y-97930380D01*
X116434261Y-97930380D01*
X116339023Y-97882761D01*
X116291404Y-97835142D01*
X116243785Y-97739904D01*
X116243785Y-97501809D01*
X116291404Y-97406571D01*
X116339023Y-97358952D01*
X116434261Y-97311333D01*
X116624738Y-97311333D01*
X116719976Y-97358952D01*
X116767595Y-97406571D01*
X116815214Y-97501809D01*
X126086166Y-97930380D02*
X126419500Y-97454190D01*
X126657595Y-97930380D02*
X126657595Y-96930380D01*
X126276642Y-96930380D01*
X126181404Y-96978000D01*
X126133785Y-97025619D01*
X126086166Y-97120857D01*
X126086166Y-97263714D01*
X126133785Y-97358952D01*
X126181404Y-97406571D01*
X126276642Y-97454190D01*
X126657595Y-97454190D01*
X125181404Y-96930380D02*
X125657595Y-96930380D01*
X125705214Y-97406571D01*
X125657595Y-97358952D01*
X125562357Y-97311333D01*
X125324261Y-97311333D01*
X125229023Y-97358952D01*
X125181404Y-97406571D01*
X125133785Y-97501809D01*
X125133785Y-97739904D01*
X125181404Y-97835142D01*
X125229023Y-97882761D01*
X125324261Y-97930380D01*
X125562357Y-97930380D01*
X125657595Y-97882761D01*
X125705214Y-97835142D01*
X144374166Y-98184380D02*
X144707500Y-97708190D01*
X144945595Y-98184380D02*
X144945595Y-97184380D01*
X144564642Y-97184380D01*
X144469404Y-97232000D01*
X144421785Y-97279619D01*
X144374166Y-97374857D01*
X144374166Y-97517714D01*
X144421785Y-97612952D01*
X144469404Y-97660571D01*
X144564642Y-97708190D01*
X144945595Y-97708190D01*
X144040833Y-97184380D02*
X143421785Y-97184380D01*
X143755119Y-97565333D01*
X143612261Y-97565333D01*
X143517023Y-97612952D01*
X143469404Y-97660571D01*
X143421785Y-97755809D01*
X143421785Y-97993904D01*
X143469404Y-98089142D01*
X143517023Y-98136761D01*
X143612261Y-98184380D01*
X143897976Y-98184380D01*
X143993214Y-98136761D01*
X144040833Y-98089142D01*
X153591166Y-98184380D02*
X153924500Y-97708190D01*
X154162595Y-98184380D02*
X154162595Y-97184380D01*
X153781642Y-97184380D01*
X153686404Y-97232000D01*
X153638785Y-97279619D01*
X153591166Y-97374857D01*
X153591166Y-97517714D01*
X153638785Y-97612952D01*
X153686404Y-97660571D01*
X153781642Y-97708190D01*
X154162595Y-97708190D01*
X153210214Y-97279619D02*
X153162595Y-97232000D01*
X153067357Y-97184380D01*
X152829261Y-97184380D01*
X152734023Y-97232000D01*
X152686404Y-97279619D01*
X152638785Y-97374857D01*
X152638785Y-97470095D01*
X152686404Y-97612952D01*
X153257833Y-98184380D01*
X152638785Y-98184380D01*
X162698666Y-98184380D02*
X163032000Y-97708190D01*
X163270095Y-98184380D02*
X163270095Y-97184380D01*
X162889142Y-97184380D01*
X162793904Y-97232000D01*
X162746285Y-97279619D01*
X162698666Y-97374857D01*
X162698666Y-97517714D01*
X162746285Y-97612952D01*
X162793904Y-97660571D01*
X162889142Y-97708190D01*
X163270095Y-97708190D01*
X161746285Y-98184380D02*
X162317714Y-98184380D01*
X162032000Y-98184380D02*
X162032000Y-97184380D01*
X162127238Y-97327238D01*
X162222476Y-97422476D01*
X162317714Y-97470095D01*
%LPC*%
D13*
X94280419Y-74719581D03*
X92000000Y-73775000D03*
X89719581Y-74719581D03*
X88775000Y-77000000D03*
X89719581Y-79280419D03*
X92000000Y-80225000D03*
X94280419Y-79280419D03*
X95225000Y-77000000D03*
D14*
X92000000Y-77000000D03*
D13*
X180280419Y-74719581D03*
X178000000Y-73775000D03*
X175719581Y-74719581D03*
X174775000Y-77000000D03*
X175719581Y-79280419D03*
X178000000Y-80225000D03*
X180280419Y-79280419D03*
X181225000Y-77000000D03*
D14*
X178000000Y-77000000D03*
D13*
X94280419Y-110719581D03*
X92000000Y-109775000D03*
X89719581Y-110719581D03*
X88775000Y-113000000D03*
X89719581Y-115280419D03*
X92000000Y-116225000D03*
X94280419Y-115280419D03*
X95225000Y-113000000D03*
D14*
X92000000Y-113000000D03*
D13*
X180280419Y-110719581D03*
X178000000Y-109775000D03*
X175719581Y-110719581D03*
X174775000Y-113000000D03*
X175719581Y-115280419D03*
X178000000Y-116225000D03*
X180280419Y-115280419D03*
X181225000Y-113000000D03*
D14*
X178000000Y-113000000D03*
D15*
X100810000Y-92374000D03*
X100810000Y-97774000D03*
D16*
X108150000Y-85836000D03*
X113550000Y-85836000D03*
X120596000Y-85836000D03*
X125996000Y-85836000D03*
X132600000Y-85836000D03*
X138000000Y-85836000D03*
X145046000Y-85836000D03*
X150446000Y-85836000D03*
X157332000Y-85836000D03*
X162732000Y-85836000D03*
D15*
X169136000Y-92628000D03*
X169136000Y-98028000D03*
D17*
G36*
X134097863Y-98373290D02*
G01*
X134123869Y-98377148D01*
X134149371Y-98383535D01*
X134174124Y-98392392D01*
X134197890Y-98403633D01*
X134220439Y-98417148D01*
X134241556Y-98432809D01*
X134261035Y-98450465D01*
X134278691Y-98469944D01*
X134294352Y-98491061D01*
X134307867Y-98513610D01*
X134319108Y-98537376D01*
X134327965Y-98562129D01*
X134334352Y-98587631D01*
X134338210Y-98613637D01*
X134339500Y-98639895D01*
X134339500Y-99956105D01*
X134338210Y-99982363D01*
X134334352Y-100008369D01*
X134327965Y-100033871D01*
X134319108Y-100058624D01*
X134307867Y-100082390D01*
X134294352Y-100104939D01*
X134278691Y-100126056D01*
X134261035Y-100145535D01*
X134241556Y-100163191D01*
X134220439Y-100178852D01*
X134197890Y-100192367D01*
X134174124Y-100203608D01*
X134149371Y-100212465D01*
X134123869Y-100218852D01*
X134097863Y-100222710D01*
X134071605Y-100224000D01*
X133080395Y-100224000D01*
X133054137Y-100222710D01*
X133028131Y-100218852D01*
X133002629Y-100212465D01*
X132977876Y-100203608D01*
X132954110Y-100192367D01*
X132931561Y-100178852D01*
X132910444Y-100163191D01*
X132890965Y-100145535D01*
X132873309Y-100126056D01*
X132857648Y-100104939D01*
X132844133Y-100082390D01*
X132832892Y-100058624D01*
X132824035Y-100033871D01*
X132817648Y-100008369D01*
X132813790Y-99982363D01*
X132812500Y-99956105D01*
X132812500Y-98639895D01*
X132813790Y-98613637D01*
X132817648Y-98587631D01*
X132824035Y-98562129D01*
X132832892Y-98537376D01*
X132844133Y-98513610D01*
X132857648Y-98491061D01*
X132873309Y-98469944D01*
X132890965Y-98450465D01*
X132910444Y-98432809D01*
X132931561Y-98417148D01*
X132954110Y-98403633D01*
X132977876Y-98392392D01*
X133002629Y-98383535D01*
X133028131Y-98377148D01*
X133054137Y-98373290D01*
X133080395Y-98372000D01*
X134071605Y-98372000D01*
X134097863Y-98373290D01*
X134097863Y-98373290D01*
G37*
D18*
X133576000Y-99298000D03*
D17*
G36*
X137072863Y-98373290D02*
G01*
X137098869Y-98377148D01*
X137124371Y-98383535D01*
X137149124Y-98392392D01*
X137172890Y-98403633D01*
X137195439Y-98417148D01*
X137216556Y-98432809D01*
X137236035Y-98450465D01*
X137253691Y-98469944D01*
X137269352Y-98491061D01*
X137282867Y-98513610D01*
X137294108Y-98537376D01*
X137302965Y-98562129D01*
X137309352Y-98587631D01*
X137313210Y-98613637D01*
X137314500Y-98639895D01*
X137314500Y-99956105D01*
X137313210Y-99982363D01*
X137309352Y-100008369D01*
X137302965Y-100033871D01*
X137294108Y-100058624D01*
X137282867Y-100082390D01*
X137269352Y-100104939D01*
X137253691Y-100126056D01*
X137236035Y-100145535D01*
X137216556Y-100163191D01*
X137195439Y-100178852D01*
X137172890Y-100192367D01*
X137149124Y-100203608D01*
X137124371Y-100212465D01*
X137098869Y-100218852D01*
X137072863Y-100222710D01*
X137046605Y-100224000D01*
X136055395Y-100224000D01*
X136029137Y-100222710D01*
X136003131Y-100218852D01*
X135977629Y-100212465D01*
X135952876Y-100203608D01*
X135929110Y-100192367D01*
X135906561Y-100178852D01*
X135885444Y-100163191D01*
X135865965Y-100145535D01*
X135848309Y-100126056D01*
X135832648Y-100104939D01*
X135819133Y-100082390D01*
X135807892Y-100058624D01*
X135799035Y-100033871D01*
X135792648Y-100008369D01*
X135788790Y-99982363D01*
X135787500Y-99956105D01*
X135787500Y-98639895D01*
X135788790Y-98613637D01*
X135792648Y-98587631D01*
X135799035Y-98562129D01*
X135807892Y-98537376D01*
X135819133Y-98513610D01*
X135832648Y-98491061D01*
X135848309Y-98469944D01*
X135865965Y-98450465D01*
X135885444Y-98432809D01*
X135906561Y-98417148D01*
X135929110Y-98403633D01*
X135952876Y-98392392D01*
X135977629Y-98383535D01*
X136003131Y-98377148D01*
X136029137Y-98373290D01*
X136055395Y-98372000D01*
X137046605Y-98372000D01*
X137072863Y-98373290D01*
X137072863Y-98373290D01*
G37*
D18*
X136551000Y-99298000D03*
D19*
X106708000Y-109570000D03*
D20*
X101708000Y-109570000D03*
D19*
X143500000Y-109500000D03*
D20*
X138500000Y-109500000D03*
D17*
G36*
X106738863Y-98373290D02*
G01*
X106764869Y-98377148D01*
X106790371Y-98383535D01*
X106815124Y-98392392D01*
X106838890Y-98403633D01*
X106861439Y-98417148D01*
X106882556Y-98432809D01*
X106902035Y-98450465D01*
X106919691Y-98469944D01*
X106935352Y-98491061D01*
X106948867Y-98513610D01*
X106960108Y-98537376D01*
X106968965Y-98562129D01*
X106975352Y-98587631D01*
X106979210Y-98613637D01*
X106980500Y-98639895D01*
X106980500Y-99956105D01*
X106979210Y-99982363D01*
X106975352Y-100008369D01*
X106968965Y-100033871D01*
X106960108Y-100058624D01*
X106948867Y-100082390D01*
X106935352Y-100104939D01*
X106919691Y-100126056D01*
X106902035Y-100145535D01*
X106882556Y-100163191D01*
X106861439Y-100178852D01*
X106838890Y-100192367D01*
X106815124Y-100203608D01*
X106790371Y-100212465D01*
X106764869Y-100218852D01*
X106738863Y-100222710D01*
X106712605Y-100224000D01*
X105721395Y-100224000D01*
X105695137Y-100222710D01*
X105669131Y-100218852D01*
X105643629Y-100212465D01*
X105618876Y-100203608D01*
X105595110Y-100192367D01*
X105572561Y-100178852D01*
X105551444Y-100163191D01*
X105531965Y-100145535D01*
X105514309Y-100126056D01*
X105498648Y-100104939D01*
X105485133Y-100082390D01*
X105473892Y-100058624D01*
X105465035Y-100033871D01*
X105458648Y-100008369D01*
X105454790Y-99982363D01*
X105453500Y-99956105D01*
X105453500Y-98639895D01*
X105454790Y-98613637D01*
X105458648Y-98587631D01*
X105465035Y-98562129D01*
X105473892Y-98537376D01*
X105485133Y-98513610D01*
X105498648Y-98491061D01*
X105514309Y-98469944D01*
X105531965Y-98450465D01*
X105551444Y-98432809D01*
X105572561Y-98417148D01*
X105595110Y-98403633D01*
X105618876Y-98392392D01*
X105643629Y-98383535D01*
X105669131Y-98377148D01*
X105695137Y-98373290D01*
X105721395Y-98372000D01*
X106712605Y-98372000D01*
X106738863Y-98373290D01*
X106738863Y-98373290D01*
G37*
D18*
X106217000Y-99298000D03*
D17*
G36*
X109713863Y-98373290D02*
G01*
X109739869Y-98377148D01*
X109765371Y-98383535D01*
X109790124Y-98392392D01*
X109813890Y-98403633D01*
X109836439Y-98417148D01*
X109857556Y-98432809D01*
X109877035Y-98450465D01*
X109894691Y-98469944D01*
X109910352Y-98491061D01*
X109923867Y-98513610D01*
X109935108Y-98537376D01*
X109943965Y-98562129D01*
X109950352Y-98587631D01*
X109954210Y-98613637D01*
X109955500Y-98639895D01*
X109955500Y-99956105D01*
X109954210Y-99982363D01*
X109950352Y-100008369D01*
X109943965Y-100033871D01*
X109935108Y-100058624D01*
X109923867Y-100082390D01*
X109910352Y-100104939D01*
X109894691Y-100126056D01*
X109877035Y-100145535D01*
X109857556Y-100163191D01*
X109836439Y-100178852D01*
X109813890Y-100192367D01*
X109790124Y-100203608D01*
X109765371Y-100212465D01*
X109739869Y-100218852D01*
X109713863Y-100222710D01*
X109687605Y-100224000D01*
X108696395Y-100224000D01*
X108670137Y-100222710D01*
X108644131Y-100218852D01*
X108618629Y-100212465D01*
X108593876Y-100203608D01*
X108570110Y-100192367D01*
X108547561Y-100178852D01*
X108526444Y-100163191D01*
X108506965Y-100145535D01*
X108489309Y-100126056D01*
X108473648Y-100104939D01*
X108460133Y-100082390D01*
X108448892Y-100058624D01*
X108440035Y-100033871D01*
X108433648Y-100008369D01*
X108429790Y-99982363D01*
X108428500Y-99956105D01*
X108428500Y-98639895D01*
X108429790Y-98613637D01*
X108433648Y-98587631D01*
X108440035Y-98562129D01*
X108448892Y-98537376D01*
X108460133Y-98513610D01*
X108473648Y-98491061D01*
X108489309Y-98469944D01*
X108506965Y-98450465D01*
X108526444Y-98432809D01*
X108547561Y-98417148D01*
X108570110Y-98403633D01*
X108593876Y-98392392D01*
X108618629Y-98383535D01*
X108644131Y-98377148D01*
X108670137Y-98373290D01*
X108696395Y-98372000D01*
X109687605Y-98372000D01*
X109713863Y-98373290D01*
X109713863Y-98373290D01*
G37*
D18*
X109192000Y-99298000D03*
D17*
G36*
X116063863Y-98373290D02*
G01*
X116089869Y-98377148D01*
X116115371Y-98383535D01*
X116140124Y-98392392D01*
X116163890Y-98403633D01*
X116186439Y-98417148D01*
X116207556Y-98432809D01*
X116227035Y-98450465D01*
X116244691Y-98469944D01*
X116260352Y-98491061D01*
X116273867Y-98513610D01*
X116285108Y-98537376D01*
X116293965Y-98562129D01*
X116300352Y-98587631D01*
X116304210Y-98613637D01*
X116305500Y-98639895D01*
X116305500Y-99956105D01*
X116304210Y-99982363D01*
X116300352Y-100008369D01*
X116293965Y-100033871D01*
X116285108Y-100058624D01*
X116273867Y-100082390D01*
X116260352Y-100104939D01*
X116244691Y-100126056D01*
X116227035Y-100145535D01*
X116207556Y-100163191D01*
X116186439Y-100178852D01*
X116163890Y-100192367D01*
X116140124Y-100203608D01*
X116115371Y-100212465D01*
X116089869Y-100218852D01*
X116063863Y-100222710D01*
X116037605Y-100224000D01*
X115046395Y-100224000D01*
X115020137Y-100222710D01*
X114994131Y-100218852D01*
X114968629Y-100212465D01*
X114943876Y-100203608D01*
X114920110Y-100192367D01*
X114897561Y-100178852D01*
X114876444Y-100163191D01*
X114856965Y-100145535D01*
X114839309Y-100126056D01*
X114823648Y-100104939D01*
X114810133Y-100082390D01*
X114798892Y-100058624D01*
X114790035Y-100033871D01*
X114783648Y-100008369D01*
X114779790Y-99982363D01*
X114778500Y-99956105D01*
X114778500Y-98639895D01*
X114779790Y-98613637D01*
X114783648Y-98587631D01*
X114790035Y-98562129D01*
X114798892Y-98537376D01*
X114810133Y-98513610D01*
X114823648Y-98491061D01*
X114839309Y-98469944D01*
X114856965Y-98450465D01*
X114876444Y-98432809D01*
X114897561Y-98417148D01*
X114920110Y-98403633D01*
X114943876Y-98392392D01*
X114968629Y-98383535D01*
X114994131Y-98377148D01*
X115020137Y-98373290D01*
X115046395Y-98372000D01*
X116037605Y-98372000D01*
X116063863Y-98373290D01*
X116063863Y-98373290D01*
G37*
D18*
X115542000Y-99298000D03*
D17*
G36*
X119038863Y-98373290D02*
G01*
X119064869Y-98377148D01*
X119090371Y-98383535D01*
X119115124Y-98392392D01*
X119138890Y-98403633D01*
X119161439Y-98417148D01*
X119182556Y-98432809D01*
X119202035Y-98450465D01*
X119219691Y-98469944D01*
X119235352Y-98491061D01*
X119248867Y-98513610D01*
X119260108Y-98537376D01*
X119268965Y-98562129D01*
X119275352Y-98587631D01*
X119279210Y-98613637D01*
X119280500Y-98639895D01*
X119280500Y-99956105D01*
X119279210Y-99982363D01*
X119275352Y-100008369D01*
X119268965Y-100033871D01*
X119260108Y-100058624D01*
X119248867Y-100082390D01*
X119235352Y-100104939D01*
X119219691Y-100126056D01*
X119202035Y-100145535D01*
X119182556Y-100163191D01*
X119161439Y-100178852D01*
X119138890Y-100192367D01*
X119115124Y-100203608D01*
X119090371Y-100212465D01*
X119064869Y-100218852D01*
X119038863Y-100222710D01*
X119012605Y-100224000D01*
X118021395Y-100224000D01*
X117995137Y-100222710D01*
X117969131Y-100218852D01*
X117943629Y-100212465D01*
X117918876Y-100203608D01*
X117895110Y-100192367D01*
X117872561Y-100178852D01*
X117851444Y-100163191D01*
X117831965Y-100145535D01*
X117814309Y-100126056D01*
X117798648Y-100104939D01*
X117785133Y-100082390D01*
X117773892Y-100058624D01*
X117765035Y-100033871D01*
X117758648Y-100008369D01*
X117754790Y-99982363D01*
X117753500Y-99956105D01*
X117753500Y-98639895D01*
X117754790Y-98613637D01*
X117758648Y-98587631D01*
X117765035Y-98562129D01*
X117773892Y-98537376D01*
X117785133Y-98513610D01*
X117798648Y-98491061D01*
X117814309Y-98469944D01*
X117831965Y-98450465D01*
X117851444Y-98432809D01*
X117872561Y-98417148D01*
X117895110Y-98403633D01*
X117918876Y-98392392D01*
X117943629Y-98383535D01*
X117969131Y-98377148D01*
X117995137Y-98373290D01*
X118021395Y-98372000D01*
X119012605Y-98372000D01*
X119038863Y-98373290D01*
X119038863Y-98373290D01*
G37*
D18*
X118517000Y-99298000D03*
D17*
G36*
X127928863Y-98373290D02*
G01*
X127954869Y-98377148D01*
X127980371Y-98383535D01*
X128005124Y-98392392D01*
X128028890Y-98403633D01*
X128051439Y-98417148D01*
X128072556Y-98432809D01*
X128092035Y-98450465D01*
X128109691Y-98469944D01*
X128125352Y-98491061D01*
X128138867Y-98513610D01*
X128150108Y-98537376D01*
X128158965Y-98562129D01*
X128165352Y-98587631D01*
X128169210Y-98613637D01*
X128170500Y-98639895D01*
X128170500Y-99956105D01*
X128169210Y-99982363D01*
X128165352Y-100008369D01*
X128158965Y-100033871D01*
X128150108Y-100058624D01*
X128138867Y-100082390D01*
X128125352Y-100104939D01*
X128109691Y-100126056D01*
X128092035Y-100145535D01*
X128072556Y-100163191D01*
X128051439Y-100178852D01*
X128028890Y-100192367D01*
X128005124Y-100203608D01*
X127980371Y-100212465D01*
X127954869Y-100218852D01*
X127928863Y-100222710D01*
X127902605Y-100224000D01*
X126911395Y-100224000D01*
X126885137Y-100222710D01*
X126859131Y-100218852D01*
X126833629Y-100212465D01*
X126808876Y-100203608D01*
X126785110Y-100192367D01*
X126762561Y-100178852D01*
X126741444Y-100163191D01*
X126721965Y-100145535D01*
X126704309Y-100126056D01*
X126688648Y-100104939D01*
X126675133Y-100082390D01*
X126663892Y-100058624D01*
X126655035Y-100033871D01*
X126648648Y-100008369D01*
X126644790Y-99982363D01*
X126643500Y-99956105D01*
X126643500Y-98639895D01*
X126644790Y-98613637D01*
X126648648Y-98587631D01*
X126655035Y-98562129D01*
X126663892Y-98537376D01*
X126675133Y-98513610D01*
X126688648Y-98491061D01*
X126704309Y-98469944D01*
X126721965Y-98450465D01*
X126741444Y-98432809D01*
X126762561Y-98417148D01*
X126785110Y-98403633D01*
X126808876Y-98392392D01*
X126833629Y-98383535D01*
X126859131Y-98377148D01*
X126885137Y-98373290D01*
X126911395Y-98372000D01*
X127902605Y-98372000D01*
X127928863Y-98373290D01*
X127928863Y-98373290D01*
G37*
D18*
X127407000Y-99298000D03*
D17*
G36*
X124953863Y-98373290D02*
G01*
X124979869Y-98377148D01*
X125005371Y-98383535D01*
X125030124Y-98392392D01*
X125053890Y-98403633D01*
X125076439Y-98417148D01*
X125097556Y-98432809D01*
X125117035Y-98450465D01*
X125134691Y-98469944D01*
X125150352Y-98491061D01*
X125163867Y-98513610D01*
X125175108Y-98537376D01*
X125183965Y-98562129D01*
X125190352Y-98587631D01*
X125194210Y-98613637D01*
X125195500Y-98639895D01*
X125195500Y-99956105D01*
X125194210Y-99982363D01*
X125190352Y-100008369D01*
X125183965Y-100033871D01*
X125175108Y-100058624D01*
X125163867Y-100082390D01*
X125150352Y-100104939D01*
X125134691Y-100126056D01*
X125117035Y-100145535D01*
X125097556Y-100163191D01*
X125076439Y-100178852D01*
X125053890Y-100192367D01*
X125030124Y-100203608D01*
X125005371Y-100212465D01*
X124979869Y-100218852D01*
X124953863Y-100222710D01*
X124927605Y-100224000D01*
X123936395Y-100224000D01*
X123910137Y-100222710D01*
X123884131Y-100218852D01*
X123858629Y-100212465D01*
X123833876Y-100203608D01*
X123810110Y-100192367D01*
X123787561Y-100178852D01*
X123766444Y-100163191D01*
X123746965Y-100145535D01*
X123729309Y-100126056D01*
X123713648Y-100104939D01*
X123700133Y-100082390D01*
X123688892Y-100058624D01*
X123680035Y-100033871D01*
X123673648Y-100008369D01*
X123669790Y-99982363D01*
X123668500Y-99956105D01*
X123668500Y-98639895D01*
X123669790Y-98613637D01*
X123673648Y-98587631D01*
X123680035Y-98562129D01*
X123688892Y-98537376D01*
X123700133Y-98513610D01*
X123713648Y-98491061D01*
X123729309Y-98469944D01*
X123746965Y-98450465D01*
X123766444Y-98432809D01*
X123787561Y-98417148D01*
X123810110Y-98403633D01*
X123833876Y-98392392D01*
X123858629Y-98383535D01*
X123884131Y-98377148D01*
X123910137Y-98373290D01*
X123936395Y-98372000D01*
X124927605Y-98372000D01*
X124953863Y-98373290D01*
X124953863Y-98373290D01*
G37*
D18*
X124432000Y-99298000D03*
D17*
G36*
X143241863Y-98627290D02*
G01*
X143267869Y-98631148D01*
X143293371Y-98637535D01*
X143318124Y-98646392D01*
X143341890Y-98657633D01*
X143364439Y-98671148D01*
X143385556Y-98686809D01*
X143405035Y-98704465D01*
X143422691Y-98723944D01*
X143438352Y-98745061D01*
X143451867Y-98767610D01*
X143463108Y-98791376D01*
X143471965Y-98816129D01*
X143478352Y-98841631D01*
X143482210Y-98867637D01*
X143483500Y-98893895D01*
X143483500Y-100210105D01*
X143482210Y-100236363D01*
X143478352Y-100262369D01*
X143471965Y-100287871D01*
X143463108Y-100312624D01*
X143451867Y-100336390D01*
X143438352Y-100358939D01*
X143422691Y-100380056D01*
X143405035Y-100399535D01*
X143385556Y-100417191D01*
X143364439Y-100432852D01*
X143341890Y-100446367D01*
X143318124Y-100457608D01*
X143293371Y-100466465D01*
X143267869Y-100472852D01*
X143241863Y-100476710D01*
X143215605Y-100478000D01*
X142224395Y-100478000D01*
X142198137Y-100476710D01*
X142172131Y-100472852D01*
X142146629Y-100466465D01*
X142121876Y-100457608D01*
X142098110Y-100446367D01*
X142075561Y-100432852D01*
X142054444Y-100417191D01*
X142034965Y-100399535D01*
X142017309Y-100380056D01*
X142001648Y-100358939D01*
X141988133Y-100336390D01*
X141976892Y-100312624D01*
X141968035Y-100287871D01*
X141961648Y-100262369D01*
X141957790Y-100236363D01*
X141956500Y-100210105D01*
X141956500Y-98893895D01*
X141957790Y-98867637D01*
X141961648Y-98841631D01*
X141968035Y-98816129D01*
X141976892Y-98791376D01*
X141988133Y-98767610D01*
X142001648Y-98745061D01*
X142017309Y-98723944D01*
X142034965Y-98704465D01*
X142054444Y-98686809D01*
X142075561Y-98671148D01*
X142098110Y-98657633D01*
X142121876Y-98646392D01*
X142146629Y-98637535D01*
X142172131Y-98631148D01*
X142198137Y-98627290D01*
X142224395Y-98626000D01*
X143215605Y-98626000D01*
X143241863Y-98627290D01*
X143241863Y-98627290D01*
G37*
D18*
X142720000Y-99552000D03*
D17*
G36*
X146216863Y-98627290D02*
G01*
X146242869Y-98631148D01*
X146268371Y-98637535D01*
X146293124Y-98646392D01*
X146316890Y-98657633D01*
X146339439Y-98671148D01*
X146360556Y-98686809D01*
X146380035Y-98704465D01*
X146397691Y-98723944D01*
X146413352Y-98745061D01*
X146426867Y-98767610D01*
X146438108Y-98791376D01*
X146446965Y-98816129D01*
X146453352Y-98841631D01*
X146457210Y-98867637D01*
X146458500Y-98893895D01*
X146458500Y-100210105D01*
X146457210Y-100236363D01*
X146453352Y-100262369D01*
X146446965Y-100287871D01*
X146438108Y-100312624D01*
X146426867Y-100336390D01*
X146413352Y-100358939D01*
X146397691Y-100380056D01*
X146380035Y-100399535D01*
X146360556Y-100417191D01*
X146339439Y-100432852D01*
X146316890Y-100446367D01*
X146293124Y-100457608D01*
X146268371Y-100466465D01*
X146242869Y-100472852D01*
X146216863Y-100476710D01*
X146190605Y-100478000D01*
X145199395Y-100478000D01*
X145173137Y-100476710D01*
X145147131Y-100472852D01*
X145121629Y-100466465D01*
X145096876Y-100457608D01*
X145073110Y-100446367D01*
X145050561Y-100432852D01*
X145029444Y-100417191D01*
X145009965Y-100399535D01*
X144992309Y-100380056D01*
X144976648Y-100358939D01*
X144963133Y-100336390D01*
X144951892Y-100312624D01*
X144943035Y-100287871D01*
X144936648Y-100262369D01*
X144932790Y-100236363D01*
X144931500Y-100210105D01*
X144931500Y-98893895D01*
X144932790Y-98867637D01*
X144936648Y-98841631D01*
X144943035Y-98816129D01*
X144951892Y-98791376D01*
X144963133Y-98767610D01*
X144976648Y-98745061D01*
X144992309Y-98723944D01*
X145009965Y-98704465D01*
X145029444Y-98686809D01*
X145050561Y-98671148D01*
X145073110Y-98657633D01*
X145096876Y-98646392D01*
X145121629Y-98637535D01*
X145147131Y-98631148D01*
X145173137Y-98627290D01*
X145199395Y-98626000D01*
X146190605Y-98626000D01*
X146216863Y-98627290D01*
X146216863Y-98627290D01*
G37*
D18*
X145695000Y-99552000D03*
D17*
G36*
X152458863Y-98627290D02*
G01*
X152484869Y-98631148D01*
X152510371Y-98637535D01*
X152535124Y-98646392D01*
X152558890Y-98657633D01*
X152581439Y-98671148D01*
X152602556Y-98686809D01*
X152622035Y-98704465D01*
X152639691Y-98723944D01*
X152655352Y-98745061D01*
X152668867Y-98767610D01*
X152680108Y-98791376D01*
X152688965Y-98816129D01*
X152695352Y-98841631D01*
X152699210Y-98867637D01*
X152700500Y-98893895D01*
X152700500Y-100210105D01*
X152699210Y-100236363D01*
X152695352Y-100262369D01*
X152688965Y-100287871D01*
X152680108Y-100312624D01*
X152668867Y-100336390D01*
X152655352Y-100358939D01*
X152639691Y-100380056D01*
X152622035Y-100399535D01*
X152602556Y-100417191D01*
X152581439Y-100432852D01*
X152558890Y-100446367D01*
X152535124Y-100457608D01*
X152510371Y-100466465D01*
X152484869Y-100472852D01*
X152458863Y-100476710D01*
X152432605Y-100478000D01*
X151441395Y-100478000D01*
X151415137Y-100476710D01*
X151389131Y-100472852D01*
X151363629Y-100466465D01*
X151338876Y-100457608D01*
X151315110Y-100446367D01*
X151292561Y-100432852D01*
X151271444Y-100417191D01*
X151251965Y-100399535D01*
X151234309Y-100380056D01*
X151218648Y-100358939D01*
X151205133Y-100336390D01*
X151193892Y-100312624D01*
X151185035Y-100287871D01*
X151178648Y-100262369D01*
X151174790Y-100236363D01*
X151173500Y-100210105D01*
X151173500Y-98893895D01*
X151174790Y-98867637D01*
X151178648Y-98841631D01*
X151185035Y-98816129D01*
X151193892Y-98791376D01*
X151205133Y-98767610D01*
X151218648Y-98745061D01*
X151234309Y-98723944D01*
X151251965Y-98704465D01*
X151271444Y-98686809D01*
X151292561Y-98671148D01*
X151315110Y-98657633D01*
X151338876Y-98646392D01*
X151363629Y-98637535D01*
X151389131Y-98631148D01*
X151415137Y-98627290D01*
X151441395Y-98626000D01*
X152432605Y-98626000D01*
X152458863Y-98627290D01*
X152458863Y-98627290D01*
G37*
D18*
X151937000Y-99552000D03*
D17*
G36*
X155433863Y-98627290D02*
G01*
X155459869Y-98631148D01*
X155485371Y-98637535D01*
X155510124Y-98646392D01*
X155533890Y-98657633D01*
X155556439Y-98671148D01*
X155577556Y-98686809D01*
X155597035Y-98704465D01*
X155614691Y-98723944D01*
X155630352Y-98745061D01*
X155643867Y-98767610D01*
X155655108Y-98791376D01*
X155663965Y-98816129D01*
X155670352Y-98841631D01*
X155674210Y-98867637D01*
X155675500Y-98893895D01*
X155675500Y-100210105D01*
X155674210Y-100236363D01*
X155670352Y-100262369D01*
X155663965Y-100287871D01*
X155655108Y-100312624D01*
X155643867Y-100336390D01*
X155630352Y-100358939D01*
X155614691Y-100380056D01*
X155597035Y-100399535D01*
X155577556Y-100417191D01*
X155556439Y-100432852D01*
X155533890Y-100446367D01*
X155510124Y-100457608D01*
X155485371Y-100466465D01*
X155459869Y-100472852D01*
X155433863Y-100476710D01*
X155407605Y-100478000D01*
X154416395Y-100478000D01*
X154390137Y-100476710D01*
X154364131Y-100472852D01*
X154338629Y-100466465D01*
X154313876Y-100457608D01*
X154290110Y-100446367D01*
X154267561Y-100432852D01*
X154246444Y-100417191D01*
X154226965Y-100399535D01*
X154209309Y-100380056D01*
X154193648Y-100358939D01*
X154180133Y-100336390D01*
X154168892Y-100312624D01*
X154160035Y-100287871D01*
X154153648Y-100262369D01*
X154149790Y-100236363D01*
X154148500Y-100210105D01*
X154148500Y-98893895D01*
X154149790Y-98867637D01*
X154153648Y-98841631D01*
X154160035Y-98816129D01*
X154168892Y-98791376D01*
X154180133Y-98767610D01*
X154193648Y-98745061D01*
X154209309Y-98723944D01*
X154226965Y-98704465D01*
X154246444Y-98686809D01*
X154267561Y-98671148D01*
X154290110Y-98657633D01*
X154313876Y-98646392D01*
X154338629Y-98637535D01*
X154364131Y-98631148D01*
X154390137Y-98627290D01*
X154416395Y-98626000D01*
X155407605Y-98626000D01*
X155433863Y-98627290D01*
X155433863Y-98627290D01*
G37*
D18*
X154912000Y-99552000D03*
D17*
G36*
X161566363Y-98627290D02*
G01*
X161592369Y-98631148D01*
X161617871Y-98637535D01*
X161642624Y-98646392D01*
X161666390Y-98657633D01*
X161688939Y-98671148D01*
X161710056Y-98686809D01*
X161729535Y-98704465D01*
X161747191Y-98723944D01*
X161762852Y-98745061D01*
X161776367Y-98767610D01*
X161787608Y-98791376D01*
X161796465Y-98816129D01*
X161802852Y-98841631D01*
X161806710Y-98867637D01*
X161808000Y-98893895D01*
X161808000Y-100210105D01*
X161806710Y-100236363D01*
X161802852Y-100262369D01*
X161796465Y-100287871D01*
X161787608Y-100312624D01*
X161776367Y-100336390D01*
X161762852Y-100358939D01*
X161747191Y-100380056D01*
X161729535Y-100399535D01*
X161710056Y-100417191D01*
X161688939Y-100432852D01*
X161666390Y-100446367D01*
X161642624Y-100457608D01*
X161617871Y-100466465D01*
X161592369Y-100472852D01*
X161566363Y-100476710D01*
X161540105Y-100478000D01*
X160548895Y-100478000D01*
X160522637Y-100476710D01*
X160496631Y-100472852D01*
X160471129Y-100466465D01*
X160446376Y-100457608D01*
X160422610Y-100446367D01*
X160400061Y-100432852D01*
X160378944Y-100417191D01*
X160359465Y-100399535D01*
X160341809Y-100380056D01*
X160326148Y-100358939D01*
X160312633Y-100336390D01*
X160301392Y-100312624D01*
X160292535Y-100287871D01*
X160286148Y-100262369D01*
X160282290Y-100236363D01*
X160281000Y-100210105D01*
X160281000Y-98893895D01*
X160282290Y-98867637D01*
X160286148Y-98841631D01*
X160292535Y-98816129D01*
X160301392Y-98791376D01*
X160312633Y-98767610D01*
X160326148Y-98745061D01*
X160341809Y-98723944D01*
X160359465Y-98704465D01*
X160378944Y-98686809D01*
X160400061Y-98671148D01*
X160422610Y-98657633D01*
X160446376Y-98646392D01*
X160471129Y-98637535D01*
X160496631Y-98631148D01*
X160522637Y-98627290D01*
X160548895Y-98626000D01*
X161540105Y-98626000D01*
X161566363Y-98627290D01*
X161566363Y-98627290D01*
G37*
D18*
X161044500Y-99552000D03*
D17*
G36*
X164541363Y-98627290D02*
G01*
X164567369Y-98631148D01*
X164592871Y-98637535D01*
X164617624Y-98646392D01*
X164641390Y-98657633D01*
X164663939Y-98671148D01*
X164685056Y-98686809D01*
X164704535Y-98704465D01*
X164722191Y-98723944D01*
X164737852Y-98745061D01*
X164751367Y-98767610D01*
X164762608Y-98791376D01*
X164771465Y-98816129D01*
X164777852Y-98841631D01*
X164781710Y-98867637D01*
X164783000Y-98893895D01*
X164783000Y-100210105D01*
X164781710Y-100236363D01*
X164777852Y-100262369D01*
X164771465Y-100287871D01*
X164762608Y-100312624D01*
X164751367Y-100336390D01*
X164737852Y-100358939D01*
X164722191Y-100380056D01*
X164704535Y-100399535D01*
X164685056Y-100417191D01*
X164663939Y-100432852D01*
X164641390Y-100446367D01*
X164617624Y-100457608D01*
X164592871Y-100466465D01*
X164567369Y-100472852D01*
X164541363Y-100476710D01*
X164515105Y-100478000D01*
X163523895Y-100478000D01*
X163497637Y-100476710D01*
X163471631Y-100472852D01*
X163446129Y-100466465D01*
X163421376Y-100457608D01*
X163397610Y-100446367D01*
X163375061Y-100432852D01*
X163353944Y-100417191D01*
X163334465Y-100399535D01*
X163316809Y-100380056D01*
X163301148Y-100358939D01*
X163287633Y-100336390D01*
X163276392Y-100312624D01*
X163267535Y-100287871D01*
X163261148Y-100262369D01*
X163257290Y-100236363D01*
X163256000Y-100210105D01*
X163256000Y-98893895D01*
X163257290Y-98867637D01*
X163261148Y-98841631D01*
X163267535Y-98816129D01*
X163276392Y-98791376D01*
X163287633Y-98767610D01*
X163301148Y-98745061D01*
X163316809Y-98723944D01*
X163334465Y-98704465D01*
X163353944Y-98686809D01*
X163375061Y-98671148D01*
X163397610Y-98657633D01*
X163421376Y-98646392D01*
X163446129Y-98637535D01*
X163471631Y-98631148D01*
X163497637Y-98627290D01*
X163523895Y-98626000D01*
X164515105Y-98626000D01*
X164541363Y-98627290D01*
X164541363Y-98627290D01*
G37*
D18*
X164019500Y-99552000D03*
D21*
X95476000Y-97186000D03*
D22*
X95476000Y-92186000D03*
D19*
X108296000Y-80502000D03*
D20*
X113296000Y-80502000D03*
D19*
X131250000Y-109570000D03*
D20*
X126250000Y-109570000D03*
D19*
X120742000Y-80502000D03*
D20*
X125742000Y-80502000D03*
D19*
X132934000Y-80502000D03*
D20*
X137934000Y-80502000D03*
D19*
X145380000Y-80502000D03*
D20*
X150380000Y-80502000D03*
D19*
X157572000Y-80502000D03*
D20*
X162572000Y-80502000D03*
D21*
X174470000Y-93028000D03*
D22*
X174470000Y-98028000D03*
D19*
X168238000Y-109570000D03*
D20*
X163238000Y-109570000D03*
D19*
X118900000Y-109570000D03*
D20*
X113900000Y-109570000D03*
D19*
X155792000Y-109570000D03*
D20*
X150792000Y-109570000D03*
M02*
