G04 #@! TF.GenerationSoftware,KiCad,Pcbnew,(5.1.4)-1*
G04 #@! TF.CreationDate,2019-11-29T00:22:24+00:00*
G04 #@! TF.ProjectId,relay-replacement-board,72656c61-792d-4726-9570-6c6163656d65,rev?*
G04 #@! TF.SameCoordinates,Original*
G04 #@! TF.FileFunction,Copper,L1,Top*
G04 #@! TF.FilePolarity,Positive*
%FSLAX46Y46*%
G04 Gerber Fmt 4.6, Leading zero omitted, Abs format (unit mm)*
G04 Created by KiCad (PCBNEW (5.1.4)-1) date 2019-11-29 00:22:24*
%MOMM*%
%LPD*%
G04 APERTURE LIST*
%ADD10C,0.900000*%
%ADD11C,8.600000*%
%ADD12O,1.980000X3.960000*%
%ADD13R,1.980000X3.960000*%
%ADD14R,5.800000X6.400000*%
%ADD15R,1.200000X2.200000*%
%ADD16O,3.960000X1.980000*%
%ADD17R,3.960000X1.980000*%
%ADD18C,0.800000*%
%ADD19C,0.500000*%
%ADD20C,2.500000*%
%ADD21C,0.254000*%
G04 APERTURE END LIST*
D10*
X94280419Y-74719581D03*
X92000000Y-73775000D03*
X89719581Y-74719581D03*
X88775000Y-77000000D03*
X89719581Y-79280419D03*
X92000000Y-80225000D03*
X94280419Y-79280419D03*
X95225000Y-77000000D03*
D11*
X92000000Y-77000000D03*
D10*
X180280419Y-74719581D03*
X178000000Y-73775000D03*
X175719581Y-74719581D03*
X174775000Y-77000000D03*
X175719581Y-79280419D03*
X178000000Y-80225000D03*
X180280419Y-79280419D03*
X181225000Y-77000000D03*
D11*
X178000000Y-77000000D03*
D10*
X94280419Y-110719581D03*
X92000000Y-109775000D03*
X89719581Y-110719581D03*
X88775000Y-113000000D03*
X89719581Y-115280419D03*
X92000000Y-116225000D03*
X94280419Y-115280419D03*
X95225000Y-113000000D03*
D11*
X92000000Y-113000000D03*
D10*
X180280419Y-110719581D03*
X178000000Y-109775000D03*
X175719581Y-110719581D03*
X174775000Y-113000000D03*
X175719581Y-115280419D03*
X178000000Y-116225000D03*
X180280419Y-115280419D03*
X181225000Y-113000000D03*
D11*
X178000000Y-113000000D03*
D12*
X106708000Y-109570000D03*
D13*
X101708000Y-109570000D03*
D12*
X143500000Y-109500000D03*
D13*
X138500000Y-109500000D03*
D14*
X107669000Y-92845000D03*
D15*
X109949000Y-99145000D03*
X105389000Y-99145000D03*
D14*
X116812000Y-92880000D03*
D15*
X119092000Y-99180000D03*
X114532000Y-99180000D03*
D14*
X125956000Y-92880000D03*
D15*
X128236000Y-99180000D03*
X123676000Y-99180000D03*
D14*
X135100000Y-92880000D03*
D15*
X137380000Y-99180000D03*
X132820000Y-99180000D03*
X141964000Y-99434000D03*
X146524000Y-99434000D03*
D14*
X144244000Y-93134000D03*
X153387000Y-93099000D03*
D15*
X155667000Y-99399000D03*
X151107000Y-99399000D03*
D14*
X162533000Y-93099000D03*
D15*
X164813000Y-99399000D03*
X160253000Y-99399000D03*
D16*
X95476000Y-97186000D03*
D17*
X95476000Y-92186000D03*
D12*
X108296000Y-80502000D03*
D13*
X113296000Y-80502000D03*
D12*
X131250000Y-109570000D03*
D13*
X126250000Y-109570000D03*
D12*
X120742000Y-80502000D03*
D13*
X125742000Y-80502000D03*
D12*
X132934000Y-80502000D03*
D13*
X137934000Y-80502000D03*
D12*
X145380000Y-80502000D03*
D13*
X150380000Y-80502000D03*
D12*
X157572000Y-80502000D03*
D13*
X162572000Y-80502000D03*
D16*
X174470000Y-93028000D03*
D17*
X174470000Y-98028000D03*
D12*
X168238000Y-109570000D03*
D13*
X163238000Y-109570000D03*
D12*
X118900000Y-109570000D03*
D13*
X113900000Y-109570000D03*
D12*
X155792000Y-109570000D03*
D13*
X150792000Y-109570000D03*
D18*
X142750000Y-101500000D03*
X151750000Y-101500000D03*
X124250000Y-101500000D03*
X133250000Y-101500000D03*
X109192000Y-101330000D03*
X118336000Y-101330000D03*
X127226000Y-101584000D03*
X136370000Y-101584000D03*
X145514000Y-101584000D03*
X154658000Y-101584000D03*
X163548000Y-101584000D03*
X160750000Y-101500000D03*
X106250000Y-101500000D03*
X115542000Y-101330000D03*
D19*
X142750000Y-100220000D02*
X141964000Y-99434000D01*
X142750000Y-101500000D02*
X142750000Y-100220000D01*
X151750000Y-100042000D02*
X151107000Y-99399000D01*
X151750000Y-101500000D02*
X151750000Y-100042000D01*
X113900000Y-108580000D02*
X113900000Y-109570000D01*
X124250000Y-99754000D02*
X123676000Y-99180000D01*
X124250000Y-101500000D02*
X124250000Y-99754000D01*
X133250000Y-99610000D02*
X132820000Y-99180000D01*
X133250000Y-101500000D02*
X133250000Y-99610000D01*
X160750000Y-99896000D02*
X160253000Y-99399000D01*
X160750000Y-101500000D02*
X160750000Y-99896000D01*
X106250000Y-100006000D02*
X105389000Y-99145000D01*
X106250000Y-101500000D02*
X106250000Y-100006000D01*
X114532000Y-100320000D02*
X115542000Y-101330000D01*
X114532000Y-99180000D02*
X114532000Y-100320000D01*
D20*
X174399000Y-93099000D02*
X174470000Y-93028000D01*
X162533000Y-93099000D02*
X174399000Y-93099000D01*
X153387000Y-93099000D02*
X153387000Y-89113000D01*
X153387000Y-89113000D02*
X157000000Y-85500000D01*
X157572000Y-84982000D02*
X157572000Y-80502000D01*
X157054000Y-85500000D02*
X157572000Y-84982000D01*
X157000000Y-85500000D02*
X157054000Y-85500000D01*
X145340000Y-92334000D02*
X145446000Y-92440000D01*
X144244000Y-93134000D02*
X144244000Y-89744000D01*
X145380000Y-88608000D02*
X145380000Y-80502000D01*
X144244000Y-89744000D02*
X145380000Y-88608000D01*
X135100000Y-92880000D02*
X135100000Y-88600000D01*
X132934000Y-86434000D02*
X132934000Y-80502000D01*
X135100000Y-88600000D02*
X132934000Y-86434000D01*
X125956000Y-92880000D02*
X125956000Y-90456000D01*
X120742000Y-85242000D02*
X120742000Y-80502000D01*
X125956000Y-90456000D02*
X120742000Y-85242000D01*
X116812000Y-92880000D02*
X116812000Y-90312000D01*
X116812000Y-90008000D02*
X116812000Y-90312000D01*
X108296000Y-81492000D02*
X116812000Y-90008000D01*
X108296000Y-80502000D02*
X108296000Y-81492000D01*
X107010000Y-92186000D02*
X107669000Y-92845000D01*
X95476000Y-92186000D02*
X107010000Y-92186000D01*
D21*
G36*
X184340000Y-119340000D02*
G01*
X85660000Y-119340000D01*
X85660000Y-112490110D01*
X86823000Y-112490110D01*
X86823000Y-113509890D01*
X87021949Y-114510075D01*
X87412202Y-115452229D01*
X87978762Y-116300145D01*
X88699855Y-117021238D01*
X89547771Y-117587798D01*
X90489925Y-117978051D01*
X91490110Y-118177000D01*
X92509890Y-118177000D01*
X93510075Y-117978051D01*
X94452229Y-117587798D01*
X95300145Y-117021238D01*
X96021238Y-116300145D01*
X96587798Y-115452229D01*
X96978051Y-114510075D01*
X97177000Y-113509890D01*
X97177000Y-112490110D01*
X172823000Y-112490110D01*
X172823000Y-113509890D01*
X173021949Y-114510075D01*
X173412202Y-115452229D01*
X173978762Y-116300145D01*
X174699855Y-117021238D01*
X175547771Y-117587798D01*
X176489925Y-117978051D01*
X177490110Y-118177000D01*
X178509890Y-118177000D01*
X179510075Y-117978051D01*
X180452229Y-117587798D01*
X181300145Y-117021238D01*
X182021238Y-116300145D01*
X182587798Y-115452229D01*
X182978051Y-114510075D01*
X183177000Y-113509890D01*
X183177000Y-112490110D01*
X182978051Y-111489925D01*
X182587798Y-110547771D01*
X182021238Y-109699855D01*
X181300145Y-108978762D01*
X180452229Y-108412202D01*
X179510075Y-108021949D01*
X178509890Y-107823000D01*
X177490110Y-107823000D01*
X176489925Y-108021949D01*
X175547771Y-108412202D01*
X174699855Y-108978762D01*
X173978762Y-109699855D01*
X173412202Y-110547771D01*
X173021949Y-111489925D01*
X172823000Y-112490110D01*
X97177000Y-112490110D01*
X96978051Y-111489925D01*
X96587798Y-110547771D01*
X96021238Y-109699855D01*
X95300145Y-108978762D01*
X94452229Y-108412202D01*
X93510075Y-108021949D01*
X92509890Y-107823000D01*
X91490110Y-107823000D01*
X90489925Y-108021949D01*
X89547771Y-108412202D01*
X88699855Y-108978762D01*
X87978762Y-109699855D01*
X87412202Y-110547771D01*
X87021949Y-111489925D01*
X86823000Y-112490110D01*
X85660000Y-112490110D01*
X85660000Y-107590000D01*
X99836757Y-107590000D01*
X99836757Y-111550000D01*
X99853690Y-111721922D01*
X99903838Y-111887237D01*
X99985273Y-112039592D01*
X100094867Y-112173133D01*
X100228408Y-112282727D01*
X100380763Y-112364162D01*
X100546078Y-112414310D01*
X100718000Y-112431243D01*
X102698000Y-112431243D01*
X102869922Y-112414310D01*
X103035237Y-112364162D01*
X103187592Y-112282727D01*
X103321133Y-112173133D01*
X103430727Y-112039592D01*
X103512162Y-111887237D01*
X103562310Y-111721922D01*
X103579243Y-111550000D01*
X103579243Y-108488286D01*
X104841000Y-108488286D01*
X104841001Y-110651715D01*
X104868015Y-110925996D01*
X104974773Y-111277927D01*
X105148137Y-111602268D01*
X105381445Y-111886556D01*
X105665733Y-112119864D01*
X105990074Y-112293228D01*
X106342005Y-112399986D01*
X106708000Y-112436033D01*
X107073996Y-112399986D01*
X107425927Y-112293228D01*
X107750268Y-112119864D01*
X108034556Y-111886556D01*
X108267864Y-111602268D01*
X108441228Y-111277927D01*
X108547986Y-110925996D01*
X108575000Y-110651715D01*
X108575000Y-108488285D01*
X108547986Y-108214004D01*
X108441228Y-107862073D01*
X108295802Y-107590000D01*
X112028757Y-107590000D01*
X112028757Y-111550000D01*
X112045690Y-111721922D01*
X112095838Y-111887237D01*
X112177273Y-112039592D01*
X112286867Y-112173133D01*
X112420408Y-112282727D01*
X112572763Y-112364162D01*
X112738078Y-112414310D01*
X112910000Y-112431243D01*
X114890000Y-112431243D01*
X115061922Y-112414310D01*
X115227237Y-112364162D01*
X115379592Y-112282727D01*
X115513133Y-112173133D01*
X115622727Y-112039592D01*
X115704162Y-111887237D01*
X115754310Y-111721922D01*
X115771243Y-111550000D01*
X115771243Y-108488286D01*
X117033000Y-108488286D01*
X117033001Y-110651715D01*
X117060015Y-110925996D01*
X117166773Y-111277927D01*
X117340137Y-111602268D01*
X117573445Y-111886556D01*
X117857733Y-112119864D01*
X118182074Y-112293228D01*
X118534005Y-112399986D01*
X118900000Y-112436033D01*
X119265996Y-112399986D01*
X119617927Y-112293228D01*
X119942268Y-112119864D01*
X120226556Y-111886556D01*
X120459864Y-111602268D01*
X120633228Y-111277927D01*
X120739986Y-110925996D01*
X120767000Y-110651715D01*
X120767000Y-108488285D01*
X120739986Y-108214004D01*
X120633228Y-107862073D01*
X120487802Y-107590000D01*
X124378757Y-107590000D01*
X124378757Y-111550000D01*
X124395690Y-111721922D01*
X124445838Y-111887237D01*
X124527273Y-112039592D01*
X124636867Y-112173133D01*
X124770408Y-112282727D01*
X124922763Y-112364162D01*
X125088078Y-112414310D01*
X125260000Y-112431243D01*
X127240000Y-112431243D01*
X127411922Y-112414310D01*
X127577237Y-112364162D01*
X127729592Y-112282727D01*
X127863133Y-112173133D01*
X127972727Y-112039592D01*
X128054162Y-111887237D01*
X128104310Y-111721922D01*
X128121243Y-111550000D01*
X128121243Y-110511177D01*
X129531851Y-110511177D01*
X129555340Y-110847309D01*
X129643954Y-111172400D01*
X129794287Y-111473957D01*
X130000562Y-111740391D01*
X130353906Y-111915596D01*
X130577000Y-111862674D01*
X130577000Y-110243000D01*
X131923000Y-110243000D01*
X131923000Y-111862674D01*
X132146094Y-111915596D01*
X132499438Y-111740391D01*
X132705713Y-111473957D01*
X132856046Y-111172400D01*
X132944660Y-110847309D01*
X132968149Y-110511177D01*
X132780608Y-110243000D01*
X131923000Y-110243000D01*
X130577000Y-110243000D01*
X129719392Y-110243000D01*
X129531851Y-110511177D01*
X128121243Y-110511177D01*
X128121243Y-108628823D01*
X129531851Y-108628823D01*
X129719392Y-108897000D01*
X130577000Y-108897000D01*
X130577000Y-107277326D01*
X131923000Y-107277326D01*
X131923000Y-108897000D01*
X132780608Y-108897000D01*
X132968149Y-108628823D01*
X132944660Y-108292691D01*
X132856046Y-107967600D01*
X132705713Y-107666043D01*
X132592646Y-107520000D01*
X136628757Y-107520000D01*
X136628757Y-111480000D01*
X136645690Y-111651922D01*
X136695838Y-111817237D01*
X136777273Y-111969592D01*
X136886867Y-112103133D01*
X137020408Y-112212727D01*
X137172763Y-112294162D01*
X137338078Y-112344310D01*
X137510000Y-112361243D01*
X139490000Y-112361243D01*
X139661922Y-112344310D01*
X139827237Y-112294162D01*
X139979592Y-112212727D01*
X140113133Y-112103133D01*
X140222727Y-111969592D01*
X140304162Y-111817237D01*
X140354310Y-111651922D01*
X140371243Y-111480000D01*
X140371243Y-110441177D01*
X141781851Y-110441177D01*
X141805340Y-110777309D01*
X141893954Y-111102400D01*
X142044287Y-111403957D01*
X142250562Y-111670391D01*
X142603906Y-111845596D01*
X142827000Y-111792674D01*
X142827000Y-110173000D01*
X144173000Y-110173000D01*
X144173000Y-111792674D01*
X144396094Y-111845596D01*
X144749438Y-111670391D01*
X144955713Y-111403957D01*
X145106046Y-111102400D01*
X145194660Y-110777309D01*
X145218149Y-110441177D01*
X145030608Y-110173000D01*
X144173000Y-110173000D01*
X142827000Y-110173000D01*
X141969392Y-110173000D01*
X141781851Y-110441177D01*
X140371243Y-110441177D01*
X140371243Y-108558823D01*
X141781851Y-108558823D01*
X141969392Y-108827000D01*
X142827000Y-108827000D01*
X142827000Y-107207326D01*
X144173000Y-107207326D01*
X144173000Y-108827000D01*
X145030608Y-108827000D01*
X145218149Y-108558823D01*
X145194660Y-108222691D01*
X145106046Y-107897600D01*
X144955713Y-107596043D01*
X144951035Y-107590000D01*
X148920757Y-107590000D01*
X148920757Y-111550000D01*
X148937690Y-111721922D01*
X148987838Y-111887237D01*
X149069273Y-112039592D01*
X149178867Y-112173133D01*
X149312408Y-112282727D01*
X149464763Y-112364162D01*
X149630078Y-112414310D01*
X149802000Y-112431243D01*
X151782000Y-112431243D01*
X151953922Y-112414310D01*
X152119237Y-112364162D01*
X152271592Y-112282727D01*
X152405133Y-112173133D01*
X152514727Y-112039592D01*
X152596162Y-111887237D01*
X152646310Y-111721922D01*
X152663243Y-111550000D01*
X152663243Y-108488286D01*
X153925000Y-108488286D01*
X153925001Y-110651715D01*
X153952015Y-110925996D01*
X154058773Y-111277927D01*
X154232137Y-111602268D01*
X154465445Y-111886556D01*
X154749733Y-112119864D01*
X155074074Y-112293228D01*
X155426005Y-112399986D01*
X155792000Y-112436033D01*
X156157996Y-112399986D01*
X156509927Y-112293228D01*
X156834268Y-112119864D01*
X157118556Y-111886556D01*
X157351864Y-111602268D01*
X157525228Y-111277927D01*
X157631986Y-110925996D01*
X157659000Y-110651715D01*
X157659000Y-108488285D01*
X157631986Y-108214004D01*
X157525228Y-107862073D01*
X157379802Y-107590000D01*
X161366757Y-107590000D01*
X161366757Y-111550000D01*
X161383690Y-111721922D01*
X161433838Y-111887237D01*
X161515273Y-112039592D01*
X161624867Y-112173133D01*
X161758408Y-112282727D01*
X161910763Y-112364162D01*
X162076078Y-112414310D01*
X162248000Y-112431243D01*
X164228000Y-112431243D01*
X164399922Y-112414310D01*
X164565237Y-112364162D01*
X164717592Y-112282727D01*
X164851133Y-112173133D01*
X164960727Y-112039592D01*
X165042162Y-111887237D01*
X165092310Y-111721922D01*
X165109243Y-111550000D01*
X165109243Y-110511177D01*
X166519851Y-110511177D01*
X166543340Y-110847309D01*
X166631954Y-111172400D01*
X166782287Y-111473957D01*
X166988562Y-111740391D01*
X167341906Y-111915596D01*
X167565000Y-111862674D01*
X167565000Y-110243000D01*
X168911000Y-110243000D01*
X168911000Y-111862674D01*
X169134094Y-111915596D01*
X169487438Y-111740391D01*
X169693713Y-111473957D01*
X169844046Y-111172400D01*
X169932660Y-110847309D01*
X169956149Y-110511177D01*
X169768608Y-110243000D01*
X168911000Y-110243000D01*
X167565000Y-110243000D01*
X166707392Y-110243000D01*
X166519851Y-110511177D01*
X165109243Y-110511177D01*
X165109243Y-108628823D01*
X166519851Y-108628823D01*
X166707392Y-108897000D01*
X167565000Y-108897000D01*
X167565000Y-107277326D01*
X168911000Y-107277326D01*
X168911000Y-108897000D01*
X169768608Y-108897000D01*
X169956149Y-108628823D01*
X169932660Y-108292691D01*
X169844046Y-107967600D01*
X169693713Y-107666043D01*
X169487438Y-107399609D01*
X169134094Y-107224404D01*
X168911000Y-107277326D01*
X167565000Y-107277326D01*
X167341906Y-107224404D01*
X166988562Y-107399609D01*
X166782287Y-107666043D01*
X166631954Y-107967600D01*
X166543340Y-108292691D01*
X166519851Y-108628823D01*
X165109243Y-108628823D01*
X165109243Y-107590000D01*
X165092310Y-107418078D01*
X165042162Y-107252763D01*
X164960727Y-107100408D01*
X164851133Y-106966867D01*
X164717592Y-106857273D01*
X164565237Y-106775838D01*
X164399922Y-106725690D01*
X164228000Y-106708757D01*
X162248000Y-106708757D01*
X162076078Y-106725690D01*
X161910763Y-106775838D01*
X161758408Y-106857273D01*
X161624867Y-106966867D01*
X161515273Y-107100408D01*
X161433838Y-107252763D01*
X161383690Y-107418078D01*
X161366757Y-107590000D01*
X157379802Y-107590000D01*
X157351864Y-107537732D01*
X157118556Y-107253444D01*
X156834267Y-107020136D01*
X156509926Y-106846772D01*
X156157995Y-106740014D01*
X155792000Y-106703967D01*
X155426004Y-106740014D01*
X155074073Y-106846772D01*
X154749732Y-107020136D01*
X154465444Y-107253444D01*
X154232136Y-107537733D01*
X154058772Y-107862074D01*
X153952014Y-108214005D01*
X153925000Y-108488286D01*
X152663243Y-108488286D01*
X152663243Y-107590000D01*
X152646310Y-107418078D01*
X152596162Y-107252763D01*
X152514727Y-107100408D01*
X152405133Y-106966867D01*
X152271592Y-106857273D01*
X152119237Y-106775838D01*
X151953922Y-106725690D01*
X151782000Y-106708757D01*
X149802000Y-106708757D01*
X149630078Y-106725690D01*
X149464763Y-106775838D01*
X149312408Y-106857273D01*
X149178867Y-106966867D01*
X149069273Y-107100408D01*
X148987838Y-107252763D01*
X148937690Y-107418078D01*
X148920757Y-107590000D01*
X144951035Y-107590000D01*
X144749438Y-107329609D01*
X144396094Y-107154404D01*
X144173000Y-107207326D01*
X142827000Y-107207326D01*
X142603906Y-107154404D01*
X142250562Y-107329609D01*
X142044287Y-107596043D01*
X141893954Y-107897600D01*
X141805340Y-108222691D01*
X141781851Y-108558823D01*
X140371243Y-108558823D01*
X140371243Y-107520000D01*
X140354310Y-107348078D01*
X140304162Y-107182763D01*
X140222727Y-107030408D01*
X140113133Y-106896867D01*
X139979592Y-106787273D01*
X139827237Y-106705838D01*
X139661922Y-106655690D01*
X139490000Y-106638757D01*
X137510000Y-106638757D01*
X137338078Y-106655690D01*
X137172763Y-106705838D01*
X137020408Y-106787273D01*
X136886867Y-106896867D01*
X136777273Y-107030408D01*
X136695838Y-107182763D01*
X136645690Y-107348078D01*
X136628757Y-107520000D01*
X132592646Y-107520000D01*
X132499438Y-107399609D01*
X132146094Y-107224404D01*
X131923000Y-107277326D01*
X130577000Y-107277326D01*
X130353906Y-107224404D01*
X130000562Y-107399609D01*
X129794287Y-107666043D01*
X129643954Y-107967600D01*
X129555340Y-108292691D01*
X129531851Y-108628823D01*
X128121243Y-108628823D01*
X128121243Y-107590000D01*
X128104310Y-107418078D01*
X128054162Y-107252763D01*
X127972727Y-107100408D01*
X127863133Y-106966867D01*
X127729592Y-106857273D01*
X127577237Y-106775838D01*
X127411922Y-106725690D01*
X127240000Y-106708757D01*
X125260000Y-106708757D01*
X125088078Y-106725690D01*
X124922763Y-106775838D01*
X124770408Y-106857273D01*
X124636867Y-106966867D01*
X124527273Y-107100408D01*
X124445838Y-107252763D01*
X124395690Y-107418078D01*
X124378757Y-107590000D01*
X120487802Y-107590000D01*
X120459864Y-107537732D01*
X120226556Y-107253444D01*
X119942267Y-107020136D01*
X119617926Y-106846772D01*
X119265995Y-106740014D01*
X118900000Y-106703967D01*
X118534004Y-106740014D01*
X118182073Y-106846772D01*
X117857732Y-107020136D01*
X117573444Y-107253444D01*
X117340136Y-107537733D01*
X117166772Y-107862074D01*
X117060014Y-108214005D01*
X117033000Y-108488286D01*
X115771243Y-108488286D01*
X115771243Y-107590000D01*
X115754310Y-107418078D01*
X115704162Y-107252763D01*
X115622727Y-107100408D01*
X115513133Y-106966867D01*
X115379592Y-106857273D01*
X115227237Y-106775838D01*
X115061922Y-106725690D01*
X114890000Y-106708757D01*
X112910000Y-106708757D01*
X112738078Y-106725690D01*
X112572763Y-106775838D01*
X112420408Y-106857273D01*
X112286867Y-106966867D01*
X112177273Y-107100408D01*
X112095838Y-107252763D01*
X112045690Y-107418078D01*
X112028757Y-107590000D01*
X108295802Y-107590000D01*
X108267864Y-107537732D01*
X108034556Y-107253444D01*
X107750267Y-107020136D01*
X107425926Y-106846772D01*
X107073995Y-106740014D01*
X106708000Y-106703967D01*
X106342004Y-106740014D01*
X105990073Y-106846772D01*
X105665732Y-107020136D01*
X105381444Y-107253444D01*
X105148136Y-107537733D01*
X104974772Y-107862074D01*
X104868014Y-108214005D01*
X104841000Y-108488286D01*
X103579243Y-108488286D01*
X103579243Y-107590000D01*
X103562310Y-107418078D01*
X103512162Y-107252763D01*
X103430727Y-107100408D01*
X103321133Y-106966867D01*
X103187592Y-106857273D01*
X103035237Y-106775838D01*
X102869922Y-106725690D01*
X102698000Y-106708757D01*
X100718000Y-106708757D01*
X100546078Y-106725690D01*
X100380763Y-106775838D01*
X100228408Y-106857273D01*
X100094867Y-106966867D01*
X99985273Y-107100408D01*
X99903838Y-107252763D01*
X99853690Y-107418078D01*
X99836757Y-107590000D01*
X85660000Y-107590000D01*
X85660000Y-97186000D01*
X92609967Y-97186000D01*
X92646014Y-97551996D01*
X92752772Y-97903927D01*
X92926136Y-98228268D01*
X93159444Y-98512556D01*
X93443732Y-98745864D01*
X93768073Y-98919228D01*
X94120004Y-99025986D01*
X94394285Y-99053000D01*
X96557715Y-99053000D01*
X96831996Y-99025986D01*
X97183927Y-98919228D01*
X97508268Y-98745864D01*
X97792556Y-98512556D01*
X98025864Y-98228268D01*
X98123822Y-98045000D01*
X103907757Y-98045000D01*
X103907757Y-100245000D01*
X103924690Y-100416922D01*
X103974838Y-100582237D01*
X104056273Y-100734592D01*
X104165867Y-100868133D01*
X104299408Y-100977727D01*
X104451763Y-101059162D01*
X104617078Y-101109310D01*
X104789000Y-101126243D01*
X105022600Y-101126243D01*
X105022074Y-101127513D01*
X104973000Y-101374226D01*
X104973000Y-101625774D01*
X105022074Y-101872487D01*
X105118337Y-102104886D01*
X105258089Y-102314040D01*
X105435960Y-102491911D01*
X105645114Y-102631663D01*
X105877513Y-102727926D01*
X106124226Y-102777000D01*
X106375774Y-102777000D01*
X106622487Y-102727926D01*
X106854886Y-102631663D01*
X107064040Y-102491911D01*
X107241911Y-102314040D01*
X107381663Y-102104886D01*
X107477926Y-101872487D01*
X107527000Y-101625774D01*
X107527000Y-101374226D01*
X107477926Y-101127513D01*
X107381663Y-100895114D01*
X107377000Y-100888135D01*
X107377000Y-100237854D01*
X108710968Y-100237854D01*
X108721834Y-100362466D01*
X108756801Y-100482563D01*
X108814526Y-100593530D01*
X108892791Y-100691104D01*
X108988587Y-100771534D01*
X109098234Y-100831730D01*
X109217518Y-100869378D01*
X109317250Y-100880000D01*
X109476000Y-100721250D01*
X109476000Y-99818000D01*
X110422000Y-99818000D01*
X110422000Y-100721250D01*
X110580750Y-100880000D01*
X110680482Y-100869378D01*
X110799766Y-100831730D01*
X110909413Y-100771534D01*
X111005209Y-100691104D01*
X111083474Y-100593530D01*
X111141199Y-100482563D01*
X111176166Y-100362466D01*
X111187032Y-100237854D01*
X111184000Y-99976750D01*
X111025250Y-99818000D01*
X110422000Y-99818000D01*
X109476000Y-99818000D01*
X108872750Y-99818000D01*
X108714000Y-99976750D01*
X108710968Y-100237854D01*
X107377000Y-100237854D01*
X107377000Y-100061357D01*
X107382452Y-100006000D01*
X107377000Y-99950643D01*
X107377000Y-99950635D01*
X107360693Y-99785069D01*
X107296250Y-99572629D01*
X107191600Y-99376843D01*
X107182644Y-99365930D01*
X107086058Y-99248239D01*
X107086055Y-99248236D01*
X107050765Y-99205235D01*
X107007764Y-99169945D01*
X106870243Y-99032424D01*
X106870243Y-98052146D01*
X108710968Y-98052146D01*
X108714000Y-98313250D01*
X108872750Y-98472000D01*
X109476000Y-98472000D01*
X109476000Y-97568750D01*
X110422000Y-97568750D01*
X110422000Y-98472000D01*
X111025250Y-98472000D01*
X111184000Y-98313250D01*
X111186708Y-98080000D01*
X113050757Y-98080000D01*
X113050757Y-100280000D01*
X113067690Y-100451922D01*
X113117838Y-100617237D01*
X113199273Y-100769592D01*
X113308867Y-100903133D01*
X113442408Y-101012727D01*
X113594763Y-101094162D01*
X113759836Y-101144237D01*
X113774237Y-101156055D01*
X114312437Y-101694255D01*
X114314074Y-101702487D01*
X114410337Y-101934886D01*
X114550089Y-102144040D01*
X114727960Y-102321911D01*
X114937114Y-102461663D01*
X115169513Y-102557926D01*
X115416226Y-102607000D01*
X115667774Y-102607000D01*
X115914487Y-102557926D01*
X116146886Y-102461663D01*
X116356040Y-102321911D01*
X116533911Y-102144040D01*
X116673663Y-101934886D01*
X116769926Y-101702487D01*
X116819000Y-101455774D01*
X116819000Y-101204226D01*
X116769926Y-100957513D01*
X116673663Y-100725114D01*
X116533911Y-100515960D01*
X116356040Y-100338089D01*
X116258409Y-100272854D01*
X117853968Y-100272854D01*
X117864834Y-100397466D01*
X117899801Y-100517563D01*
X117957526Y-100628530D01*
X118035791Y-100726104D01*
X118131587Y-100806534D01*
X118241234Y-100866730D01*
X118360518Y-100904378D01*
X118460250Y-100915000D01*
X118619000Y-100756250D01*
X118619000Y-99853000D01*
X119565000Y-99853000D01*
X119565000Y-100756250D01*
X119723750Y-100915000D01*
X119823482Y-100904378D01*
X119942766Y-100866730D01*
X120052413Y-100806534D01*
X120148209Y-100726104D01*
X120226474Y-100628530D01*
X120284199Y-100517563D01*
X120319166Y-100397466D01*
X120330032Y-100272854D01*
X120327000Y-100011750D01*
X120168250Y-99853000D01*
X119565000Y-99853000D01*
X118619000Y-99853000D01*
X118015750Y-99853000D01*
X117857000Y-100011750D01*
X117853968Y-100272854D01*
X116258409Y-100272854D01*
X116146886Y-100198337D01*
X116013243Y-100142980D01*
X116013243Y-98087146D01*
X117853968Y-98087146D01*
X117857000Y-98348250D01*
X118015750Y-98507000D01*
X118619000Y-98507000D01*
X118619000Y-97603750D01*
X119565000Y-97603750D01*
X119565000Y-98507000D01*
X120168250Y-98507000D01*
X120327000Y-98348250D01*
X120330032Y-98087146D01*
X120329409Y-98080000D01*
X122194757Y-98080000D01*
X122194757Y-100280000D01*
X122211690Y-100451922D01*
X122261838Y-100617237D01*
X122343273Y-100769592D01*
X122452867Y-100903133D01*
X122586408Y-101012727D01*
X122738763Y-101094162D01*
X122904078Y-101144310D01*
X123016530Y-101155386D01*
X122973000Y-101374226D01*
X122973000Y-101625774D01*
X123022074Y-101872487D01*
X123118337Y-102104886D01*
X123258089Y-102314040D01*
X123435960Y-102491911D01*
X123645114Y-102631663D01*
X123877513Y-102727926D01*
X124124226Y-102777000D01*
X124375774Y-102777000D01*
X124622487Y-102727926D01*
X124854886Y-102631663D01*
X125064040Y-102491911D01*
X125241911Y-102314040D01*
X125381663Y-102104886D01*
X125477926Y-101872487D01*
X125527000Y-101625774D01*
X125527000Y-101374226D01*
X125477926Y-101127513D01*
X125381663Y-100895114D01*
X125377000Y-100888135D01*
X125377000Y-100272854D01*
X126997968Y-100272854D01*
X127008834Y-100397466D01*
X127043801Y-100517563D01*
X127101526Y-100628530D01*
X127179791Y-100726104D01*
X127275587Y-100806534D01*
X127385234Y-100866730D01*
X127504518Y-100904378D01*
X127604250Y-100915000D01*
X127763000Y-100756250D01*
X127763000Y-99853000D01*
X128709000Y-99853000D01*
X128709000Y-100756250D01*
X128867750Y-100915000D01*
X128967482Y-100904378D01*
X129086766Y-100866730D01*
X129196413Y-100806534D01*
X129292209Y-100726104D01*
X129370474Y-100628530D01*
X129428199Y-100517563D01*
X129463166Y-100397466D01*
X129474032Y-100272854D01*
X129471000Y-100011750D01*
X129312250Y-99853000D01*
X128709000Y-99853000D01*
X127763000Y-99853000D01*
X127159750Y-99853000D01*
X127001000Y-100011750D01*
X126997968Y-100272854D01*
X125377000Y-100272854D01*
X125377000Y-99809364D01*
X125382453Y-99754000D01*
X125360693Y-99533069D01*
X125296250Y-99320629D01*
X125273678Y-99278400D01*
X125191600Y-99124843D01*
X125157243Y-99082979D01*
X125157243Y-98087146D01*
X126997968Y-98087146D01*
X127001000Y-98348250D01*
X127159750Y-98507000D01*
X127763000Y-98507000D01*
X127763000Y-97603750D01*
X128709000Y-97603750D01*
X128709000Y-98507000D01*
X129312250Y-98507000D01*
X129471000Y-98348250D01*
X129474032Y-98087146D01*
X129473409Y-98080000D01*
X131338757Y-98080000D01*
X131338757Y-100280000D01*
X131355690Y-100451922D01*
X131405838Y-100617237D01*
X131487273Y-100769592D01*
X131596867Y-100903133D01*
X131730408Y-101012727D01*
X131882763Y-101094162D01*
X132020403Y-101135915D01*
X131973000Y-101374226D01*
X131973000Y-101625774D01*
X132022074Y-101872487D01*
X132118337Y-102104886D01*
X132258089Y-102314040D01*
X132435960Y-102491911D01*
X132645114Y-102631663D01*
X132877513Y-102727926D01*
X133124226Y-102777000D01*
X133375774Y-102777000D01*
X133622487Y-102727926D01*
X133854886Y-102631663D01*
X134064040Y-102491911D01*
X134241911Y-102314040D01*
X134381663Y-102104886D01*
X134477926Y-101872487D01*
X134527000Y-101625774D01*
X134527000Y-101374226D01*
X134477926Y-101127513D01*
X134381663Y-100895114D01*
X134377000Y-100888135D01*
X134377000Y-100272854D01*
X136141968Y-100272854D01*
X136152834Y-100397466D01*
X136187801Y-100517563D01*
X136245526Y-100628530D01*
X136323791Y-100726104D01*
X136419587Y-100806534D01*
X136529234Y-100866730D01*
X136648518Y-100904378D01*
X136748250Y-100915000D01*
X136907000Y-100756250D01*
X136907000Y-99853000D01*
X137853000Y-99853000D01*
X137853000Y-100756250D01*
X138011750Y-100915000D01*
X138111482Y-100904378D01*
X138230766Y-100866730D01*
X138340413Y-100806534D01*
X138436209Y-100726104D01*
X138514474Y-100628530D01*
X138572199Y-100517563D01*
X138607166Y-100397466D01*
X138618032Y-100272854D01*
X138615000Y-100011750D01*
X138456250Y-99853000D01*
X137853000Y-99853000D01*
X136907000Y-99853000D01*
X136303750Y-99853000D01*
X136145000Y-100011750D01*
X136141968Y-100272854D01*
X134377000Y-100272854D01*
X134377000Y-99665357D01*
X134382452Y-99610000D01*
X134377000Y-99554643D01*
X134377000Y-99554635D01*
X134360693Y-99389069D01*
X134301243Y-99193089D01*
X134301243Y-98087146D01*
X136141968Y-98087146D01*
X136145000Y-98348250D01*
X136303750Y-98507000D01*
X136907000Y-98507000D01*
X136907000Y-97603750D01*
X137853000Y-97603750D01*
X137853000Y-98507000D01*
X138456250Y-98507000D01*
X138615000Y-98348250D01*
X138615165Y-98334000D01*
X140482757Y-98334000D01*
X140482757Y-100534000D01*
X140499690Y-100705922D01*
X140549838Y-100871237D01*
X140631273Y-101023592D01*
X140740867Y-101157133D01*
X140874408Y-101266727D01*
X141026763Y-101348162D01*
X141192078Y-101398310D01*
X141364000Y-101415243D01*
X141473000Y-101415243D01*
X141473000Y-101625774D01*
X141522074Y-101872487D01*
X141618337Y-102104886D01*
X141758089Y-102314040D01*
X141935960Y-102491911D01*
X142145114Y-102631663D01*
X142377513Y-102727926D01*
X142624226Y-102777000D01*
X142875774Y-102777000D01*
X143122487Y-102727926D01*
X143354886Y-102631663D01*
X143564040Y-102491911D01*
X143741911Y-102314040D01*
X143881663Y-102104886D01*
X143977926Y-101872487D01*
X144027000Y-101625774D01*
X144027000Y-101374226D01*
X143977926Y-101127513D01*
X143881663Y-100895114D01*
X143877000Y-100888135D01*
X143877000Y-100526854D01*
X145285968Y-100526854D01*
X145296834Y-100651466D01*
X145331801Y-100771563D01*
X145389526Y-100882530D01*
X145467791Y-100980104D01*
X145563587Y-101060534D01*
X145673234Y-101120730D01*
X145792518Y-101158378D01*
X145892250Y-101169000D01*
X146051000Y-101010250D01*
X146051000Y-100107000D01*
X146997000Y-100107000D01*
X146997000Y-101010250D01*
X147155750Y-101169000D01*
X147255482Y-101158378D01*
X147374766Y-101120730D01*
X147484413Y-101060534D01*
X147580209Y-100980104D01*
X147658474Y-100882530D01*
X147716199Y-100771563D01*
X147751166Y-100651466D01*
X147762032Y-100526854D01*
X147759000Y-100265750D01*
X147600250Y-100107000D01*
X146997000Y-100107000D01*
X146051000Y-100107000D01*
X145447750Y-100107000D01*
X145289000Y-100265750D01*
X145285968Y-100526854D01*
X143877000Y-100526854D01*
X143877000Y-100275357D01*
X143882452Y-100220000D01*
X143877000Y-100164643D01*
X143877000Y-100164635D01*
X143860693Y-99999069D01*
X143796250Y-99786629D01*
X143691600Y-99590843D01*
X143586378Y-99462629D01*
X143586058Y-99462239D01*
X143586055Y-99462236D01*
X143550765Y-99419235D01*
X143507764Y-99383945D01*
X143445243Y-99321424D01*
X143445243Y-98341146D01*
X145285968Y-98341146D01*
X145289000Y-98602250D01*
X145447750Y-98761000D01*
X146051000Y-98761000D01*
X146051000Y-97857750D01*
X146997000Y-97857750D01*
X146997000Y-98761000D01*
X147600250Y-98761000D01*
X147759000Y-98602250D01*
X147762032Y-98341146D01*
X147758357Y-98299000D01*
X149625757Y-98299000D01*
X149625757Y-100499000D01*
X149642690Y-100670922D01*
X149692838Y-100836237D01*
X149774273Y-100988592D01*
X149883867Y-101122133D01*
X150017408Y-101231727D01*
X150169763Y-101313162D01*
X150335078Y-101363310D01*
X150473000Y-101376894D01*
X150473000Y-101625774D01*
X150522074Y-101872487D01*
X150618337Y-102104886D01*
X150758089Y-102314040D01*
X150935960Y-102491911D01*
X151145114Y-102631663D01*
X151377513Y-102727926D01*
X151624226Y-102777000D01*
X151875774Y-102777000D01*
X152122487Y-102727926D01*
X152354886Y-102631663D01*
X152564040Y-102491911D01*
X152741911Y-102314040D01*
X152881663Y-102104886D01*
X152977926Y-101872487D01*
X153027000Y-101625774D01*
X153027000Y-101374226D01*
X152977926Y-101127513D01*
X152881663Y-100895114D01*
X152877000Y-100888135D01*
X152877000Y-100491854D01*
X154428968Y-100491854D01*
X154439834Y-100616466D01*
X154474801Y-100736563D01*
X154532526Y-100847530D01*
X154610791Y-100945104D01*
X154706587Y-101025534D01*
X154816234Y-101085730D01*
X154935518Y-101123378D01*
X155035250Y-101134000D01*
X155194000Y-100975250D01*
X155194000Y-100072000D01*
X156140000Y-100072000D01*
X156140000Y-100975250D01*
X156298750Y-101134000D01*
X156398482Y-101123378D01*
X156517766Y-101085730D01*
X156627413Y-101025534D01*
X156723209Y-100945104D01*
X156801474Y-100847530D01*
X156859199Y-100736563D01*
X156894166Y-100616466D01*
X156905032Y-100491854D01*
X156902000Y-100230750D01*
X156743250Y-100072000D01*
X156140000Y-100072000D01*
X155194000Y-100072000D01*
X154590750Y-100072000D01*
X154432000Y-100230750D01*
X154428968Y-100491854D01*
X152877000Y-100491854D01*
X152877000Y-100097354D01*
X152882452Y-100041999D01*
X152877000Y-99986645D01*
X152877000Y-99986635D01*
X152860693Y-99821069D01*
X152796250Y-99608629D01*
X152691600Y-99412843D01*
X152588243Y-99286902D01*
X152588243Y-98306146D01*
X154428968Y-98306146D01*
X154432000Y-98567250D01*
X154590750Y-98726000D01*
X155194000Y-98726000D01*
X155194000Y-97822750D01*
X156140000Y-97822750D01*
X156140000Y-98726000D01*
X156743250Y-98726000D01*
X156902000Y-98567250D01*
X156905032Y-98306146D01*
X156904409Y-98299000D01*
X158771757Y-98299000D01*
X158771757Y-100499000D01*
X158788690Y-100670922D01*
X158838838Y-100836237D01*
X158920273Y-100988592D01*
X159029867Y-101122133D01*
X159163408Y-101231727D01*
X159315763Y-101313162D01*
X159475507Y-101361620D01*
X159473000Y-101374226D01*
X159473000Y-101625774D01*
X159522074Y-101872487D01*
X159618337Y-102104886D01*
X159758089Y-102314040D01*
X159935960Y-102491911D01*
X160145114Y-102631663D01*
X160377513Y-102727926D01*
X160624226Y-102777000D01*
X160875774Y-102777000D01*
X161122487Y-102727926D01*
X161354886Y-102631663D01*
X161564040Y-102491911D01*
X161741911Y-102314040D01*
X161881663Y-102104886D01*
X161977926Y-101872487D01*
X162027000Y-101625774D01*
X162027000Y-101374226D01*
X161977926Y-101127513D01*
X161881663Y-100895114D01*
X161877000Y-100888135D01*
X161877000Y-100491854D01*
X163574968Y-100491854D01*
X163585834Y-100616466D01*
X163620801Y-100736563D01*
X163678526Y-100847530D01*
X163756791Y-100945104D01*
X163852587Y-101025534D01*
X163962234Y-101085730D01*
X164081518Y-101123378D01*
X164181250Y-101134000D01*
X164340000Y-100975250D01*
X164340000Y-100072000D01*
X165286000Y-100072000D01*
X165286000Y-100975250D01*
X165444750Y-101134000D01*
X165544482Y-101123378D01*
X165663766Y-101085730D01*
X165773413Y-101025534D01*
X165869209Y-100945104D01*
X165947474Y-100847530D01*
X166005199Y-100736563D01*
X166040166Y-100616466D01*
X166051032Y-100491854D01*
X166048000Y-100230750D01*
X165889250Y-100072000D01*
X165286000Y-100072000D01*
X164340000Y-100072000D01*
X163736750Y-100072000D01*
X163578000Y-100230750D01*
X163574968Y-100491854D01*
X161877000Y-100491854D01*
X161877000Y-99951354D01*
X161882452Y-99895999D01*
X161877000Y-99840645D01*
X161877000Y-99840635D01*
X161860693Y-99675069D01*
X161796250Y-99462629D01*
X161734243Y-99346622D01*
X161734243Y-98306146D01*
X163574968Y-98306146D01*
X163578000Y-98567250D01*
X163736750Y-98726000D01*
X164340000Y-98726000D01*
X164340000Y-97822750D01*
X165286000Y-97822750D01*
X165286000Y-98726000D01*
X165889250Y-98726000D01*
X166048000Y-98567250D01*
X166051032Y-98306146D01*
X166040166Y-98181534D01*
X166005199Y-98061437D01*
X165947474Y-97950470D01*
X165869209Y-97852896D01*
X165773413Y-97772466D01*
X165663766Y-97712270D01*
X165544482Y-97674622D01*
X165444750Y-97664000D01*
X165286000Y-97822750D01*
X164340000Y-97822750D01*
X164181250Y-97664000D01*
X164081518Y-97674622D01*
X163962234Y-97712270D01*
X163852587Y-97772466D01*
X163756791Y-97852896D01*
X163678526Y-97950470D01*
X163620801Y-98061437D01*
X163585834Y-98181534D01*
X163574968Y-98306146D01*
X161734243Y-98306146D01*
X161734243Y-98299000D01*
X161717310Y-98127078D01*
X161667162Y-97961763D01*
X161585727Y-97809408D01*
X161476133Y-97675867D01*
X161342592Y-97566273D01*
X161190237Y-97484838D01*
X161024922Y-97434690D01*
X160853000Y-97417757D01*
X159653000Y-97417757D01*
X159481078Y-97434690D01*
X159315763Y-97484838D01*
X159163408Y-97566273D01*
X159029867Y-97675867D01*
X158920273Y-97809408D01*
X158838838Y-97961763D01*
X158788690Y-98127078D01*
X158771757Y-98299000D01*
X156904409Y-98299000D01*
X156894166Y-98181534D01*
X156859199Y-98061437D01*
X156801474Y-97950470D01*
X156723209Y-97852896D01*
X156627413Y-97772466D01*
X156517766Y-97712270D01*
X156398482Y-97674622D01*
X156298750Y-97664000D01*
X156140000Y-97822750D01*
X155194000Y-97822750D01*
X155035250Y-97664000D01*
X154935518Y-97674622D01*
X154816234Y-97712270D01*
X154706587Y-97772466D01*
X154610791Y-97852896D01*
X154532526Y-97950470D01*
X154474801Y-98061437D01*
X154439834Y-98181534D01*
X154428968Y-98306146D01*
X152588243Y-98306146D01*
X152588243Y-98299000D01*
X152571310Y-98127078D01*
X152521162Y-97961763D01*
X152439727Y-97809408D01*
X152330133Y-97675867D01*
X152196592Y-97566273D01*
X152044237Y-97484838D01*
X151878922Y-97434690D01*
X151707000Y-97417757D01*
X150507000Y-97417757D01*
X150335078Y-97434690D01*
X150169763Y-97484838D01*
X150017408Y-97566273D01*
X149883867Y-97675867D01*
X149774273Y-97809408D01*
X149692838Y-97961763D01*
X149642690Y-98127078D01*
X149625757Y-98299000D01*
X147758357Y-98299000D01*
X147751166Y-98216534D01*
X147716199Y-98096437D01*
X147658474Y-97985470D01*
X147580209Y-97887896D01*
X147484413Y-97807466D01*
X147374766Y-97747270D01*
X147255482Y-97709622D01*
X147155750Y-97699000D01*
X146997000Y-97857750D01*
X146051000Y-97857750D01*
X145892250Y-97699000D01*
X145792518Y-97709622D01*
X145673234Y-97747270D01*
X145563587Y-97807466D01*
X145467791Y-97887896D01*
X145389526Y-97985470D01*
X145331801Y-98096437D01*
X145296834Y-98216534D01*
X145285968Y-98341146D01*
X143445243Y-98341146D01*
X143445243Y-98334000D01*
X143428310Y-98162078D01*
X143378162Y-97996763D01*
X143296727Y-97844408D01*
X143187133Y-97710867D01*
X143053592Y-97601273D01*
X142901237Y-97519838D01*
X142735922Y-97469690D01*
X142564000Y-97452757D01*
X141364000Y-97452757D01*
X141192078Y-97469690D01*
X141026763Y-97519838D01*
X140874408Y-97601273D01*
X140740867Y-97710867D01*
X140631273Y-97844408D01*
X140549838Y-97996763D01*
X140499690Y-98162078D01*
X140482757Y-98334000D01*
X138615165Y-98334000D01*
X138618032Y-98087146D01*
X138607166Y-97962534D01*
X138572199Y-97842437D01*
X138514474Y-97731470D01*
X138436209Y-97633896D01*
X138340413Y-97553466D01*
X138230766Y-97493270D01*
X138111482Y-97455622D01*
X138011750Y-97445000D01*
X137853000Y-97603750D01*
X136907000Y-97603750D01*
X136748250Y-97445000D01*
X136648518Y-97455622D01*
X136529234Y-97493270D01*
X136419587Y-97553466D01*
X136323791Y-97633896D01*
X136245526Y-97731470D01*
X136187801Y-97842437D01*
X136152834Y-97962534D01*
X136141968Y-98087146D01*
X134301243Y-98087146D01*
X134301243Y-98080000D01*
X134284310Y-97908078D01*
X134234162Y-97742763D01*
X134152727Y-97590408D01*
X134043133Y-97456867D01*
X133909592Y-97347273D01*
X133757237Y-97265838D01*
X133591922Y-97215690D01*
X133420000Y-97198757D01*
X132220000Y-97198757D01*
X132048078Y-97215690D01*
X131882763Y-97265838D01*
X131730408Y-97347273D01*
X131596867Y-97456867D01*
X131487273Y-97590408D01*
X131405838Y-97742763D01*
X131355690Y-97908078D01*
X131338757Y-98080000D01*
X129473409Y-98080000D01*
X129463166Y-97962534D01*
X129428199Y-97842437D01*
X129370474Y-97731470D01*
X129292209Y-97633896D01*
X129196413Y-97553466D01*
X129086766Y-97493270D01*
X128967482Y-97455622D01*
X128867750Y-97445000D01*
X128709000Y-97603750D01*
X127763000Y-97603750D01*
X127604250Y-97445000D01*
X127504518Y-97455622D01*
X127385234Y-97493270D01*
X127275587Y-97553466D01*
X127179791Y-97633896D01*
X127101526Y-97731470D01*
X127043801Y-97842437D01*
X127008834Y-97962534D01*
X126997968Y-98087146D01*
X125157243Y-98087146D01*
X125157243Y-98080000D01*
X125140310Y-97908078D01*
X125090162Y-97742763D01*
X125008727Y-97590408D01*
X124899133Y-97456867D01*
X124765592Y-97347273D01*
X124613237Y-97265838D01*
X124447922Y-97215690D01*
X124276000Y-97198757D01*
X123076000Y-97198757D01*
X122904078Y-97215690D01*
X122738763Y-97265838D01*
X122586408Y-97347273D01*
X122452867Y-97456867D01*
X122343273Y-97590408D01*
X122261838Y-97742763D01*
X122211690Y-97908078D01*
X122194757Y-98080000D01*
X120329409Y-98080000D01*
X120319166Y-97962534D01*
X120284199Y-97842437D01*
X120226474Y-97731470D01*
X120148209Y-97633896D01*
X120052413Y-97553466D01*
X119942766Y-97493270D01*
X119823482Y-97455622D01*
X119723750Y-97445000D01*
X119565000Y-97603750D01*
X118619000Y-97603750D01*
X118460250Y-97445000D01*
X118360518Y-97455622D01*
X118241234Y-97493270D01*
X118131587Y-97553466D01*
X118035791Y-97633896D01*
X117957526Y-97731470D01*
X117899801Y-97842437D01*
X117864834Y-97962534D01*
X117853968Y-98087146D01*
X116013243Y-98087146D01*
X116013243Y-98080000D01*
X115996310Y-97908078D01*
X115946162Y-97742763D01*
X115864727Y-97590408D01*
X115755133Y-97456867D01*
X115621592Y-97347273D01*
X115469237Y-97265838D01*
X115303922Y-97215690D01*
X115132000Y-97198757D01*
X113932000Y-97198757D01*
X113760078Y-97215690D01*
X113594763Y-97265838D01*
X113442408Y-97347273D01*
X113308867Y-97456867D01*
X113199273Y-97590408D01*
X113117838Y-97742763D01*
X113067690Y-97908078D01*
X113050757Y-98080000D01*
X111186708Y-98080000D01*
X111187032Y-98052146D01*
X111176166Y-97927534D01*
X111141199Y-97807437D01*
X111083474Y-97696470D01*
X111005209Y-97598896D01*
X110909413Y-97518466D01*
X110799766Y-97458270D01*
X110680482Y-97420622D01*
X110580750Y-97410000D01*
X110422000Y-97568750D01*
X109476000Y-97568750D01*
X109317250Y-97410000D01*
X109217518Y-97420622D01*
X109098234Y-97458270D01*
X108988587Y-97518466D01*
X108892791Y-97598896D01*
X108814526Y-97696470D01*
X108756801Y-97807437D01*
X108721834Y-97927534D01*
X108710968Y-98052146D01*
X106870243Y-98052146D01*
X106870243Y-98045000D01*
X106853310Y-97873078D01*
X106803162Y-97707763D01*
X106721727Y-97555408D01*
X106612133Y-97421867D01*
X106478592Y-97312273D01*
X106326237Y-97230838D01*
X106160922Y-97180690D01*
X105989000Y-97163757D01*
X104789000Y-97163757D01*
X104617078Y-97180690D01*
X104451763Y-97230838D01*
X104299408Y-97312273D01*
X104165867Y-97421867D01*
X104056273Y-97555408D01*
X103974838Y-97707763D01*
X103924690Y-97873078D01*
X103907757Y-98045000D01*
X98123822Y-98045000D01*
X98199228Y-97903927D01*
X98305986Y-97551996D01*
X98342033Y-97186000D01*
X98305986Y-96820004D01*
X98199228Y-96468073D01*
X98025864Y-96143732D01*
X97792556Y-95859444D01*
X97508268Y-95626136D01*
X97183927Y-95452772D01*
X96831996Y-95346014D01*
X96557715Y-95319000D01*
X94394285Y-95319000D01*
X94120004Y-95346014D01*
X93768073Y-95452772D01*
X93443732Y-95626136D01*
X93159444Y-95859444D01*
X92926136Y-96143732D01*
X92752772Y-96468073D01*
X92646014Y-96820004D01*
X92609967Y-97186000D01*
X85660000Y-97186000D01*
X85660000Y-91196000D01*
X92614757Y-91196000D01*
X92614757Y-93176000D01*
X92631690Y-93347922D01*
X92681838Y-93513237D01*
X92763273Y-93665592D01*
X92872867Y-93799133D01*
X93006408Y-93908727D01*
X93158763Y-93990162D01*
X93324078Y-94040310D01*
X93496000Y-94057243D01*
X94464728Y-94057243D01*
X94658094Y-94160599D01*
X95059035Y-94282224D01*
X95371513Y-94313000D01*
X103887757Y-94313000D01*
X103887757Y-96045000D01*
X103904690Y-96216922D01*
X103954838Y-96382237D01*
X104036273Y-96534592D01*
X104145867Y-96668133D01*
X104279408Y-96777727D01*
X104431763Y-96859162D01*
X104597078Y-96909310D01*
X104769000Y-96926243D01*
X110569000Y-96926243D01*
X110740922Y-96909310D01*
X110906237Y-96859162D01*
X111058592Y-96777727D01*
X111192133Y-96668133D01*
X111301727Y-96534592D01*
X111383162Y-96382237D01*
X111433310Y-96216922D01*
X111450243Y-96045000D01*
X111450243Y-89645000D01*
X111433310Y-89473078D01*
X111383162Y-89307763D01*
X111301727Y-89155408D01*
X111192133Y-89021867D01*
X111058592Y-88912273D01*
X110906237Y-88830838D01*
X110740922Y-88780690D01*
X110569000Y-88763757D01*
X104769000Y-88763757D01*
X104597078Y-88780690D01*
X104431763Y-88830838D01*
X104279408Y-88912273D01*
X104145867Y-89021867D01*
X104036273Y-89155408D01*
X103954838Y-89307763D01*
X103904690Y-89473078D01*
X103887757Y-89645000D01*
X103887757Y-90059000D01*
X95371513Y-90059000D01*
X95059035Y-90089776D01*
X94658094Y-90211401D01*
X94464728Y-90314757D01*
X93496000Y-90314757D01*
X93324078Y-90331690D01*
X93158763Y-90381838D01*
X93006408Y-90463273D01*
X92872867Y-90572867D01*
X92763273Y-90706408D01*
X92681838Y-90858763D01*
X92631690Y-91024078D01*
X92614757Y-91196000D01*
X85660000Y-91196000D01*
X85660000Y-76490110D01*
X86823000Y-76490110D01*
X86823000Y-77509890D01*
X87021949Y-78510075D01*
X87412202Y-79452229D01*
X87978762Y-80300145D01*
X88699855Y-81021238D01*
X89547771Y-81587798D01*
X90489925Y-81978051D01*
X91490110Y-82177000D01*
X92509890Y-82177000D01*
X93510075Y-81978051D01*
X94452229Y-81587798D01*
X94595600Y-81492000D01*
X106158709Y-81492000D01*
X106169000Y-81596485D01*
X106169000Y-81596487D01*
X106199776Y-81908965D01*
X106321401Y-82309906D01*
X106518908Y-82679415D01*
X106784708Y-83003293D01*
X106865870Y-83069901D01*
X113112082Y-89316114D01*
X113097838Y-89342763D01*
X113047690Y-89508078D01*
X113030757Y-89680000D01*
X113030757Y-96080000D01*
X113047690Y-96251922D01*
X113097838Y-96417237D01*
X113179273Y-96569592D01*
X113288867Y-96703133D01*
X113422408Y-96812727D01*
X113574763Y-96894162D01*
X113740078Y-96944310D01*
X113912000Y-96961243D01*
X119712000Y-96961243D01*
X119883922Y-96944310D01*
X120049237Y-96894162D01*
X120201592Y-96812727D01*
X120335133Y-96703133D01*
X120444727Y-96569592D01*
X120526162Y-96417237D01*
X120576310Y-96251922D01*
X120593243Y-96080000D01*
X120593243Y-89680000D01*
X120576310Y-89508078D01*
X120526162Y-89342763D01*
X120444727Y-89190408D01*
X120335133Y-89056867D01*
X120201592Y-88947273D01*
X120049237Y-88865838D01*
X119883922Y-88815690D01*
X119712000Y-88798757D01*
X118571180Y-88798757D01*
X118389899Y-88577867D01*
X118323293Y-88496707D01*
X118242131Y-88430099D01*
X115054032Y-85242000D01*
X118604709Y-85242000D01*
X118615000Y-85346485D01*
X118615000Y-85346486D01*
X118645776Y-85658964D01*
X118767401Y-86059905D01*
X118964907Y-86429415D01*
X119230707Y-86753293D01*
X119311874Y-86819905D01*
X122174757Y-89682789D01*
X122174757Y-96080000D01*
X122191690Y-96251922D01*
X122241838Y-96417237D01*
X122323273Y-96569592D01*
X122432867Y-96703133D01*
X122566408Y-96812727D01*
X122718763Y-96894162D01*
X122884078Y-96944310D01*
X123056000Y-96961243D01*
X128856000Y-96961243D01*
X129027922Y-96944310D01*
X129193237Y-96894162D01*
X129345592Y-96812727D01*
X129479133Y-96703133D01*
X129588727Y-96569592D01*
X129670162Y-96417237D01*
X129720310Y-96251922D01*
X129737243Y-96080000D01*
X129737243Y-89680000D01*
X129720310Y-89508078D01*
X129670162Y-89342763D01*
X129588727Y-89190408D01*
X129479133Y-89056867D01*
X129345592Y-88947273D01*
X129193237Y-88865838D01*
X129027922Y-88815690D01*
X128856000Y-88798757D01*
X127306789Y-88798757D01*
X124942032Y-86434000D01*
X130796709Y-86434000D01*
X130807000Y-86538485D01*
X130807000Y-86538486D01*
X130837776Y-86850964D01*
X130959401Y-87251905D01*
X131156907Y-87621415D01*
X131422707Y-87945293D01*
X131503874Y-88011905D01*
X132290726Y-88798757D01*
X132200000Y-88798757D01*
X132028078Y-88815690D01*
X131862763Y-88865838D01*
X131710408Y-88947273D01*
X131576867Y-89056867D01*
X131467273Y-89190408D01*
X131385838Y-89342763D01*
X131335690Y-89508078D01*
X131318757Y-89680000D01*
X131318757Y-96080000D01*
X131335690Y-96251922D01*
X131385838Y-96417237D01*
X131467273Y-96569592D01*
X131576867Y-96703133D01*
X131710408Y-96812727D01*
X131862763Y-96894162D01*
X132028078Y-96944310D01*
X132200000Y-96961243D01*
X138000000Y-96961243D01*
X138171922Y-96944310D01*
X138337237Y-96894162D01*
X138489592Y-96812727D01*
X138623133Y-96703133D01*
X138732727Y-96569592D01*
X138814162Y-96417237D01*
X138864310Y-96251922D01*
X138881243Y-96080000D01*
X138881243Y-89934000D01*
X140462757Y-89934000D01*
X140462757Y-96334000D01*
X140479690Y-96505922D01*
X140529838Y-96671237D01*
X140611273Y-96823592D01*
X140720867Y-96957133D01*
X140854408Y-97066727D01*
X141006763Y-97148162D01*
X141172078Y-97198310D01*
X141344000Y-97215243D01*
X147144000Y-97215243D01*
X147315922Y-97198310D01*
X147481237Y-97148162D01*
X147633592Y-97066727D01*
X147767133Y-96957133D01*
X147876727Y-96823592D01*
X147958162Y-96671237D01*
X148008310Y-96505922D01*
X148025243Y-96334000D01*
X148025243Y-89934000D01*
X148021796Y-89899000D01*
X149605757Y-89899000D01*
X149605757Y-96299000D01*
X149622690Y-96470922D01*
X149672838Y-96636237D01*
X149754273Y-96788592D01*
X149863867Y-96922133D01*
X149997408Y-97031727D01*
X150149763Y-97113162D01*
X150315078Y-97163310D01*
X150487000Y-97180243D01*
X156287000Y-97180243D01*
X156458922Y-97163310D01*
X156624237Y-97113162D01*
X156776592Y-97031727D01*
X156910133Y-96922133D01*
X157019727Y-96788592D01*
X157101162Y-96636237D01*
X157151310Y-96470922D01*
X157168243Y-96299000D01*
X157168243Y-89899000D01*
X158751757Y-89899000D01*
X158751757Y-96299000D01*
X158768690Y-96470922D01*
X158818838Y-96636237D01*
X158900273Y-96788592D01*
X159009867Y-96922133D01*
X159143408Y-97031727D01*
X159295763Y-97113162D01*
X159461078Y-97163310D01*
X159633000Y-97180243D01*
X165433000Y-97180243D01*
X165604922Y-97163310D01*
X165770237Y-97113162D01*
X165910855Y-97038000D01*
X171608757Y-97038000D01*
X171608757Y-99018000D01*
X171625690Y-99189922D01*
X171675838Y-99355237D01*
X171757273Y-99507592D01*
X171866867Y-99641133D01*
X172000408Y-99750727D01*
X172152763Y-99832162D01*
X172318078Y-99882310D01*
X172490000Y-99899243D01*
X176450000Y-99899243D01*
X176621922Y-99882310D01*
X176787237Y-99832162D01*
X176939592Y-99750727D01*
X177073133Y-99641133D01*
X177182727Y-99507592D01*
X177264162Y-99355237D01*
X177314310Y-99189922D01*
X177331243Y-99018000D01*
X177331243Y-97038000D01*
X177314310Y-96866078D01*
X177264162Y-96700763D01*
X177182727Y-96548408D01*
X177073133Y-96414867D01*
X176939592Y-96305273D01*
X176787237Y-96223838D01*
X176621922Y-96173690D01*
X176450000Y-96156757D01*
X172490000Y-96156757D01*
X172318078Y-96173690D01*
X172152763Y-96223838D01*
X172000408Y-96305273D01*
X171866867Y-96414867D01*
X171757273Y-96548408D01*
X171675838Y-96700763D01*
X171625690Y-96866078D01*
X171608757Y-97038000D01*
X165910855Y-97038000D01*
X165922592Y-97031727D01*
X166056133Y-96922133D01*
X166165727Y-96788592D01*
X166247162Y-96636237D01*
X166297310Y-96470922D01*
X166314243Y-96299000D01*
X166314243Y-95226000D01*
X174294515Y-95226000D01*
X174399000Y-95236291D01*
X174503485Y-95226000D01*
X174503487Y-95226000D01*
X174815965Y-95195224D01*
X175216906Y-95073599D01*
X175551042Y-94895000D01*
X175551715Y-94895000D01*
X175825996Y-94867986D01*
X176177927Y-94761228D01*
X176502268Y-94587864D01*
X176786556Y-94354556D01*
X177019864Y-94070268D01*
X177193228Y-93745927D01*
X177299986Y-93393996D01*
X177336033Y-93028000D01*
X177299986Y-92662004D01*
X177193228Y-92310073D01*
X177019864Y-91985732D01*
X176786556Y-91701444D01*
X176502268Y-91468136D01*
X176177927Y-91294772D01*
X175825996Y-91188014D01*
X175551715Y-91161000D01*
X175489209Y-91161000D01*
X175287905Y-91053401D01*
X174886965Y-90931777D01*
X174469999Y-90890710D01*
X174053035Y-90931777D01*
X173920438Y-90972000D01*
X166314243Y-90972000D01*
X166314243Y-89899000D01*
X166297310Y-89727078D01*
X166247162Y-89561763D01*
X166165727Y-89409408D01*
X166056133Y-89275867D01*
X165922592Y-89166273D01*
X165770237Y-89084838D01*
X165604922Y-89034690D01*
X165433000Y-89017757D01*
X159633000Y-89017757D01*
X159461078Y-89034690D01*
X159295763Y-89084838D01*
X159143408Y-89166273D01*
X159009867Y-89275867D01*
X158900273Y-89409408D01*
X158818838Y-89561763D01*
X158768690Y-89727078D01*
X158751757Y-89899000D01*
X157168243Y-89899000D01*
X157151310Y-89727078D01*
X157101162Y-89561763D01*
X157019727Y-89409408D01*
X156910133Y-89275867D01*
X156776592Y-89166273D01*
X156624237Y-89084838D01*
X156469985Y-89038046D01*
X158218910Y-87289122D01*
X158241415Y-87277093D01*
X158565293Y-87011293D01*
X158631905Y-86930126D01*
X159002126Y-86559905D01*
X159083293Y-86493293D01*
X159349093Y-86169415D01*
X159546599Y-85799906D01*
X159668224Y-85398965D01*
X159699000Y-85086487D01*
X159699000Y-85086485D01*
X159709291Y-84982000D01*
X159699000Y-84877515D01*
X159699000Y-80397513D01*
X159668224Y-80085035D01*
X159546599Y-79684094D01*
X159439000Y-79482790D01*
X159439000Y-79420285D01*
X159411986Y-79146004D01*
X159305228Y-78794073D01*
X159159802Y-78522000D01*
X160700757Y-78522000D01*
X160700757Y-82482000D01*
X160717690Y-82653922D01*
X160767838Y-82819237D01*
X160849273Y-82971592D01*
X160958867Y-83105133D01*
X161092408Y-83214727D01*
X161244763Y-83296162D01*
X161410078Y-83346310D01*
X161582000Y-83363243D01*
X163562000Y-83363243D01*
X163733922Y-83346310D01*
X163899237Y-83296162D01*
X164051592Y-83214727D01*
X164185133Y-83105133D01*
X164294727Y-82971592D01*
X164376162Y-82819237D01*
X164426310Y-82653922D01*
X164443243Y-82482000D01*
X164443243Y-78522000D01*
X164426310Y-78350078D01*
X164376162Y-78184763D01*
X164294727Y-78032408D01*
X164185133Y-77898867D01*
X164051592Y-77789273D01*
X163899237Y-77707838D01*
X163733922Y-77657690D01*
X163562000Y-77640757D01*
X161582000Y-77640757D01*
X161410078Y-77657690D01*
X161244763Y-77707838D01*
X161092408Y-77789273D01*
X160958867Y-77898867D01*
X160849273Y-78032408D01*
X160767838Y-78184763D01*
X160717690Y-78350078D01*
X160700757Y-78522000D01*
X159159802Y-78522000D01*
X159131864Y-78469732D01*
X158898556Y-78185444D01*
X158614268Y-77952136D01*
X158289927Y-77778772D01*
X157937996Y-77672014D01*
X157572000Y-77635967D01*
X157206005Y-77672014D01*
X156854074Y-77778772D01*
X156529733Y-77952136D01*
X156245445Y-78185444D01*
X156012137Y-78469732D01*
X155838773Y-78794073D01*
X155732015Y-79146004D01*
X155705001Y-79420285D01*
X155705001Y-79482790D01*
X155597402Y-79684094D01*
X155475777Y-80085035D01*
X155445001Y-80397513D01*
X155445000Y-84041964D01*
X155422100Y-84069868D01*
X151956870Y-87535099D01*
X151875708Y-87601707D01*
X151809101Y-87682868D01*
X151609908Y-87925585D01*
X151412401Y-88295095D01*
X151290777Y-88696035D01*
X151259090Y-89017757D01*
X150487000Y-89017757D01*
X150315078Y-89034690D01*
X150149763Y-89084838D01*
X149997408Y-89166273D01*
X149863867Y-89275867D01*
X149754273Y-89409408D01*
X149672838Y-89561763D01*
X149622690Y-89727078D01*
X149605757Y-89899000D01*
X148021796Y-89899000D01*
X148008310Y-89762078D01*
X147958162Y-89596763D01*
X147876727Y-89444408D01*
X147767133Y-89310867D01*
X147633592Y-89201273D01*
X147481237Y-89119838D01*
X147450292Y-89110451D01*
X147476224Y-89024965D01*
X147507000Y-88712487D01*
X147507000Y-88712485D01*
X147517291Y-88608000D01*
X147507000Y-88503515D01*
X147507000Y-80397513D01*
X147476224Y-80085035D01*
X147354599Y-79684094D01*
X147247000Y-79482790D01*
X147247000Y-79420285D01*
X147219986Y-79146004D01*
X147113228Y-78794073D01*
X146967802Y-78522000D01*
X148508757Y-78522000D01*
X148508757Y-82482000D01*
X148525690Y-82653922D01*
X148575838Y-82819237D01*
X148657273Y-82971592D01*
X148766867Y-83105133D01*
X148900408Y-83214727D01*
X149052763Y-83296162D01*
X149218078Y-83346310D01*
X149390000Y-83363243D01*
X151370000Y-83363243D01*
X151541922Y-83346310D01*
X151707237Y-83296162D01*
X151859592Y-83214727D01*
X151993133Y-83105133D01*
X152102727Y-82971592D01*
X152184162Y-82819237D01*
X152234310Y-82653922D01*
X152251243Y-82482000D01*
X152251243Y-78522000D01*
X152234310Y-78350078D01*
X152184162Y-78184763D01*
X152102727Y-78032408D01*
X151993133Y-77898867D01*
X151859592Y-77789273D01*
X151707237Y-77707838D01*
X151541922Y-77657690D01*
X151370000Y-77640757D01*
X149390000Y-77640757D01*
X149218078Y-77657690D01*
X149052763Y-77707838D01*
X148900408Y-77789273D01*
X148766867Y-77898867D01*
X148657273Y-78032408D01*
X148575838Y-78184763D01*
X148525690Y-78350078D01*
X148508757Y-78522000D01*
X146967802Y-78522000D01*
X146939864Y-78469732D01*
X146706556Y-78185444D01*
X146422268Y-77952136D01*
X146097927Y-77778772D01*
X145745996Y-77672014D01*
X145380000Y-77635967D01*
X145014005Y-77672014D01*
X144662074Y-77778772D01*
X144337733Y-77952136D01*
X144053445Y-78185444D01*
X143820137Y-78469732D01*
X143646773Y-78794073D01*
X143540015Y-79146004D01*
X143513001Y-79420285D01*
X143513001Y-79482790D01*
X143405402Y-79684094D01*
X143283777Y-80085035D01*
X143253001Y-80397513D01*
X143253000Y-87726969D01*
X142813870Y-88166099D01*
X142732708Y-88232707D01*
X142666101Y-88313868D01*
X142466908Y-88556585D01*
X142269401Y-88926095D01*
X142230978Y-89052757D01*
X141344000Y-89052757D01*
X141172078Y-89069690D01*
X141006763Y-89119838D01*
X140854408Y-89201273D01*
X140720867Y-89310867D01*
X140611273Y-89444408D01*
X140529838Y-89596763D01*
X140479690Y-89762078D01*
X140462757Y-89934000D01*
X138881243Y-89934000D01*
X138881243Y-89680000D01*
X138864310Y-89508078D01*
X138814162Y-89342763D01*
X138732727Y-89190408D01*
X138623133Y-89056867D01*
X138489592Y-88947273D01*
X138337237Y-88865838D01*
X138171922Y-88815690D01*
X138000000Y-88798757D01*
X137227000Y-88798757D01*
X137227000Y-88704487D01*
X137237291Y-88600000D01*
X137196224Y-88183034D01*
X137074599Y-87782094D01*
X136877093Y-87412584D01*
X136677899Y-87169867D01*
X136611293Y-87088707D01*
X136530131Y-87022099D01*
X135061000Y-85552969D01*
X135061000Y-80397513D01*
X135030224Y-80085035D01*
X134908599Y-79684094D01*
X134801000Y-79482790D01*
X134801000Y-79420285D01*
X134773986Y-79146004D01*
X134667228Y-78794073D01*
X134521802Y-78522000D01*
X136062757Y-78522000D01*
X136062757Y-82482000D01*
X136079690Y-82653922D01*
X136129838Y-82819237D01*
X136211273Y-82971592D01*
X136320867Y-83105133D01*
X136454408Y-83214727D01*
X136606763Y-83296162D01*
X136772078Y-83346310D01*
X136944000Y-83363243D01*
X138924000Y-83363243D01*
X139095922Y-83346310D01*
X139261237Y-83296162D01*
X139413592Y-83214727D01*
X139547133Y-83105133D01*
X139656727Y-82971592D01*
X139738162Y-82819237D01*
X139788310Y-82653922D01*
X139805243Y-82482000D01*
X139805243Y-78522000D01*
X139788310Y-78350078D01*
X139738162Y-78184763D01*
X139656727Y-78032408D01*
X139547133Y-77898867D01*
X139413592Y-77789273D01*
X139261237Y-77707838D01*
X139095922Y-77657690D01*
X138924000Y-77640757D01*
X136944000Y-77640757D01*
X136772078Y-77657690D01*
X136606763Y-77707838D01*
X136454408Y-77789273D01*
X136320867Y-77898867D01*
X136211273Y-78032408D01*
X136129838Y-78184763D01*
X136079690Y-78350078D01*
X136062757Y-78522000D01*
X134521802Y-78522000D01*
X134493864Y-78469732D01*
X134260556Y-78185444D01*
X133976268Y-77952136D01*
X133651927Y-77778772D01*
X133299996Y-77672014D01*
X132934000Y-77635967D01*
X132568005Y-77672014D01*
X132216074Y-77778772D01*
X131891733Y-77952136D01*
X131607445Y-78185444D01*
X131374137Y-78469732D01*
X131200773Y-78794073D01*
X131094015Y-79146004D01*
X131067001Y-79420285D01*
X131067001Y-79482790D01*
X130959402Y-79684094D01*
X130837777Y-80085035D01*
X130807001Y-80397513D01*
X130807000Y-86329515D01*
X130796709Y-86434000D01*
X124942032Y-86434000D01*
X122869000Y-84360969D01*
X122869000Y-80397513D01*
X122838224Y-80085035D01*
X122716599Y-79684094D01*
X122609000Y-79482790D01*
X122609000Y-79420285D01*
X122581986Y-79146004D01*
X122475228Y-78794073D01*
X122329802Y-78522000D01*
X123870757Y-78522000D01*
X123870757Y-82482000D01*
X123887690Y-82653922D01*
X123937838Y-82819237D01*
X124019273Y-82971592D01*
X124128867Y-83105133D01*
X124262408Y-83214727D01*
X124414763Y-83296162D01*
X124580078Y-83346310D01*
X124752000Y-83363243D01*
X126732000Y-83363243D01*
X126903922Y-83346310D01*
X127069237Y-83296162D01*
X127221592Y-83214727D01*
X127355133Y-83105133D01*
X127464727Y-82971592D01*
X127546162Y-82819237D01*
X127596310Y-82653922D01*
X127613243Y-82482000D01*
X127613243Y-78522000D01*
X127596310Y-78350078D01*
X127546162Y-78184763D01*
X127464727Y-78032408D01*
X127355133Y-77898867D01*
X127221592Y-77789273D01*
X127069237Y-77707838D01*
X126903922Y-77657690D01*
X126732000Y-77640757D01*
X124752000Y-77640757D01*
X124580078Y-77657690D01*
X124414763Y-77707838D01*
X124262408Y-77789273D01*
X124128867Y-77898867D01*
X124019273Y-78032408D01*
X123937838Y-78184763D01*
X123887690Y-78350078D01*
X123870757Y-78522000D01*
X122329802Y-78522000D01*
X122301864Y-78469732D01*
X122068556Y-78185444D01*
X121784268Y-77952136D01*
X121459927Y-77778772D01*
X121107996Y-77672014D01*
X120742000Y-77635967D01*
X120376005Y-77672014D01*
X120024074Y-77778772D01*
X119699733Y-77952136D01*
X119415445Y-78185444D01*
X119182137Y-78469732D01*
X119008773Y-78794073D01*
X118902015Y-79146004D01*
X118875001Y-79420285D01*
X118875001Y-79482790D01*
X118767402Y-79684094D01*
X118645777Y-80085035D01*
X118615001Y-80397513D01*
X118615000Y-85137515D01*
X118604709Y-85242000D01*
X115054032Y-85242000D01*
X113175274Y-83363243D01*
X114286000Y-83363243D01*
X114457922Y-83346310D01*
X114623237Y-83296162D01*
X114775592Y-83214727D01*
X114909133Y-83105133D01*
X115018727Y-82971592D01*
X115100162Y-82819237D01*
X115150310Y-82653922D01*
X115167243Y-82482000D01*
X115167243Y-78522000D01*
X115150310Y-78350078D01*
X115100162Y-78184763D01*
X115018727Y-78032408D01*
X114909133Y-77898867D01*
X114775592Y-77789273D01*
X114623237Y-77707838D01*
X114457922Y-77657690D01*
X114286000Y-77640757D01*
X112306000Y-77640757D01*
X112134078Y-77657690D01*
X111968763Y-77707838D01*
X111816408Y-77789273D01*
X111682867Y-77898867D01*
X111573273Y-78032408D01*
X111491838Y-78184763D01*
X111441690Y-78350078D01*
X111424757Y-78522000D01*
X111424757Y-81612726D01*
X110423000Y-80610969D01*
X110423000Y-80397513D01*
X110392224Y-80085035D01*
X110270599Y-79684094D01*
X110163000Y-79482790D01*
X110163000Y-79420285D01*
X110135986Y-79146004D01*
X110029228Y-78794073D01*
X109855864Y-78469732D01*
X109622556Y-78185444D01*
X109338268Y-77952136D01*
X109013927Y-77778772D01*
X108661996Y-77672014D01*
X108296000Y-77635967D01*
X107930005Y-77672014D01*
X107578074Y-77778772D01*
X107253733Y-77952136D01*
X106969445Y-78185444D01*
X106736137Y-78469732D01*
X106562773Y-78794073D01*
X106456015Y-79146004D01*
X106429001Y-79420285D01*
X106429001Y-79482788D01*
X106321401Y-79684095D01*
X106199776Y-80085036D01*
X106169000Y-80397514D01*
X106169000Y-81387515D01*
X106158709Y-81492000D01*
X94595600Y-81492000D01*
X95300145Y-81021238D01*
X96021238Y-80300145D01*
X96587798Y-79452229D01*
X96978051Y-78510075D01*
X97177000Y-77509890D01*
X97177000Y-76490110D01*
X172823000Y-76490110D01*
X172823000Y-77509890D01*
X173021949Y-78510075D01*
X173412202Y-79452229D01*
X173978762Y-80300145D01*
X174699855Y-81021238D01*
X175547771Y-81587798D01*
X176489925Y-81978051D01*
X177490110Y-82177000D01*
X178509890Y-82177000D01*
X179510075Y-81978051D01*
X180452229Y-81587798D01*
X181300145Y-81021238D01*
X182021238Y-80300145D01*
X182587798Y-79452229D01*
X182978051Y-78510075D01*
X183177000Y-77509890D01*
X183177000Y-76490110D01*
X182978051Y-75489925D01*
X182587798Y-74547771D01*
X182021238Y-73699855D01*
X181300145Y-72978762D01*
X180452229Y-72412202D01*
X179510075Y-72021949D01*
X178509890Y-71823000D01*
X177490110Y-71823000D01*
X176489925Y-72021949D01*
X175547771Y-72412202D01*
X174699855Y-72978762D01*
X173978762Y-73699855D01*
X173412202Y-74547771D01*
X173021949Y-75489925D01*
X172823000Y-76490110D01*
X97177000Y-76490110D01*
X96978051Y-75489925D01*
X96587798Y-74547771D01*
X96021238Y-73699855D01*
X95300145Y-72978762D01*
X94452229Y-72412202D01*
X93510075Y-72021949D01*
X92509890Y-71823000D01*
X91490110Y-71823000D01*
X90489925Y-72021949D01*
X89547771Y-72412202D01*
X88699855Y-72978762D01*
X87978762Y-73699855D01*
X87412202Y-74547771D01*
X87021949Y-75489925D01*
X86823000Y-76490110D01*
X85660000Y-76490110D01*
X85660000Y-70660000D01*
X184340001Y-70660000D01*
X184340000Y-119340000D01*
X184340000Y-119340000D01*
G37*
X184340000Y-119340000D02*
X85660000Y-119340000D01*
X85660000Y-112490110D01*
X86823000Y-112490110D01*
X86823000Y-113509890D01*
X87021949Y-114510075D01*
X87412202Y-115452229D01*
X87978762Y-116300145D01*
X88699855Y-117021238D01*
X89547771Y-117587798D01*
X90489925Y-117978051D01*
X91490110Y-118177000D01*
X92509890Y-118177000D01*
X93510075Y-117978051D01*
X94452229Y-117587798D01*
X95300145Y-117021238D01*
X96021238Y-116300145D01*
X96587798Y-115452229D01*
X96978051Y-114510075D01*
X97177000Y-113509890D01*
X97177000Y-112490110D01*
X172823000Y-112490110D01*
X172823000Y-113509890D01*
X173021949Y-114510075D01*
X173412202Y-115452229D01*
X173978762Y-116300145D01*
X174699855Y-117021238D01*
X175547771Y-117587798D01*
X176489925Y-117978051D01*
X177490110Y-118177000D01*
X178509890Y-118177000D01*
X179510075Y-117978051D01*
X180452229Y-117587798D01*
X181300145Y-117021238D01*
X182021238Y-116300145D01*
X182587798Y-115452229D01*
X182978051Y-114510075D01*
X183177000Y-113509890D01*
X183177000Y-112490110D01*
X182978051Y-111489925D01*
X182587798Y-110547771D01*
X182021238Y-109699855D01*
X181300145Y-108978762D01*
X180452229Y-108412202D01*
X179510075Y-108021949D01*
X178509890Y-107823000D01*
X177490110Y-107823000D01*
X176489925Y-108021949D01*
X175547771Y-108412202D01*
X174699855Y-108978762D01*
X173978762Y-109699855D01*
X173412202Y-110547771D01*
X173021949Y-111489925D01*
X172823000Y-112490110D01*
X97177000Y-112490110D01*
X96978051Y-111489925D01*
X96587798Y-110547771D01*
X96021238Y-109699855D01*
X95300145Y-108978762D01*
X94452229Y-108412202D01*
X93510075Y-108021949D01*
X92509890Y-107823000D01*
X91490110Y-107823000D01*
X90489925Y-108021949D01*
X89547771Y-108412202D01*
X88699855Y-108978762D01*
X87978762Y-109699855D01*
X87412202Y-110547771D01*
X87021949Y-111489925D01*
X86823000Y-112490110D01*
X85660000Y-112490110D01*
X85660000Y-107590000D01*
X99836757Y-107590000D01*
X99836757Y-111550000D01*
X99853690Y-111721922D01*
X99903838Y-111887237D01*
X99985273Y-112039592D01*
X100094867Y-112173133D01*
X100228408Y-112282727D01*
X100380763Y-112364162D01*
X100546078Y-112414310D01*
X100718000Y-112431243D01*
X102698000Y-112431243D01*
X102869922Y-112414310D01*
X103035237Y-112364162D01*
X103187592Y-112282727D01*
X103321133Y-112173133D01*
X103430727Y-112039592D01*
X103512162Y-111887237D01*
X103562310Y-111721922D01*
X103579243Y-111550000D01*
X103579243Y-108488286D01*
X104841000Y-108488286D01*
X104841001Y-110651715D01*
X104868015Y-110925996D01*
X104974773Y-111277927D01*
X105148137Y-111602268D01*
X105381445Y-111886556D01*
X105665733Y-112119864D01*
X105990074Y-112293228D01*
X106342005Y-112399986D01*
X106708000Y-112436033D01*
X107073996Y-112399986D01*
X107425927Y-112293228D01*
X107750268Y-112119864D01*
X108034556Y-111886556D01*
X108267864Y-111602268D01*
X108441228Y-111277927D01*
X108547986Y-110925996D01*
X108575000Y-110651715D01*
X108575000Y-108488285D01*
X108547986Y-108214004D01*
X108441228Y-107862073D01*
X108295802Y-107590000D01*
X112028757Y-107590000D01*
X112028757Y-111550000D01*
X112045690Y-111721922D01*
X112095838Y-111887237D01*
X112177273Y-112039592D01*
X112286867Y-112173133D01*
X112420408Y-112282727D01*
X112572763Y-112364162D01*
X112738078Y-112414310D01*
X112910000Y-112431243D01*
X114890000Y-112431243D01*
X115061922Y-112414310D01*
X115227237Y-112364162D01*
X115379592Y-112282727D01*
X115513133Y-112173133D01*
X115622727Y-112039592D01*
X115704162Y-111887237D01*
X115754310Y-111721922D01*
X115771243Y-111550000D01*
X115771243Y-108488286D01*
X117033000Y-108488286D01*
X117033001Y-110651715D01*
X117060015Y-110925996D01*
X117166773Y-111277927D01*
X117340137Y-111602268D01*
X117573445Y-111886556D01*
X117857733Y-112119864D01*
X118182074Y-112293228D01*
X118534005Y-112399986D01*
X118900000Y-112436033D01*
X119265996Y-112399986D01*
X119617927Y-112293228D01*
X119942268Y-112119864D01*
X120226556Y-111886556D01*
X120459864Y-111602268D01*
X120633228Y-111277927D01*
X120739986Y-110925996D01*
X120767000Y-110651715D01*
X120767000Y-108488285D01*
X120739986Y-108214004D01*
X120633228Y-107862073D01*
X120487802Y-107590000D01*
X124378757Y-107590000D01*
X124378757Y-111550000D01*
X124395690Y-111721922D01*
X124445838Y-111887237D01*
X124527273Y-112039592D01*
X124636867Y-112173133D01*
X124770408Y-112282727D01*
X124922763Y-112364162D01*
X125088078Y-112414310D01*
X125260000Y-112431243D01*
X127240000Y-112431243D01*
X127411922Y-112414310D01*
X127577237Y-112364162D01*
X127729592Y-112282727D01*
X127863133Y-112173133D01*
X127972727Y-112039592D01*
X128054162Y-111887237D01*
X128104310Y-111721922D01*
X128121243Y-111550000D01*
X128121243Y-110511177D01*
X129531851Y-110511177D01*
X129555340Y-110847309D01*
X129643954Y-111172400D01*
X129794287Y-111473957D01*
X130000562Y-111740391D01*
X130353906Y-111915596D01*
X130577000Y-111862674D01*
X130577000Y-110243000D01*
X131923000Y-110243000D01*
X131923000Y-111862674D01*
X132146094Y-111915596D01*
X132499438Y-111740391D01*
X132705713Y-111473957D01*
X132856046Y-111172400D01*
X132944660Y-110847309D01*
X132968149Y-110511177D01*
X132780608Y-110243000D01*
X131923000Y-110243000D01*
X130577000Y-110243000D01*
X129719392Y-110243000D01*
X129531851Y-110511177D01*
X128121243Y-110511177D01*
X128121243Y-108628823D01*
X129531851Y-108628823D01*
X129719392Y-108897000D01*
X130577000Y-108897000D01*
X130577000Y-107277326D01*
X131923000Y-107277326D01*
X131923000Y-108897000D01*
X132780608Y-108897000D01*
X132968149Y-108628823D01*
X132944660Y-108292691D01*
X132856046Y-107967600D01*
X132705713Y-107666043D01*
X132592646Y-107520000D01*
X136628757Y-107520000D01*
X136628757Y-111480000D01*
X136645690Y-111651922D01*
X136695838Y-111817237D01*
X136777273Y-111969592D01*
X136886867Y-112103133D01*
X137020408Y-112212727D01*
X137172763Y-112294162D01*
X137338078Y-112344310D01*
X137510000Y-112361243D01*
X139490000Y-112361243D01*
X139661922Y-112344310D01*
X139827237Y-112294162D01*
X139979592Y-112212727D01*
X140113133Y-112103133D01*
X140222727Y-111969592D01*
X140304162Y-111817237D01*
X140354310Y-111651922D01*
X140371243Y-111480000D01*
X140371243Y-110441177D01*
X141781851Y-110441177D01*
X141805340Y-110777309D01*
X141893954Y-111102400D01*
X142044287Y-111403957D01*
X142250562Y-111670391D01*
X142603906Y-111845596D01*
X142827000Y-111792674D01*
X142827000Y-110173000D01*
X144173000Y-110173000D01*
X144173000Y-111792674D01*
X144396094Y-111845596D01*
X144749438Y-111670391D01*
X144955713Y-111403957D01*
X145106046Y-111102400D01*
X145194660Y-110777309D01*
X145218149Y-110441177D01*
X145030608Y-110173000D01*
X144173000Y-110173000D01*
X142827000Y-110173000D01*
X141969392Y-110173000D01*
X141781851Y-110441177D01*
X140371243Y-110441177D01*
X140371243Y-108558823D01*
X141781851Y-108558823D01*
X141969392Y-108827000D01*
X142827000Y-108827000D01*
X142827000Y-107207326D01*
X144173000Y-107207326D01*
X144173000Y-108827000D01*
X145030608Y-108827000D01*
X145218149Y-108558823D01*
X145194660Y-108222691D01*
X145106046Y-107897600D01*
X144955713Y-107596043D01*
X144951035Y-107590000D01*
X148920757Y-107590000D01*
X148920757Y-111550000D01*
X148937690Y-111721922D01*
X148987838Y-111887237D01*
X149069273Y-112039592D01*
X149178867Y-112173133D01*
X149312408Y-112282727D01*
X149464763Y-112364162D01*
X149630078Y-112414310D01*
X149802000Y-112431243D01*
X151782000Y-112431243D01*
X151953922Y-112414310D01*
X152119237Y-112364162D01*
X152271592Y-112282727D01*
X152405133Y-112173133D01*
X152514727Y-112039592D01*
X152596162Y-111887237D01*
X152646310Y-111721922D01*
X152663243Y-111550000D01*
X152663243Y-108488286D01*
X153925000Y-108488286D01*
X153925001Y-110651715D01*
X153952015Y-110925996D01*
X154058773Y-111277927D01*
X154232137Y-111602268D01*
X154465445Y-111886556D01*
X154749733Y-112119864D01*
X155074074Y-112293228D01*
X155426005Y-112399986D01*
X155792000Y-112436033D01*
X156157996Y-112399986D01*
X156509927Y-112293228D01*
X156834268Y-112119864D01*
X157118556Y-111886556D01*
X157351864Y-111602268D01*
X157525228Y-111277927D01*
X157631986Y-110925996D01*
X157659000Y-110651715D01*
X157659000Y-108488285D01*
X157631986Y-108214004D01*
X157525228Y-107862073D01*
X157379802Y-107590000D01*
X161366757Y-107590000D01*
X161366757Y-111550000D01*
X161383690Y-111721922D01*
X161433838Y-111887237D01*
X161515273Y-112039592D01*
X161624867Y-112173133D01*
X161758408Y-112282727D01*
X161910763Y-112364162D01*
X162076078Y-112414310D01*
X162248000Y-112431243D01*
X164228000Y-112431243D01*
X164399922Y-112414310D01*
X164565237Y-112364162D01*
X164717592Y-112282727D01*
X164851133Y-112173133D01*
X164960727Y-112039592D01*
X165042162Y-111887237D01*
X165092310Y-111721922D01*
X165109243Y-111550000D01*
X165109243Y-110511177D01*
X166519851Y-110511177D01*
X166543340Y-110847309D01*
X166631954Y-111172400D01*
X166782287Y-111473957D01*
X166988562Y-111740391D01*
X167341906Y-111915596D01*
X167565000Y-111862674D01*
X167565000Y-110243000D01*
X168911000Y-110243000D01*
X168911000Y-111862674D01*
X169134094Y-111915596D01*
X169487438Y-111740391D01*
X169693713Y-111473957D01*
X169844046Y-111172400D01*
X169932660Y-110847309D01*
X169956149Y-110511177D01*
X169768608Y-110243000D01*
X168911000Y-110243000D01*
X167565000Y-110243000D01*
X166707392Y-110243000D01*
X166519851Y-110511177D01*
X165109243Y-110511177D01*
X165109243Y-108628823D01*
X166519851Y-108628823D01*
X166707392Y-108897000D01*
X167565000Y-108897000D01*
X167565000Y-107277326D01*
X168911000Y-107277326D01*
X168911000Y-108897000D01*
X169768608Y-108897000D01*
X169956149Y-108628823D01*
X169932660Y-108292691D01*
X169844046Y-107967600D01*
X169693713Y-107666043D01*
X169487438Y-107399609D01*
X169134094Y-107224404D01*
X168911000Y-107277326D01*
X167565000Y-107277326D01*
X167341906Y-107224404D01*
X166988562Y-107399609D01*
X166782287Y-107666043D01*
X166631954Y-107967600D01*
X166543340Y-108292691D01*
X166519851Y-108628823D01*
X165109243Y-108628823D01*
X165109243Y-107590000D01*
X165092310Y-107418078D01*
X165042162Y-107252763D01*
X164960727Y-107100408D01*
X164851133Y-106966867D01*
X164717592Y-106857273D01*
X164565237Y-106775838D01*
X164399922Y-106725690D01*
X164228000Y-106708757D01*
X162248000Y-106708757D01*
X162076078Y-106725690D01*
X161910763Y-106775838D01*
X161758408Y-106857273D01*
X161624867Y-106966867D01*
X161515273Y-107100408D01*
X161433838Y-107252763D01*
X161383690Y-107418078D01*
X161366757Y-107590000D01*
X157379802Y-107590000D01*
X157351864Y-107537732D01*
X157118556Y-107253444D01*
X156834267Y-107020136D01*
X156509926Y-106846772D01*
X156157995Y-106740014D01*
X155792000Y-106703967D01*
X155426004Y-106740014D01*
X155074073Y-106846772D01*
X154749732Y-107020136D01*
X154465444Y-107253444D01*
X154232136Y-107537733D01*
X154058772Y-107862074D01*
X153952014Y-108214005D01*
X153925000Y-108488286D01*
X152663243Y-108488286D01*
X152663243Y-107590000D01*
X152646310Y-107418078D01*
X152596162Y-107252763D01*
X152514727Y-107100408D01*
X152405133Y-106966867D01*
X152271592Y-106857273D01*
X152119237Y-106775838D01*
X151953922Y-106725690D01*
X151782000Y-106708757D01*
X149802000Y-106708757D01*
X149630078Y-106725690D01*
X149464763Y-106775838D01*
X149312408Y-106857273D01*
X149178867Y-106966867D01*
X149069273Y-107100408D01*
X148987838Y-107252763D01*
X148937690Y-107418078D01*
X148920757Y-107590000D01*
X144951035Y-107590000D01*
X144749438Y-107329609D01*
X144396094Y-107154404D01*
X144173000Y-107207326D01*
X142827000Y-107207326D01*
X142603906Y-107154404D01*
X142250562Y-107329609D01*
X142044287Y-107596043D01*
X141893954Y-107897600D01*
X141805340Y-108222691D01*
X141781851Y-108558823D01*
X140371243Y-108558823D01*
X140371243Y-107520000D01*
X140354310Y-107348078D01*
X140304162Y-107182763D01*
X140222727Y-107030408D01*
X140113133Y-106896867D01*
X139979592Y-106787273D01*
X139827237Y-106705838D01*
X139661922Y-106655690D01*
X139490000Y-106638757D01*
X137510000Y-106638757D01*
X137338078Y-106655690D01*
X137172763Y-106705838D01*
X137020408Y-106787273D01*
X136886867Y-106896867D01*
X136777273Y-107030408D01*
X136695838Y-107182763D01*
X136645690Y-107348078D01*
X136628757Y-107520000D01*
X132592646Y-107520000D01*
X132499438Y-107399609D01*
X132146094Y-107224404D01*
X131923000Y-107277326D01*
X130577000Y-107277326D01*
X130353906Y-107224404D01*
X130000562Y-107399609D01*
X129794287Y-107666043D01*
X129643954Y-107967600D01*
X129555340Y-108292691D01*
X129531851Y-108628823D01*
X128121243Y-108628823D01*
X128121243Y-107590000D01*
X128104310Y-107418078D01*
X128054162Y-107252763D01*
X127972727Y-107100408D01*
X127863133Y-106966867D01*
X127729592Y-106857273D01*
X127577237Y-106775838D01*
X127411922Y-106725690D01*
X127240000Y-106708757D01*
X125260000Y-106708757D01*
X125088078Y-106725690D01*
X124922763Y-106775838D01*
X124770408Y-106857273D01*
X124636867Y-106966867D01*
X124527273Y-107100408D01*
X124445838Y-107252763D01*
X124395690Y-107418078D01*
X124378757Y-107590000D01*
X120487802Y-107590000D01*
X120459864Y-107537732D01*
X120226556Y-107253444D01*
X119942267Y-107020136D01*
X119617926Y-106846772D01*
X119265995Y-106740014D01*
X118900000Y-106703967D01*
X118534004Y-106740014D01*
X118182073Y-106846772D01*
X117857732Y-107020136D01*
X117573444Y-107253444D01*
X117340136Y-107537733D01*
X117166772Y-107862074D01*
X117060014Y-108214005D01*
X117033000Y-108488286D01*
X115771243Y-108488286D01*
X115771243Y-107590000D01*
X115754310Y-107418078D01*
X115704162Y-107252763D01*
X115622727Y-107100408D01*
X115513133Y-106966867D01*
X115379592Y-106857273D01*
X115227237Y-106775838D01*
X115061922Y-106725690D01*
X114890000Y-106708757D01*
X112910000Y-106708757D01*
X112738078Y-106725690D01*
X112572763Y-106775838D01*
X112420408Y-106857273D01*
X112286867Y-106966867D01*
X112177273Y-107100408D01*
X112095838Y-107252763D01*
X112045690Y-107418078D01*
X112028757Y-107590000D01*
X108295802Y-107590000D01*
X108267864Y-107537732D01*
X108034556Y-107253444D01*
X107750267Y-107020136D01*
X107425926Y-106846772D01*
X107073995Y-106740014D01*
X106708000Y-106703967D01*
X106342004Y-106740014D01*
X105990073Y-106846772D01*
X105665732Y-107020136D01*
X105381444Y-107253444D01*
X105148136Y-107537733D01*
X104974772Y-107862074D01*
X104868014Y-108214005D01*
X104841000Y-108488286D01*
X103579243Y-108488286D01*
X103579243Y-107590000D01*
X103562310Y-107418078D01*
X103512162Y-107252763D01*
X103430727Y-107100408D01*
X103321133Y-106966867D01*
X103187592Y-106857273D01*
X103035237Y-106775838D01*
X102869922Y-106725690D01*
X102698000Y-106708757D01*
X100718000Y-106708757D01*
X100546078Y-106725690D01*
X100380763Y-106775838D01*
X100228408Y-106857273D01*
X100094867Y-106966867D01*
X99985273Y-107100408D01*
X99903838Y-107252763D01*
X99853690Y-107418078D01*
X99836757Y-107590000D01*
X85660000Y-107590000D01*
X85660000Y-97186000D01*
X92609967Y-97186000D01*
X92646014Y-97551996D01*
X92752772Y-97903927D01*
X92926136Y-98228268D01*
X93159444Y-98512556D01*
X93443732Y-98745864D01*
X93768073Y-98919228D01*
X94120004Y-99025986D01*
X94394285Y-99053000D01*
X96557715Y-99053000D01*
X96831996Y-99025986D01*
X97183927Y-98919228D01*
X97508268Y-98745864D01*
X97792556Y-98512556D01*
X98025864Y-98228268D01*
X98123822Y-98045000D01*
X103907757Y-98045000D01*
X103907757Y-100245000D01*
X103924690Y-100416922D01*
X103974838Y-100582237D01*
X104056273Y-100734592D01*
X104165867Y-100868133D01*
X104299408Y-100977727D01*
X104451763Y-101059162D01*
X104617078Y-101109310D01*
X104789000Y-101126243D01*
X105022600Y-101126243D01*
X105022074Y-101127513D01*
X104973000Y-101374226D01*
X104973000Y-101625774D01*
X105022074Y-101872487D01*
X105118337Y-102104886D01*
X105258089Y-102314040D01*
X105435960Y-102491911D01*
X105645114Y-102631663D01*
X105877513Y-102727926D01*
X106124226Y-102777000D01*
X106375774Y-102777000D01*
X106622487Y-102727926D01*
X106854886Y-102631663D01*
X107064040Y-102491911D01*
X107241911Y-102314040D01*
X107381663Y-102104886D01*
X107477926Y-101872487D01*
X107527000Y-101625774D01*
X107527000Y-101374226D01*
X107477926Y-101127513D01*
X107381663Y-100895114D01*
X107377000Y-100888135D01*
X107377000Y-100237854D01*
X108710968Y-100237854D01*
X108721834Y-100362466D01*
X108756801Y-100482563D01*
X108814526Y-100593530D01*
X108892791Y-100691104D01*
X108988587Y-100771534D01*
X109098234Y-100831730D01*
X109217518Y-100869378D01*
X109317250Y-100880000D01*
X109476000Y-100721250D01*
X109476000Y-99818000D01*
X110422000Y-99818000D01*
X110422000Y-100721250D01*
X110580750Y-100880000D01*
X110680482Y-100869378D01*
X110799766Y-100831730D01*
X110909413Y-100771534D01*
X111005209Y-100691104D01*
X111083474Y-100593530D01*
X111141199Y-100482563D01*
X111176166Y-100362466D01*
X111187032Y-100237854D01*
X111184000Y-99976750D01*
X111025250Y-99818000D01*
X110422000Y-99818000D01*
X109476000Y-99818000D01*
X108872750Y-99818000D01*
X108714000Y-99976750D01*
X108710968Y-100237854D01*
X107377000Y-100237854D01*
X107377000Y-100061357D01*
X107382452Y-100006000D01*
X107377000Y-99950643D01*
X107377000Y-99950635D01*
X107360693Y-99785069D01*
X107296250Y-99572629D01*
X107191600Y-99376843D01*
X107182644Y-99365930D01*
X107086058Y-99248239D01*
X107086055Y-99248236D01*
X107050765Y-99205235D01*
X107007764Y-99169945D01*
X106870243Y-99032424D01*
X106870243Y-98052146D01*
X108710968Y-98052146D01*
X108714000Y-98313250D01*
X108872750Y-98472000D01*
X109476000Y-98472000D01*
X109476000Y-97568750D01*
X110422000Y-97568750D01*
X110422000Y-98472000D01*
X111025250Y-98472000D01*
X111184000Y-98313250D01*
X111186708Y-98080000D01*
X113050757Y-98080000D01*
X113050757Y-100280000D01*
X113067690Y-100451922D01*
X113117838Y-100617237D01*
X113199273Y-100769592D01*
X113308867Y-100903133D01*
X113442408Y-101012727D01*
X113594763Y-101094162D01*
X113759836Y-101144237D01*
X113774237Y-101156055D01*
X114312437Y-101694255D01*
X114314074Y-101702487D01*
X114410337Y-101934886D01*
X114550089Y-102144040D01*
X114727960Y-102321911D01*
X114937114Y-102461663D01*
X115169513Y-102557926D01*
X115416226Y-102607000D01*
X115667774Y-102607000D01*
X115914487Y-102557926D01*
X116146886Y-102461663D01*
X116356040Y-102321911D01*
X116533911Y-102144040D01*
X116673663Y-101934886D01*
X116769926Y-101702487D01*
X116819000Y-101455774D01*
X116819000Y-101204226D01*
X116769926Y-100957513D01*
X116673663Y-100725114D01*
X116533911Y-100515960D01*
X116356040Y-100338089D01*
X116258409Y-100272854D01*
X117853968Y-100272854D01*
X117864834Y-100397466D01*
X117899801Y-100517563D01*
X117957526Y-100628530D01*
X118035791Y-100726104D01*
X118131587Y-100806534D01*
X118241234Y-100866730D01*
X118360518Y-100904378D01*
X118460250Y-100915000D01*
X118619000Y-100756250D01*
X118619000Y-99853000D01*
X119565000Y-99853000D01*
X119565000Y-100756250D01*
X119723750Y-100915000D01*
X119823482Y-100904378D01*
X119942766Y-100866730D01*
X120052413Y-100806534D01*
X120148209Y-100726104D01*
X120226474Y-100628530D01*
X120284199Y-100517563D01*
X120319166Y-100397466D01*
X120330032Y-100272854D01*
X120327000Y-100011750D01*
X120168250Y-99853000D01*
X119565000Y-99853000D01*
X118619000Y-99853000D01*
X118015750Y-99853000D01*
X117857000Y-100011750D01*
X117853968Y-100272854D01*
X116258409Y-100272854D01*
X116146886Y-100198337D01*
X116013243Y-100142980D01*
X116013243Y-98087146D01*
X117853968Y-98087146D01*
X117857000Y-98348250D01*
X118015750Y-98507000D01*
X118619000Y-98507000D01*
X118619000Y-97603750D01*
X119565000Y-97603750D01*
X119565000Y-98507000D01*
X120168250Y-98507000D01*
X120327000Y-98348250D01*
X120330032Y-98087146D01*
X120329409Y-98080000D01*
X122194757Y-98080000D01*
X122194757Y-100280000D01*
X122211690Y-100451922D01*
X122261838Y-100617237D01*
X122343273Y-100769592D01*
X122452867Y-100903133D01*
X122586408Y-101012727D01*
X122738763Y-101094162D01*
X122904078Y-101144310D01*
X123016530Y-101155386D01*
X122973000Y-101374226D01*
X122973000Y-101625774D01*
X123022074Y-101872487D01*
X123118337Y-102104886D01*
X123258089Y-102314040D01*
X123435960Y-102491911D01*
X123645114Y-102631663D01*
X123877513Y-102727926D01*
X124124226Y-102777000D01*
X124375774Y-102777000D01*
X124622487Y-102727926D01*
X124854886Y-102631663D01*
X125064040Y-102491911D01*
X125241911Y-102314040D01*
X125381663Y-102104886D01*
X125477926Y-101872487D01*
X125527000Y-101625774D01*
X125527000Y-101374226D01*
X125477926Y-101127513D01*
X125381663Y-100895114D01*
X125377000Y-100888135D01*
X125377000Y-100272854D01*
X126997968Y-100272854D01*
X127008834Y-100397466D01*
X127043801Y-100517563D01*
X127101526Y-100628530D01*
X127179791Y-100726104D01*
X127275587Y-100806534D01*
X127385234Y-100866730D01*
X127504518Y-100904378D01*
X127604250Y-100915000D01*
X127763000Y-100756250D01*
X127763000Y-99853000D01*
X128709000Y-99853000D01*
X128709000Y-100756250D01*
X128867750Y-100915000D01*
X128967482Y-100904378D01*
X129086766Y-100866730D01*
X129196413Y-100806534D01*
X129292209Y-100726104D01*
X129370474Y-100628530D01*
X129428199Y-100517563D01*
X129463166Y-100397466D01*
X129474032Y-100272854D01*
X129471000Y-100011750D01*
X129312250Y-99853000D01*
X128709000Y-99853000D01*
X127763000Y-99853000D01*
X127159750Y-99853000D01*
X127001000Y-100011750D01*
X126997968Y-100272854D01*
X125377000Y-100272854D01*
X125377000Y-99809364D01*
X125382453Y-99754000D01*
X125360693Y-99533069D01*
X125296250Y-99320629D01*
X125273678Y-99278400D01*
X125191600Y-99124843D01*
X125157243Y-99082979D01*
X125157243Y-98087146D01*
X126997968Y-98087146D01*
X127001000Y-98348250D01*
X127159750Y-98507000D01*
X127763000Y-98507000D01*
X127763000Y-97603750D01*
X128709000Y-97603750D01*
X128709000Y-98507000D01*
X129312250Y-98507000D01*
X129471000Y-98348250D01*
X129474032Y-98087146D01*
X129473409Y-98080000D01*
X131338757Y-98080000D01*
X131338757Y-100280000D01*
X131355690Y-100451922D01*
X131405838Y-100617237D01*
X131487273Y-100769592D01*
X131596867Y-100903133D01*
X131730408Y-101012727D01*
X131882763Y-101094162D01*
X132020403Y-101135915D01*
X131973000Y-101374226D01*
X131973000Y-101625774D01*
X132022074Y-101872487D01*
X132118337Y-102104886D01*
X132258089Y-102314040D01*
X132435960Y-102491911D01*
X132645114Y-102631663D01*
X132877513Y-102727926D01*
X133124226Y-102777000D01*
X133375774Y-102777000D01*
X133622487Y-102727926D01*
X133854886Y-102631663D01*
X134064040Y-102491911D01*
X134241911Y-102314040D01*
X134381663Y-102104886D01*
X134477926Y-101872487D01*
X134527000Y-101625774D01*
X134527000Y-101374226D01*
X134477926Y-101127513D01*
X134381663Y-100895114D01*
X134377000Y-100888135D01*
X134377000Y-100272854D01*
X136141968Y-100272854D01*
X136152834Y-100397466D01*
X136187801Y-100517563D01*
X136245526Y-100628530D01*
X136323791Y-100726104D01*
X136419587Y-100806534D01*
X136529234Y-100866730D01*
X136648518Y-100904378D01*
X136748250Y-100915000D01*
X136907000Y-100756250D01*
X136907000Y-99853000D01*
X137853000Y-99853000D01*
X137853000Y-100756250D01*
X138011750Y-100915000D01*
X138111482Y-100904378D01*
X138230766Y-100866730D01*
X138340413Y-100806534D01*
X138436209Y-100726104D01*
X138514474Y-100628530D01*
X138572199Y-100517563D01*
X138607166Y-100397466D01*
X138618032Y-100272854D01*
X138615000Y-100011750D01*
X138456250Y-99853000D01*
X137853000Y-99853000D01*
X136907000Y-99853000D01*
X136303750Y-99853000D01*
X136145000Y-100011750D01*
X136141968Y-100272854D01*
X134377000Y-100272854D01*
X134377000Y-99665357D01*
X134382452Y-99610000D01*
X134377000Y-99554643D01*
X134377000Y-99554635D01*
X134360693Y-99389069D01*
X134301243Y-99193089D01*
X134301243Y-98087146D01*
X136141968Y-98087146D01*
X136145000Y-98348250D01*
X136303750Y-98507000D01*
X136907000Y-98507000D01*
X136907000Y-97603750D01*
X137853000Y-97603750D01*
X137853000Y-98507000D01*
X138456250Y-98507000D01*
X138615000Y-98348250D01*
X138615165Y-98334000D01*
X140482757Y-98334000D01*
X140482757Y-100534000D01*
X140499690Y-100705922D01*
X140549838Y-100871237D01*
X140631273Y-101023592D01*
X140740867Y-101157133D01*
X140874408Y-101266727D01*
X141026763Y-101348162D01*
X141192078Y-101398310D01*
X141364000Y-101415243D01*
X141473000Y-101415243D01*
X141473000Y-101625774D01*
X141522074Y-101872487D01*
X141618337Y-102104886D01*
X141758089Y-102314040D01*
X141935960Y-102491911D01*
X142145114Y-102631663D01*
X142377513Y-102727926D01*
X142624226Y-102777000D01*
X142875774Y-102777000D01*
X143122487Y-102727926D01*
X143354886Y-102631663D01*
X143564040Y-102491911D01*
X143741911Y-102314040D01*
X143881663Y-102104886D01*
X143977926Y-101872487D01*
X144027000Y-101625774D01*
X144027000Y-101374226D01*
X143977926Y-101127513D01*
X143881663Y-100895114D01*
X143877000Y-100888135D01*
X143877000Y-100526854D01*
X145285968Y-100526854D01*
X145296834Y-100651466D01*
X145331801Y-100771563D01*
X145389526Y-100882530D01*
X145467791Y-100980104D01*
X145563587Y-101060534D01*
X145673234Y-101120730D01*
X145792518Y-101158378D01*
X145892250Y-101169000D01*
X146051000Y-101010250D01*
X146051000Y-100107000D01*
X146997000Y-100107000D01*
X146997000Y-101010250D01*
X147155750Y-101169000D01*
X147255482Y-101158378D01*
X147374766Y-101120730D01*
X147484413Y-101060534D01*
X147580209Y-100980104D01*
X147658474Y-100882530D01*
X147716199Y-100771563D01*
X147751166Y-100651466D01*
X147762032Y-100526854D01*
X147759000Y-100265750D01*
X147600250Y-100107000D01*
X146997000Y-100107000D01*
X146051000Y-100107000D01*
X145447750Y-100107000D01*
X145289000Y-100265750D01*
X145285968Y-100526854D01*
X143877000Y-100526854D01*
X143877000Y-100275357D01*
X143882452Y-100220000D01*
X143877000Y-100164643D01*
X143877000Y-100164635D01*
X143860693Y-99999069D01*
X143796250Y-99786629D01*
X143691600Y-99590843D01*
X143586378Y-99462629D01*
X143586058Y-99462239D01*
X143586055Y-99462236D01*
X143550765Y-99419235D01*
X143507764Y-99383945D01*
X143445243Y-99321424D01*
X143445243Y-98341146D01*
X145285968Y-98341146D01*
X145289000Y-98602250D01*
X145447750Y-98761000D01*
X146051000Y-98761000D01*
X146051000Y-97857750D01*
X146997000Y-97857750D01*
X146997000Y-98761000D01*
X147600250Y-98761000D01*
X147759000Y-98602250D01*
X147762032Y-98341146D01*
X147758357Y-98299000D01*
X149625757Y-98299000D01*
X149625757Y-100499000D01*
X149642690Y-100670922D01*
X149692838Y-100836237D01*
X149774273Y-100988592D01*
X149883867Y-101122133D01*
X150017408Y-101231727D01*
X150169763Y-101313162D01*
X150335078Y-101363310D01*
X150473000Y-101376894D01*
X150473000Y-101625774D01*
X150522074Y-101872487D01*
X150618337Y-102104886D01*
X150758089Y-102314040D01*
X150935960Y-102491911D01*
X151145114Y-102631663D01*
X151377513Y-102727926D01*
X151624226Y-102777000D01*
X151875774Y-102777000D01*
X152122487Y-102727926D01*
X152354886Y-102631663D01*
X152564040Y-102491911D01*
X152741911Y-102314040D01*
X152881663Y-102104886D01*
X152977926Y-101872487D01*
X153027000Y-101625774D01*
X153027000Y-101374226D01*
X152977926Y-101127513D01*
X152881663Y-100895114D01*
X152877000Y-100888135D01*
X152877000Y-100491854D01*
X154428968Y-100491854D01*
X154439834Y-100616466D01*
X154474801Y-100736563D01*
X154532526Y-100847530D01*
X154610791Y-100945104D01*
X154706587Y-101025534D01*
X154816234Y-101085730D01*
X154935518Y-101123378D01*
X155035250Y-101134000D01*
X155194000Y-100975250D01*
X155194000Y-100072000D01*
X156140000Y-100072000D01*
X156140000Y-100975250D01*
X156298750Y-101134000D01*
X156398482Y-101123378D01*
X156517766Y-101085730D01*
X156627413Y-101025534D01*
X156723209Y-100945104D01*
X156801474Y-100847530D01*
X156859199Y-100736563D01*
X156894166Y-100616466D01*
X156905032Y-100491854D01*
X156902000Y-100230750D01*
X156743250Y-100072000D01*
X156140000Y-100072000D01*
X155194000Y-100072000D01*
X154590750Y-100072000D01*
X154432000Y-100230750D01*
X154428968Y-100491854D01*
X152877000Y-100491854D01*
X152877000Y-100097354D01*
X152882452Y-100041999D01*
X152877000Y-99986645D01*
X152877000Y-99986635D01*
X152860693Y-99821069D01*
X152796250Y-99608629D01*
X152691600Y-99412843D01*
X152588243Y-99286902D01*
X152588243Y-98306146D01*
X154428968Y-98306146D01*
X154432000Y-98567250D01*
X154590750Y-98726000D01*
X155194000Y-98726000D01*
X155194000Y-97822750D01*
X156140000Y-97822750D01*
X156140000Y-98726000D01*
X156743250Y-98726000D01*
X156902000Y-98567250D01*
X156905032Y-98306146D01*
X156904409Y-98299000D01*
X158771757Y-98299000D01*
X158771757Y-100499000D01*
X158788690Y-100670922D01*
X158838838Y-100836237D01*
X158920273Y-100988592D01*
X159029867Y-101122133D01*
X159163408Y-101231727D01*
X159315763Y-101313162D01*
X159475507Y-101361620D01*
X159473000Y-101374226D01*
X159473000Y-101625774D01*
X159522074Y-101872487D01*
X159618337Y-102104886D01*
X159758089Y-102314040D01*
X159935960Y-102491911D01*
X160145114Y-102631663D01*
X160377513Y-102727926D01*
X160624226Y-102777000D01*
X160875774Y-102777000D01*
X161122487Y-102727926D01*
X161354886Y-102631663D01*
X161564040Y-102491911D01*
X161741911Y-102314040D01*
X161881663Y-102104886D01*
X161977926Y-101872487D01*
X162027000Y-101625774D01*
X162027000Y-101374226D01*
X161977926Y-101127513D01*
X161881663Y-100895114D01*
X161877000Y-100888135D01*
X161877000Y-100491854D01*
X163574968Y-100491854D01*
X163585834Y-100616466D01*
X163620801Y-100736563D01*
X163678526Y-100847530D01*
X163756791Y-100945104D01*
X163852587Y-101025534D01*
X163962234Y-101085730D01*
X164081518Y-101123378D01*
X164181250Y-101134000D01*
X164340000Y-100975250D01*
X164340000Y-100072000D01*
X165286000Y-100072000D01*
X165286000Y-100975250D01*
X165444750Y-101134000D01*
X165544482Y-101123378D01*
X165663766Y-101085730D01*
X165773413Y-101025534D01*
X165869209Y-100945104D01*
X165947474Y-100847530D01*
X166005199Y-100736563D01*
X166040166Y-100616466D01*
X166051032Y-100491854D01*
X166048000Y-100230750D01*
X165889250Y-100072000D01*
X165286000Y-100072000D01*
X164340000Y-100072000D01*
X163736750Y-100072000D01*
X163578000Y-100230750D01*
X163574968Y-100491854D01*
X161877000Y-100491854D01*
X161877000Y-99951354D01*
X161882452Y-99895999D01*
X161877000Y-99840645D01*
X161877000Y-99840635D01*
X161860693Y-99675069D01*
X161796250Y-99462629D01*
X161734243Y-99346622D01*
X161734243Y-98306146D01*
X163574968Y-98306146D01*
X163578000Y-98567250D01*
X163736750Y-98726000D01*
X164340000Y-98726000D01*
X164340000Y-97822750D01*
X165286000Y-97822750D01*
X165286000Y-98726000D01*
X165889250Y-98726000D01*
X166048000Y-98567250D01*
X166051032Y-98306146D01*
X166040166Y-98181534D01*
X166005199Y-98061437D01*
X165947474Y-97950470D01*
X165869209Y-97852896D01*
X165773413Y-97772466D01*
X165663766Y-97712270D01*
X165544482Y-97674622D01*
X165444750Y-97664000D01*
X165286000Y-97822750D01*
X164340000Y-97822750D01*
X164181250Y-97664000D01*
X164081518Y-97674622D01*
X163962234Y-97712270D01*
X163852587Y-97772466D01*
X163756791Y-97852896D01*
X163678526Y-97950470D01*
X163620801Y-98061437D01*
X163585834Y-98181534D01*
X163574968Y-98306146D01*
X161734243Y-98306146D01*
X161734243Y-98299000D01*
X161717310Y-98127078D01*
X161667162Y-97961763D01*
X161585727Y-97809408D01*
X161476133Y-97675867D01*
X161342592Y-97566273D01*
X161190237Y-97484838D01*
X161024922Y-97434690D01*
X160853000Y-97417757D01*
X159653000Y-97417757D01*
X159481078Y-97434690D01*
X159315763Y-97484838D01*
X159163408Y-97566273D01*
X159029867Y-97675867D01*
X158920273Y-97809408D01*
X158838838Y-97961763D01*
X158788690Y-98127078D01*
X158771757Y-98299000D01*
X156904409Y-98299000D01*
X156894166Y-98181534D01*
X156859199Y-98061437D01*
X156801474Y-97950470D01*
X156723209Y-97852896D01*
X156627413Y-97772466D01*
X156517766Y-97712270D01*
X156398482Y-97674622D01*
X156298750Y-97664000D01*
X156140000Y-97822750D01*
X155194000Y-97822750D01*
X155035250Y-97664000D01*
X154935518Y-97674622D01*
X154816234Y-97712270D01*
X154706587Y-97772466D01*
X154610791Y-97852896D01*
X154532526Y-97950470D01*
X154474801Y-98061437D01*
X154439834Y-98181534D01*
X154428968Y-98306146D01*
X152588243Y-98306146D01*
X152588243Y-98299000D01*
X152571310Y-98127078D01*
X152521162Y-97961763D01*
X152439727Y-97809408D01*
X152330133Y-97675867D01*
X152196592Y-97566273D01*
X152044237Y-97484838D01*
X151878922Y-97434690D01*
X151707000Y-97417757D01*
X150507000Y-97417757D01*
X150335078Y-97434690D01*
X150169763Y-97484838D01*
X150017408Y-97566273D01*
X149883867Y-97675867D01*
X149774273Y-97809408D01*
X149692838Y-97961763D01*
X149642690Y-98127078D01*
X149625757Y-98299000D01*
X147758357Y-98299000D01*
X147751166Y-98216534D01*
X147716199Y-98096437D01*
X147658474Y-97985470D01*
X147580209Y-97887896D01*
X147484413Y-97807466D01*
X147374766Y-97747270D01*
X147255482Y-97709622D01*
X147155750Y-97699000D01*
X146997000Y-97857750D01*
X146051000Y-97857750D01*
X145892250Y-97699000D01*
X145792518Y-97709622D01*
X145673234Y-97747270D01*
X145563587Y-97807466D01*
X145467791Y-97887896D01*
X145389526Y-97985470D01*
X145331801Y-98096437D01*
X145296834Y-98216534D01*
X145285968Y-98341146D01*
X143445243Y-98341146D01*
X143445243Y-98334000D01*
X143428310Y-98162078D01*
X143378162Y-97996763D01*
X143296727Y-97844408D01*
X143187133Y-97710867D01*
X143053592Y-97601273D01*
X142901237Y-97519838D01*
X142735922Y-97469690D01*
X142564000Y-97452757D01*
X141364000Y-97452757D01*
X141192078Y-97469690D01*
X141026763Y-97519838D01*
X140874408Y-97601273D01*
X140740867Y-97710867D01*
X140631273Y-97844408D01*
X140549838Y-97996763D01*
X140499690Y-98162078D01*
X140482757Y-98334000D01*
X138615165Y-98334000D01*
X138618032Y-98087146D01*
X138607166Y-97962534D01*
X138572199Y-97842437D01*
X138514474Y-97731470D01*
X138436209Y-97633896D01*
X138340413Y-97553466D01*
X138230766Y-97493270D01*
X138111482Y-97455622D01*
X138011750Y-97445000D01*
X137853000Y-97603750D01*
X136907000Y-97603750D01*
X136748250Y-97445000D01*
X136648518Y-97455622D01*
X136529234Y-97493270D01*
X136419587Y-97553466D01*
X136323791Y-97633896D01*
X136245526Y-97731470D01*
X136187801Y-97842437D01*
X136152834Y-97962534D01*
X136141968Y-98087146D01*
X134301243Y-98087146D01*
X134301243Y-98080000D01*
X134284310Y-97908078D01*
X134234162Y-97742763D01*
X134152727Y-97590408D01*
X134043133Y-97456867D01*
X133909592Y-97347273D01*
X133757237Y-97265838D01*
X133591922Y-97215690D01*
X133420000Y-97198757D01*
X132220000Y-97198757D01*
X132048078Y-97215690D01*
X131882763Y-97265838D01*
X131730408Y-97347273D01*
X131596867Y-97456867D01*
X131487273Y-97590408D01*
X131405838Y-97742763D01*
X131355690Y-97908078D01*
X131338757Y-98080000D01*
X129473409Y-98080000D01*
X129463166Y-97962534D01*
X129428199Y-97842437D01*
X129370474Y-97731470D01*
X129292209Y-97633896D01*
X129196413Y-97553466D01*
X129086766Y-97493270D01*
X128967482Y-97455622D01*
X128867750Y-97445000D01*
X128709000Y-97603750D01*
X127763000Y-97603750D01*
X127604250Y-97445000D01*
X127504518Y-97455622D01*
X127385234Y-97493270D01*
X127275587Y-97553466D01*
X127179791Y-97633896D01*
X127101526Y-97731470D01*
X127043801Y-97842437D01*
X127008834Y-97962534D01*
X126997968Y-98087146D01*
X125157243Y-98087146D01*
X125157243Y-98080000D01*
X125140310Y-97908078D01*
X125090162Y-97742763D01*
X125008727Y-97590408D01*
X124899133Y-97456867D01*
X124765592Y-97347273D01*
X124613237Y-97265838D01*
X124447922Y-97215690D01*
X124276000Y-97198757D01*
X123076000Y-97198757D01*
X122904078Y-97215690D01*
X122738763Y-97265838D01*
X122586408Y-97347273D01*
X122452867Y-97456867D01*
X122343273Y-97590408D01*
X122261838Y-97742763D01*
X122211690Y-97908078D01*
X122194757Y-98080000D01*
X120329409Y-98080000D01*
X120319166Y-97962534D01*
X120284199Y-97842437D01*
X120226474Y-97731470D01*
X120148209Y-97633896D01*
X120052413Y-97553466D01*
X119942766Y-97493270D01*
X119823482Y-97455622D01*
X119723750Y-97445000D01*
X119565000Y-97603750D01*
X118619000Y-97603750D01*
X118460250Y-97445000D01*
X118360518Y-97455622D01*
X118241234Y-97493270D01*
X118131587Y-97553466D01*
X118035791Y-97633896D01*
X117957526Y-97731470D01*
X117899801Y-97842437D01*
X117864834Y-97962534D01*
X117853968Y-98087146D01*
X116013243Y-98087146D01*
X116013243Y-98080000D01*
X115996310Y-97908078D01*
X115946162Y-97742763D01*
X115864727Y-97590408D01*
X115755133Y-97456867D01*
X115621592Y-97347273D01*
X115469237Y-97265838D01*
X115303922Y-97215690D01*
X115132000Y-97198757D01*
X113932000Y-97198757D01*
X113760078Y-97215690D01*
X113594763Y-97265838D01*
X113442408Y-97347273D01*
X113308867Y-97456867D01*
X113199273Y-97590408D01*
X113117838Y-97742763D01*
X113067690Y-97908078D01*
X113050757Y-98080000D01*
X111186708Y-98080000D01*
X111187032Y-98052146D01*
X111176166Y-97927534D01*
X111141199Y-97807437D01*
X111083474Y-97696470D01*
X111005209Y-97598896D01*
X110909413Y-97518466D01*
X110799766Y-97458270D01*
X110680482Y-97420622D01*
X110580750Y-97410000D01*
X110422000Y-97568750D01*
X109476000Y-97568750D01*
X109317250Y-97410000D01*
X109217518Y-97420622D01*
X109098234Y-97458270D01*
X108988587Y-97518466D01*
X108892791Y-97598896D01*
X108814526Y-97696470D01*
X108756801Y-97807437D01*
X108721834Y-97927534D01*
X108710968Y-98052146D01*
X106870243Y-98052146D01*
X106870243Y-98045000D01*
X106853310Y-97873078D01*
X106803162Y-97707763D01*
X106721727Y-97555408D01*
X106612133Y-97421867D01*
X106478592Y-97312273D01*
X106326237Y-97230838D01*
X106160922Y-97180690D01*
X105989000Y-97163757D01*
X104789000Y-97163757D01*
X104617078Y-97180690D01*
X104451763Y-97230838D01*
X104299408Y-97312273D01*
X104165867Y-97421867D01*
X104056273Y-97555408D01*
X103974838Y-97707763D01*
X103924690Y-97873078D01*
X103907757Y-98045000D01*
X98123822Y-98045000D01*
X98199228Y-97903927D01*
X98305986Y-97551996D01*
X98342033Y-97186000D01*
X98305986Y-96820004D01*
X98199228Y-96468073D01*
X98025864Y-96143732D01*
X97792556Y-95859444D01*
X97508268Y-95626136D01*
X97183927Y-95452772D01*
X96831996Y-95346014D01*
X96557715Y-95319000D01*
X94394285Y-95319000D01*
X94120004Y-95346014D01*
X93768073Y-95452772D01*
X93443732Y-95626136D01*
X93159444Y-95859444D01*
X92926136Y-96143732D01*
X92752772Y-96468073D01*
X92646014Y-96820004D01*
X92609967Y-97186000D01*
X85660000Y-97186000D01*
X85660000Y-91196000D01*
X92614757Y-91196000D01*
X92614757Y-93176000D01*
X92631690Y-93347922D01*
X92681838Y-93513237D01*
X92763273Y-93665592D01*
X92872867Y-93799133D01*
X93006408Y-93908727D01*
X93158763Y-93990162D01*
X93324078Y-94040310D01*
X93496000Y-94057243D01*
X94464728Y-94057243D01*
X94658094Y-94160599D01*
X95059035Y-94282224D01*
X95371513Y-94313000D01*
X103887757Y-94313000D01*
X103887757Y-96045000D01*
X103904690Y-96216922D01*
X103954838Y-96382237D01*
X104036273Y-96534592D01*
X104145867Y-96668133D01*
X104279408Y-96777727D01*
X104431763Y-96859162D01*
X104597078Y-96909310D01*
X104769000Y-96926243D01*
X110569000Y-96926243D01*
X110740922Y-96909310D01*
X110906237Y-96859162D01*
X111058592Y-96777727D01*
X111192133Y-96668133D01*
X111301727Y-96534592D01*
X111383162Y-96382237D01*
X111433310Y-96216922D01*
X111450243Y-96045000D01*
X111450243Y-89645000D01*
X111433310Y-89473078D01*
X111383162Y-89307763D01*
X111301727Y-89155408D01*
X111192133Y-89021867D01*
X111058592Y-88912273D01*
X110906237Y-88830838D01*
X110740922Y-88780690D01*
X110569000Y-88763757D01*
X104769000Y-88763757D01*
X104597078Y-88780690D01*
X104431763Y-88830838D01*
X104279408Y-88912273D01*
X104145867Y-89021867D01*
X104036273Y-89155408D01*
X103954838Y-89307763D01*
X103904690Y-89473078D01*
X103887757Y-89645000D01*
X103887757Y-90059000D01*
X95371513Y-90059000D01*
X95059035Y-90089776D01*
X94658094Y-90211401D01*
X94464728Y-90314757D01*
X93496000Y-90314757D01*
X93324078Y-90331690D01*
X93158763Y-90381838D01*
X93006408Y-90463273D01*
X92872867Y-90572867D01*
X92763273Y-90706408D01*
X92681838Y-90858763D01*
X92631690Y-91024078D01*
X92614757Y-91196000D01*
X85660000Y-91196000D01*
X85660000Y-76490110D01*
X86823000Y-76490110D01*
X86823000Y-77509890D01*
X87021949Y-78510075D01*
X87412202Y-79452229D01*
X87978762Y-80300145D01*
X88699855Y-81021238D01*
X89547771Y-81587798D01*
X90489925Y-81978051D01*
X91490110Y-82177000D01*
X92509890Y-82177000D01*
X93510075Y-81978051D01*
X94452229Y-81587798D01*
X94595600Y-81492000D01*
X106158709Y-81492000D01*
X106169000Y-81596485D01*
X106169000Y-81596487D01*
X106199776Y-81908965D01*
X106321401Y-82309906D01*
X106518908Y-82679415D01*
X106784708Y-83003293D01*
X106865870Y-83069901D01*
X113112082Y-89316114D01*
X113097838Y-89342763D01*
X113047690Y-89508078D01*
X113030757Y-89680000D01*
X113030757Y-96080000D01*
X113047690Y-96251922D01*
X113097838Y-96417237D01*
X113179273Y-96569592D01*
X113288867Y-96703133D01*
X113422408Y-96812727D01*
X113574763Y-96894162D01*
X113740078Y-96944310D01*
X113912000Y-96961243D01*
X119712000Y-96961243D01*
X119883922Y-96944310D01*
X120049237Y-96894162D01*
X120201592Y-96812727D01*
X120335133Y-96703133D01*
X120444727Y-96569592D01*
X120526162Y-96417237D01*
X120576310Y-96251922D01*
X120593243Y-96080000D01*
X120593243Y-89680000D01*
X120576310Y-89508078D01*
X120526162Y-89342763D01*
X120444727Y-89190408D01*
X120335133Y-89056867D01*
X120201592Y-88947273D01*
X120049237Y-88865838D01*
X119883922Y-88815690D01*
X119712000Y-88798757D01*
X118571180Y-88798757D01*
X118389899Y-88577867D01*
X118323293Y-88496707D01*
X118242131Y-88430099D01*
X115054032Y-85242000D01*
X118604709Y-85242000D01*
X118615000Y-85346485D01*
X118615000Y-85346486D01*
X118645776Y-85658964D01*
X118767401Y-86059905D01*
X118964907Y-86429415D01*
X119230707Y-86753293D01*
X119311874Y-86819905D01*
X122174757Y-89682789D01*
X122174757Y-96080000D01*
X122191690Y-96251922D01*
X122241838Y-96417237D01*
X122323273Y-96569592D01*
X122432867Y-96703133D01*
X122566408Y-96812727D01*
X122718763Y-96894162D01*
X122884078Y-96944310D01*
X123056000Y-96961243D01*
X128856000Y-96961243D01*
X129027922Y-96944310D01*
X129193237Y-96894162D01*
X129345592Y-96812727D01*
X129479133Y-96703133D01*
X129588727Y-96569592D01*
X129670162Y-96417237D01*
X129720310Y-96251922D01*
X129737243Y-96080000D01*
X129737243Y-89680000D01*
X129720310Y-89508078D01*
X129670162Y-89342763D01*
X129588727Y-89190408D01*
X129479133Y-89056867D01*
X129345592Y-88947273D01*
X129193237Y-88865838D01*
X129027922Y-88815690D01*
X128856000Y-88798757D01*
X127306789Y-88798757D01*
X124942032Y-86434000D01*
X130796709Y-86434000D01*
X130807000Y-86538485D01*
X130807000Y-86538486D01*
X130837776Y-86850964D01*
X130959401Y-87251905D01*
X131156907Y-87621415D01*
X131422707Y-87945293D01*
X131503874Y-88011905D01*
X132290726Y-88798757D01*
X132200000Y-88798757D01*
X132028078Y-88815690D01*
X131862763Y-88865838D01*
X131710408Y-88947273D01*
X131576867Y-89056867D01*
X131467273Y-89190408D01*
X131385838Y-89342763D01*
X131335690Y-89508078D01*
X131318757Y-89680000D01*
X131318757Y-96080000D01*
X131335690Y-96251922D01*
X131385838Y-96417237D01*
X131467273Y-96569592D01*
X131576867Y-96703133D01*
X131710408Y-96812727D01*
X131862763Y-96894162D01*
X132028078Y-96944310D01*
X132200000Y-96961243D01*
X138000000Y-96961243D01*
X138171922Y-96944310D01*
X138337237Y-96894162D01*
X138489592Y-96812727D01*
X138623133Y-96703133D01*
X138732727Y-96569592D01*
X138814162Y-96417237D01*
X138864310Y-96251922D01*
X138881243Y-96080000D01*
X138881243Y-89934000D01*
X140462757Y-89934000D01*
X140462757Y-96334000D01*
X140479690Y-96505922D01*
X140529838Y-96671237D01*
X140611273Y-96823592D01*
X140720867Y-96957133D01*
X140854408Y-97066727D01*
X141006763Y-97148162D01*
X141172078Y-97198310D01*
X141344000Y-97215243D01*
X147144000Y-97215243D01*
X147315922Y-97198310D01*
X147481237Y-97148162D01*
X147633592Y-97066727D01*
X147767133Y-96957133D01*
X147876727Y-96823592D01*
X147958162Y-96671237D01*
X148008310Y-96505922D01*
X148025243Y-96334000D01*
X148025243Y-89934000D01*
X148021796Y-89899000D01*
X149605757Y-89899000D01*
X149605757Y-96299000D01*
X149622690Y-96470922D01*
X149672838Y-96636237D01*
X149754273Y-96788592D01*
X149863867Y-96922133D01*
X149997408Y-97031727D01*
X150149763Y-97113162D01*
X150315078Y-97163310D01*
X150487000Y-97180243D01*
X156287000Y-97180243D01*
X156458922Y-97163310D01*
X156624237Y-97113162D01*
X156776592Y-97031727D01*
X156910133Y-96922133D01*
X157019727Y-96788592D01*
X157101162Y-96636237D01*
X157151310Y-96470922D01*
X157168243Y-96299000D01*
X157168243Y-89899000D01*
X158751757Y-89899000D01*
X158751757Y-96299000D01*
X158768690Y-96470922D01*
X158818838Y-96636237D01*
X158900273Y-96788592D01*
X159009867Y-96922133D01*
X159143408Y-97031727D01*
X159295763Y-97113162D01*
X159461078Y-97163310D01*
X159633000Y-97180243D01*
X165433000Y-97180243D01*
X165604922Y-97163310D01*
X165770237Y-97113162D01*
X165910855Y-97038000D01*
X171608757Y-97038000D01*
X171608757Y-99018000D01*
X171625690Y-99189922D01*
X171675838Y-99355237D01*
X171757273Y-99507592D01*
X171866867Y-99641133D01*
X172000408Y-99750727D01*
X172152763Y-99832162D01*
X172318078Y-99882310D01*
X172490000Y-99899243D01*
X176450000Y-99899243D01*
X176621922Y-99882310D01*
X176787237Y-99832162D01*
X176939592Y-99750727D01*
X177073133Y-99641133D01*
X177182727Y-99507592D01*
X177264162Y-99355237D01*
X177314310Y-99189922D01*
X177331243Y-99018000D01*
X177331243Y-97038000D01*
X177314310Y-96866078D01*
X177264162Y-96700763D01*
X177182727Y-96548408D01*
X177073133Y-96414867D01*
X176939592Y-96305273D01*
X176787237Y-96223838D01*
X176621922Y-96173690D01*
X176450000Y-96156757D01*
X172490000Y-96156757D01*
X172318078Y-96173690D01*
X172152763Y-96223838D01*
X172000408Y-96305273D01*
X171866867Y-96414867D01*
X171757273Y-96548408D01*
X171675838Y-96700763D01*
X171625690Y-96866078D01*
X171608757Y-97038000D01*
X165910855Y-97038000D01*
X165922592Y-97031727D01*
X166056133Y-96922133D01*
X166165727Y-96788592D01*
X166247162Y-96636237D01*
X166297310Y-96470922D01*
X166314243Y-96299000D01*
X166314243Y-95226000D01*
X174294515Y-95226000D01*
X174399000Y-95236291D01*
X174503485Y-95226000D01*
X174503487Y-95226000D01*
X174815965Y-95195224D01*
X175216906Y-95073599D01*
X175551042Y-94895000D01*
X175551715Y-94895000D01*
X175825996Y-94867986D01*
X176177927Y-94761228D01*
X176502268Y-94587864D01*
X176786556Y-94354556D01*
X177019864Y-94070268D01*
X177193228Y-93745927D01*
X177299986Y-93393996D01*
X177336033Y-93028000D01*
X177299986Y-92662004D01*
X177193228Y-92310073D01*
X177019864Y-91985732D01*
X176786556Y-91701444D01*
X176502268Y-91468136D01*
X176177927Y-91294772D01*
X175825996Y-91188014D01*
X175551715Y-91161000D01*
X175489209Y-91161000D01*
X175287905Y-91053401D01*
X174886965Y-90931777D01*
X174469999Y-90890710D01*
X174053035Y-90931777D01*
X173920438Y-90972000D01*
X166314243Y-90972000D01*
X166314243Y-89899000D01*
X166297310Y-89727078D01*
X166247162Y-89561763D01*
X166165727Y-89409408D01*
X166056133Y-89275867D01*
X165922592Y-89166273D01*
X165770237Y-89084838D01*
X165604922Y-89034690D01*
X165433000Y-89017757D01*
X159633000Y-89017757D01*
X159461078Y-89034690D01*
X159295763Y-89084838D01*
X159143408Y-89166273D01*
X159009867Y-89275867D01*
X158900273Y-89409408D01*
X158818838Y-89561763D01*
X158768690Y-89727078D01*
X158751757Y-89899000D01*
X157168243Y-89899000D01*
X157151310Y-89727078D01*
X157101162Y-89561763D01*
X157019727Y-89409408D01*
X156910133Y-89275867D01*
X156776592Y-89166273D01*
X156624237Y-89084838D01*
X156469985Y-89038046D01*
X158218910Y-87289122D01*
X158241415Y-87277093D01*
X158565293Y-87011293D01*
X158631905Y-86930126D01*
X159002126Y-86559905D01*
X159083293Y-86493293D01*
X159349093Y-86169415D01*
X159546599Y-85799906D01*
X159668224Y-85398965D01*
X159699000Y-85086487D01*
X159699000Y-85086485D01*
X159709291Y-84982000D01*
X159699000Y-84877515D01*
X159699000Y-80397513D01*
X159668224Y-80085035D01*
X159546599Y-79684094D01*
X159439000Y-79482790D01*
X159439000Y-79420285D01*
X159411986Y-79146004D01*
X159305228Y-78794073D01*
X159159802Y-78522000D01*
X160700757Y-78522000D01*
X160700757Y-82482000D01*
X160717690Y-82653922D01*
X160767838Y-82819237D01*
X160849273Y-82971592D01*
X160958867Y-83105133D01*
X161092408Y-83214727D01*
X161244763Y-83296162D01*
X161410078Y-83346310D01*
X161582000Y-83363243D01*
X163562000Y-83363243D01*
X163733922Y-83346310D01*
X163899237Y-83296162D01*
X164051592Y-83214727D01*
X164185133Y-83105133D01*
X164294727Y-82971592D01*
X164376162Y-82819237D01*
X164426310Y-82653922D01*
X164443243Y-82482000D01*
X164443243Y-78522000D01*
X164426310Y-78350078D01*
X164376162Y-78184763D01*
X164294727Y-78032408D01*
X164185133Y-77898867D01*
X164051592Y-77789273D01*
X163899237Y-77707838D01*
X163733922Y-77657690D01*
X163562000Y-77640757D01*
X161582000Y-77640757D01*
X161410078Y-77657690D01*
X161244763Y-77707838D01*
X161092408Y-77789273D01*
X160958867Y-77898867D01*
X160849273Y-78032408D01*
X160767838Y-78184763D01*
X160717690Y-78350078D01*
X160700757Y-78522000D01*
X159159802Y-78522000D01*
X159131864Y-78469732D01*
X158898556Y-78185444D01*
X158614268Y-77952136D01*
X158289927Y-77778772D01*
X157937996Y-77672014D01*
X157572000Y-77635967D01*
X157206005Y-77672014D01*
X156854074Y-77778772D01*
X156529733Y-77952136D01*
X156245445Y-78185444D01*
X156012137Y-78469732D01*
X155838773Y-78794073D01*
X155732015Y-79146004D01*
X155705001Y-79420285D01*
X155705001Y-79482790D01*
X155597402Y-79684094D01*
X155475777Y-80085035D01*
X155445001Y-80397513D01*
X155445000Y-84041964D01*
X155422100Y-84069868D01*
X151956870Y-87535099D01*
X151875708Y-87601707D01*
X151809101Y-87682868D01*
X151609908Y-87925585D01*
X151412401Y-88295095D01*
X151290777Y-88696035D01*
X151259090Y-89017757D01*
X150487000Y-89017757D01*
X150315078Y-89034690D01*
X150149763Y-89084838D01*
X149997408Y-89166273D01*
X149863867Y-89275867D01*
X149754273Y-89409408D01*
X149672838Y-89561763D01*
X149622690Y-89727078D01*
X149605757Y-89899000D01*
X148021796Y-89899000D01*
X148008310Y-89762078D01*
X147958162Y-89596763D01*
X147876727Y-89444408D01*
X147767133Y-89310867D01*
X147633592Y-89201273D01*
X147481237Y-89119838D01*
X147450292Y-89110451D01*
X147476224Y-89024965D01*
X147507000Y-88712487D01*
X147507000Y-88712485D01*
X147517291Y-88608000D01*
X147507000Y-88503515D01*
X147507000Y-80397513D01*
X147476224Y-80085035D01*
X147354599Y-79684094D01*
X147247000Y-79482790D01*
X147247000Y-79420285D01*
X147219986Y-79146004D01*
X147113228Y-78794073D01*
X146967802Y-78522000D01*
X148508757Y-78522000D01*
X148508757Y-82482000D01*
X148525690Y-82653922D01*
X148575838Y-82819237D01*
X148657273Y-82971592D01*
X148766867Y-83105133D01*
X148900408Y-83214727D01*
X149052763Y-83296162D01*
X149218078Y-83346310D01*
X149390000Y-83363243D01*
X151370000Y-83363243D01*
X151541922Y-83346310D01*
X151707237Y-83296162D01*
X151859592Y-83214727D01*
X151993133Y-83105133D01*
X152102727Y-82971592D01*
X152184162Y-82819237D01*
X152234310Y-82653922D01*
X152251243Y-82482000D01*
X152251243Y-78522000D01*
X152234310Y-78350078D01*
X152184162Y-78184763D01*
X152102727Y-78032408D01*
X151993133Y-77898867D01*
X151859592Y-77789273D01*
X151707237Y-77707838D01*
X151541922Y-77657690D01*
X151370000Y-77640757D01*
X149390000Y-77640757D01*
X149218078Y-77657690D01*
X149052763Y-77707838D01*
X148900408Y-77789273D01*
X148766867Y-77898867D01*
X148657273Y-78032408D01*
X148575838Y-78184763D01*
X148525690Y-78350078D01*
X148508757Y-78522000D01*
X146967802Y-78522000D01*
X146939864Y-78469732D01*
X146706556Y-78185444D01*
X146422268Y-77952136D01*
X146097927Y-77778772D01*
X145745996Y-77672014D01*
X145380000Y-77635967D01*
X145014005Y-77672014D01*
X144662074Y-77778772D01*
X144337733Y-77952136D01*
X144053445Y-78185444D01*
X143820137Y-78469732D01*
X143646773Y-78794073D01*
X143540015Y-79146004D01*
X143513001Y-79420285D01*
X143513001Y-79482790D01*
X143405402Y-79684094D01*
X143283777Y-80085035D01*
X143253001Y-80397513D01*
X143253000Y-87726969D01*
X142813870Y-88166099D01*
X142732708Y-88232707D01*
X142666101Y-88313868D01*
X142466908Y-88556585D01*
X142269401Y-88926095D01*
X142230978Y-89052757D01*
X141344000Y-89052757D01*
X141172078Y-89069690D01*
X141006763Y-89119838D01*
X140854408Y-89201273D01*
X140720867Y-89310867D01*
X140611273Y-89444408D01*
X140529838Y-89596763D01*
X140479690Y-89762078D01*
X140462757Y-89934000D01*
X138881243Y-89934000D01*
X138881243Y-89680000D01*
X138864310Y-89508078D01*
X138814162Y-89342763D01*
X138732727Y-89190408D01*
X138623133Y-89056867D01*
X138489592Y-88947273D01*
X138337237Y-88865838D01*
X138171922Y-88815690D01*
X138000000Y-88798757D01*
X137227000Y-88798757D01*
X137227000Y-88704487D01*
X137237291Y-88600000D01*
X137196224Y-88183034D01*
X137074599Y-87782094D01*
X136877093Y-87412584D01*
X136677899Y-87169867D01*
X136611293Y-87088707D01*
X136530131Y-87022099D01*
X135061000Y-85552969D01*
X135061000Y-80397513D01*
X135030224Y-80085035D01*
X134908599Y-79684094D01*
X134801000Y-79482790D01*
X134801000Y-79420285D01*
X134773986Y-79146004D01*
X134667228Y-78794073D01*
X134521802Y-78522000D01*
X136062757Y-78522000D01*
X136062757Y-82482000D01*
X136079690Y-82653922D01*
X136129838Y-82819237D01*
X136211273Y-82971592D01*
X136320867Y-83105133D01*
X136454408Y-83214727D01*
X136606763Y-83296162D01*
X136772078Y-83346310D01*
X136944000Y-83363243D01*
X138924000Y-83363243D01*
X139095922Y-83346310D01*
X139261237Y-83296162D01*
X139413592Y-83214727D01*
X139547133Y-83105133D01*
X139656727Y-82971592D01*
X139738162Y-82819237D01*
X139788310Y-82653922D01*
X139805243Y-82482000D01*
X139805243Y-78522000D01*
X139788310Y-78350078D01*
X139738162Y-78184763D01*
X139656727Y-78032408D01*
X139547133Y-77898867D01*
X139413592Y-77789273D01*
X139261237Y-77707838D01*
X139095922Y-77657690D01*
X138924000Y-77640757D01*
X136944000Y-77640757D01*
X136772078Y-77657690D01*
X136606763Y-77707838D01*
X136454408Y-77789273D01*
X136320867Y-77898867D01*
X136211273Y-78032408D01*
X136129838Y-78184763D01*
X136079690Y-78350078D01*
X136062757Y-78522000D01*
X134521802Y-78522000D01*
X134493864Y-78469732D01*
X134260556Y-78185444D01*
X133976268Y-77952136D01*
X133651927Y-77778772D01*
X133299996Y-77672014D01*
X132934000Y-77635967D01*
X132568005Y-77672014D01*
X132216074Y-77778772D01*
X131891733Y-77952136D01*
X131607445Y-78185444D01*
X131374137Y-78469732D01*
X131200773Y-78794073D01*
X131094015Y-79146004D01*
X131067001Y-79420285D01*
X131067001Y-79482790D01*
X130959402Y-79684094D01*
X130837777Y-80085035D01*
X130807001Y-80397513D01*
X130807000Y-86329515D01*
X130796709Y-86434000D01*
X124942032Y-86434000D01*
X122869000Y-84360969D01*
X122869000Y-80397513D01*
X122838224Y-80085035D01*
X122716599Y-79684094D01*
X122609000Y-79482790D01*
X122609000Y-79420285D01*
X122581986Y-79146004D01*
X122475228Y-78794073D01*
X122329802Y-78522000D01*
X123870757Y-78522000D01*
X123870757Y-82482000D01*
X123887690Y-82653922D01*
X123937838Y-82819237D01*
X124019273Y-82971592D01*
X124128867Y-83105133D01*
X124262408Y-83214727D01*
X124414763Y-83296162D01*
X124580078Y-83346310D01*
X124752000Y-83363243D01*
X126732000Y-83363243D01*
X126903922Y-83346310D01*
X127069237Y-83296162D01*
X127221592Y-83214727D01*
X127355133Y-83105133D01*
X127464727Y-82971592D01*
X127546162Y-82819237D01*
X127596310Y-82653922D01*
X127613243Y-82482000D01*
X127613243Y-78522000D01*
X127596310Y-78350078D01*
X127546162Y-78184763D01*
X127464727Y-78032408D01*
X127355133Y-77898867D01*
X127221592Y-77789273D01*
X127069237Y-77707838D01*
X126903922Y-77657690D01*
X126732000Y-77640757D01*
X124752000Y-77640757D01*
X124580078Y-77657690D01*
X124414763Y-77707838D01*
X124262408Y-77789273D01*
X124128867Y-77898867D01*
X124019273Y-78032408D01*
X123937838Y-78184763D01*
X123887690Y-78350078D01*
X123870757Y-78522000D01*
X122329802Y-78522000D01*
X122301864Y-78469732D01*
X122068556Y-78185444D01*
X121784268Y-77952136D01*
X121459927Y-77778772D01*
X121107996Y-77672014D01*
X120742000Y-77635967D01*
X120376005Y-77672014D01*
X120024074Y-77778772D01*
X119699733Y-77952136D01*
X119415445Y-78185444D01*
X119182137Y-78469732D01*
X119008773Y-78794073D01*
X118902015Y-79146004D01*
X118875001Y-79420285D01*
X118875001Y-79482790D01*
X118767402Y-79684094D01*
X118645777Y-80085035D01*
X118615001Y-80397513D01*
X118615000Y-85137515D01*
X118604709Y-85242000D01*
X115054032Y-85242000D01*
X113175274Y-83363243D01*
X114286000Y-83363243D01*
X114457922Y-83346310D01*
X114623237Y-83296162D01*
X114775592Y-83214727D01*
X114909133Y-83105133D01*
X115018727Y-82971592D01*
X115100162Y-82819237D01*
X115150310Y-82653922D01*
X115167243Y-82482000D01*
X115167243Y-78522000D01*
X115150310Y-78350078D01*
X115100162Y-78184763D01*
X115018727Y-78032408D01*
X114909133Y-77898867D01*
X114775592Y-77789273D01*
X114623237Y-77707838D01*
X114457922Y-77657690D01*
X114286000Y-77640757D01*
X112306000Y-77640757D01*
X112134078Y-77657690D01*
X111968763Y-77707838D01*
X111816408Y-77789273D01*
X111682867Y-77898867D01*
X111573273Y-78032408D01*
X111491838Y-78184763D01*
X111441690Y-78350078D01*
X111424757Y-78522000D01*
X111424757Y-81612726D01*
X110423000Y-80610969D01*
X110423000Y-80397513D01*
X110392224Y-80085035D01*
X110270599Y-79684094D01*
X110163000Y-79482790D01*
X110163000Y-79420285D01*
X110135986Y-79146004D01*
X110029228Y-78794073D01*
X109855864Y-78469732D01*
X109622556Y-78185444D01*
X109338268Y-77952136D01*
X109013927Y-77778772D01*
X108661996Y-77672014D01*
X108296000Y-77635967D01*
X107930005Y-77672014D01*
X107578074Y-77778772D01*
X107253733Y-77952136D01*
X106969445Y-78185444D01*
X106736137Y-78469732D01*
X106562773Y-78794073D01*
X106456015Y-79146004D01*
X106429001Y-79420285D01*
X106429001Y-79482788D01*
X106321401Y-79684095D01*
X106199776Y-80085036D01*
X106169000Y-80397514D01*
X106169000Y-81387515D01*
X106158709Y-81492000D01*
X94595600Y-81492000D01*
X95300145Y-81021238D01*
X96021238Y-80300145D01*
X96587798Y-79452229D01*
X96978051Y-78510075D01*
X97177000Y-77509890D01*
X97177000Y-76490110D01*
X172823000Y-76490110D01*
X172823000Y-77509890D01*
X173021949Y-78510075D01*
X173412202Y-79452229D01*
X173978762Y-80300145D01*
X174699855Y-81021238D01*
X175547771Y-81587798D01*
X176489925Y-81978051D01*
X177490110Y-82177000D01*
X178509890Y-82177000D01*
X179510075Y-81978051D01*
X180452229Y-81587798D01*
X181300145Y-81021238D01*
X182021238Y-80300145D01*
X182587798Y-79452229D01*
X182978051Y-78510075D01*
X183177000Y-77509890D01*
X183177000Y-76490110D01*
X182978051Y-75489925D01*
X182587798Y-74547771D01*
X182021238Y-73699855D01*
X181300145Y-72978762D01*
X180452229Y-72412202D01*
X179510075Y-72021949D01*
X178509890Y-71823000D01*
X177490110Y-71823000D01*
X176489925Y-72021949D01*
X175547771Y-72412202D01*
X174699855Y-72978762D01*
X173978762Y-73699855D01*
X173412202Y-74547771D01*
X173021949Y-75489925D01*
X172823000Y-76490110D01*
X97177000Y-76490110D01*
X96978051Y-75489925D01*
X96587798Y-74547771D01*
X96021238Y-73699855D01*
X95300145Y-72978762D01*
X94452229Y-72412202D01*
X93510075Y-72021949D01*
X92509890Y-71823000D01*
X91490110Y-71823000D01*
X90489925Y-72021949D01*
X89547771Y-72412202D01*
X88699855Y-72978762D01*
X87978762Y-73699855D01*
X87412202Y-74547771D01*
X87021949Y-75489925D01*
X86823000Y-76490110D01*
X85660000Y-76490110D01*
X85660000Y-70660000D01*
X184340001Y-70660000D01*
X184340000Y-119340000D01*
M02*
