G04 #@! TF.GenerationSoftware,KiCad,Pcbnew,(5.1.4)-1*
G04 #@! TF.CreationDate,2019-11-29T00:22:24+00:00*
G04 #@! TF.ProjectId,relay-replacement-board,72656c61-792d-4726-9570-6c6163656d65,rev?*
G04 #@! TF.SameCoordinates,Original*
G04 #@! TF.FileFunction,Soldermask,Top*
G04 #@! TF.FilePolarity,Negative*
%FSLAX46Y46*%
G04 Gerber Fmt 4.6, Leading zero omitted, Abs format (unit mm)*
G04 Created by KiCad (PCBNEW (5.1.4)-1) date 2019-11-29 00:22:24*
%MOMM*%
%LPD*%
G04 APERTURE LIST*
%ADD10C,0.100000*%
G04 APERTURE END LIST*
D10*
G36*
X178548156Y-108672794D02*
G01*
X179269140Y-108816206D01*
X180060972Y-109144193D01*
X180773601Y-109620357D01*
X181379643Y-110226399D01*
X181855807Y-110939028D01*
X182183794Y-111730860D01*
X182351000Y-112571464D01*
X182351000Y-113428536D01*
X182183794Y-114269140D01*
X181855807Y-115060972D01*
X181379643Y-115773601D01*
X180773601Y-116379643D01*
X180060972Y-116855807D01*
X179269140Y-117183794D01*
X178548156Y-117327206D01*
X178428537Y-117351000D01*
X177571463Y-117351000D01*
X177451844Y-117327206D01*
X176730860Y-117183794D01*
X175939028Y-116855807D01*
X175226399Y-116379643D01*
X174620357Y-115773601D01*
X174144193Y-115060972D01*
X173816206Y-114269140D01*
X173649000Y-113428536D01*
X173649000Y-112571464D01*
X173816206Y-111730860D01*
X174144193Y-110939028D01*
X174620357Y-110226399D01*
X175226399Y-109620357D01*
X175939028Y-109144193D01*
X176730860Y-108816206D01*
X177451844Y-108672794D01*
X177571463Y-108649000D01*
X178428537Y-108649000D01*
X178548156Y-108672794D01*
X178548156Y-108672794D01*
G37*
G36*
X92548156Y-108672794D02*
G01*
X93269140Y-108816206D01*
X94060972Y-109144193D01*
X94773601Y-109620357D01*
X95379643Y-110226399D01*
X95855807Y-110939028D01*
X96183794Y-111730860D01*
X96351000Y-112571464D01*
X96351000Y-113428536D01*
X96183794Y-114269140D01*
X95855807Y-115060972D01*
X95379643Y-115773601D01*
X94773601Y-116379643D01*
X94060972Y-116855807D01*
X93269140Y-117183794D01*
X92548156Y-117327206D01*
X92428537Y-117351000D01*
X91571463Y-117351000D01*
X91451844Y-117327206D01*
X90730860Y-117183794D01*
X89939028Y-116855807D01*
X89226399Y-116379643D01*
X88620357Y-115773601D01*
X88144193Y-115060972D01*
X87816206Y-114269140D01*
X87649000Y-113428536D01*
X87649000Y-112571464D01*
X87816206Y-111730860D01*
X88144193Y-110939028D01*
X88620357Y-110226399D01*
X89226399Y-109620357D01*
X89939028Y-109144193D01*
X90730860Y-108816206D01*
X91451844Y-108672794D01*
X91571463Y-108649000D01*
X92428537Y-108649000D01*
X92548156Y-108672794D01*
X92548156Y-108672794D01*
G37*
G36*
X131454071Y-107554063D02*
G01*
X131650300Y-107613589D01*
X131831146Y-107710253D01*
X131872437Y-107744140D01*
X131989660Y-107840340D01*
X132119748Y-107998855D01*
X132178994Y-108109697D01*
X132216411Y-108179699D01*
X132275937Y-108375928D01*
X132291000Y-108528868D01*
X132291000Y-110611132D01*
X132275937Y-110764072D01*
X132216411Y-110960301D01*
X132216410Y-110960303D01*
X132119748Y-111141145D01*
X131989660Y-111299660D01*
X131831145Y-111429748D01*
X131650303Y-111526410D01*
X131650301Y-111526411D01*
X131454072Y-111585937D01*
X131250000Y-111606036D01*
X131045929Y-111585937D01*
X130849700Y-111526411D01*
X130849698Y-111526410D01*
X130668856Y-111429748D01*
X130510341Y-111299660D01*
X130380253Y-111141145D01*
X130283591Y-110960303D01*
X130283590Y-110960301D01*
X130224064Y-110764072D01*
X130209001Y-110611132D01*
X130209000Y-108528869D01*
X130224063Y-108375929D01*
X130283589Y-108179700D01*
X130380253Y-107998854D01*
X130414140Y-107957563D01*
X130510340Y-107840340D01*
X130668855Y-107710252D01*
X130849697Y-107613590D01*
X130849699Y-107613589D01*
X131045928Y-107554063D01*
X131250000Y-107533964D01*
X131454071Y-107554063D01*
X131454071Y-107554063D01*
G37*
G36*
X106912071Y-107554063D02*
G01*
X107108300Y-107613589D01*
X107289146Y-107710253D01*
X107330437Y-107744140D01*
X107447660Y-107840340D01*
X107577748Y-107998855D01*
X107636994Y-108109697D01*
X107674411Y-108179699D01*
X107733937Y-108375928D01*
X107749000Y-108528868D01*
X107749000Y-110611132D01*
X107733937Y-110764072D01*
X107674411Y-110960301D01*
X107674410Y-110960303D01*
X107577748Y-111141145D01*
X107447660Y-111299660D01*
X107289145Y-111429748D01*
X107108303Y-111526410D01*
X107108301Y-111526411D01*
X106912072Y-111585937D01*
X106708000Y-111606036D01*
X106503929Y-111585937D01*
X106307700Y-111526411D01*
X106307698Y-111526410D01*
X106126856Y-111429748D01*
X105968341Y-111299660D01*
X105838253Y-111141145D01*
X105741591Y-110960303D01*
X105741590Y-110960301D01*
X105682064Y-110764072D01*
X105667001Y-110611132D01*
X105667000Y-108528869D01*
X105682063Y-108375929D01*
X105741589Y-108179700D01*
X105838253Y-107998854D01*
X105872140Y-107957563D01*
X105968340Y-107840340D01*
X106126855Y-107710252D01*
X106307697Y-107613590D01*
X106307699Y-107613589D01*
X106503928Y-107554063D01*
X106708000Y-107533964D01*
X106912071Y-107554063D01*
X106912071Y-107554063D01*
G37*
G36*
X168442071Y-107554063D02*
G01*
X168638300Y-107613589D01*
X168819146Y-107710253D01*
X168860437Y-107744140D01*
X168977660Y-107840340D01*
X169107748Y-107998855D01*
X169166994Y-108109697D01*
X169204411Y-108179699D01*
X169263937Y-108375928D01*
X169279000Y-108528868D01*
X169279000Y-110611132D01*
X169263937Y-110764072D01*
X169204411Y-110960301D01*
X169204410Y-110960303D01*
X169107748Y-111141145D01*
X168977660Y-111299660D01*
X168819145Y-111429748D01*
X168638303Y-111526410D01*
X168638301Y-111526411D01*
X168442072Y-111585937D01*
X168238000Y-111606036D01*
X168033929Y-111585937D01*
X167837700Y-111526411D01*
X167837698Y-111526410D01*
X167656856Y-111429748D01*
X167498341Y-111299660D01*
X167368253Y-111141145D01*
X167271591Y-110960303D01*
X167271590Y-110960301D01*
X167212064Y-110764072D01*
X167197001Y-110611132D01*
X167197000Y-108528869D01*
X167212063Y-108375929D01*
X167271589Y-108179700D01*
X167368253Y-107998854D01*
X167402140Y-107957563D01*
X167498340Y-107840340D01*
X167656855Y-107710252D01*
X167837697Y-107613590D01*
X167837699Y-107613589D01*
X168033928Y-107554063D01*
X168238000Y-107533964D01*
X168442071Y-107554063D01*
X168442071Y-107554063D01*
G37*
G36*
X119104071Y-107554063D02*
G01*
X119300300Y-107613589D01*
X119481146Y-107710253D01*
X119522437Y-107744140D01*
X119639660Y-107840340D01*
X119769748Y-107998855D01*
X119828994Y-108109697D01*
X119866411Y-108179699D01*
X119925937Y-108375928D01*
X119941000Y-108528868D01*
X119941000Y-110611132D01*
X119925937Y-110764072D01*
X119866411Y-110960301D01*
X119866410Y-110960303D01*
X119769748Y-111141145D01*
X119639660Y-111299660D01*
X119481145Y-111429748D01*
X119300303Y-111526410D01*
X119300301Y-111526411D01*
X119104072Y-111585937D01*
X118900000Y-111606036D01*
X118695929Y-111585937D01*
X118499700Y-111526411D01*
X118499698Y-111526410D01*
X118318856Y-111429748D01*
X118160341Y-111299660D01*
X118030253Y-111141145D01*
X117933591Y-110960303D01*
X117933590Y-110960301D01*
X117874064Y-110764072D01*
X117859001Y-110611132D01*
X117859000Y-108528869D01*
X117874063Y-108375929D01*
X117933589Y-108179700D01*
X118030253Y-107998854D01*
X118064140Y-107957563D01*
X118160340Y-107840340D01*
X118318855Y-107710252D01*
X118499697Y-107613590D01*
X118499699Y-107613589D01*
X118695928Y-107554063D01*
X118900000Y-107533964D01*
X119104071Y-107554063D01*
X119104071Y-107554063D01*
G37*
G36*
X155996071Y-107554063D02*
G01*
X156192300Y-107613589D01*
X156373146Y-107710253D01*
X156414437Y-107744140D01*
X156531660Y-107840340D01*
X156661748Y-107998855D01*
X156720994Y-108109697D01*
X156758411Y-108179699D01*
X156817937Y-108375928D01*
X156833000Y-108528868D01*
X156833000Y-110611132D01*
X156817937Y-110764072D01*
X156758411Y-110960301D01*
X156758410Y-110960303D01*
X156661748Y-111141145D01*
X156531660Y-111299660D01*
X156373145Y-111429748D01*
X156192303Y-111526410D01*
X156192301Y-111526411D01*
X155996072Y-111585937D01*
X155792000Y-111606036D01*
X155587929Y-111585937D01*
X155391700Y-111526411D01*
X155391698Y-111526410D01*
X155210856Y-111429748D01*
X155052341Y-111299660D01*
X154922253Y-111141145D01*
X154825591Y-110960303D01*
X154825590Y-110960301D01*
X154766064Y-110764072D01*
X154751001Y-110611132D01*
X154751000Y-108528869D01*
X154766063Y-108375929D01*
X154825589Y-108179700D01*
X154922253Y-107998854D01*
X154956140Y-107957563D01*
X155052340Y-107840340D01*
X155210855Y-107710252D01*
X155391697Y-107613590D01*
X155391699Y-107613589D01*
X155587928Y-107554063D01*
X155792000Y-107533964D01*
X155996071Y-107554063D01*
X155996071Y-107554063D01*
G37*
G36*
X151833000Y-111601000D02*
G01*
X149751000Y-111601000D01*
X149751000Y-107539000D01*
X151833000Y-107539000D01*
X151833000Y-111601000D01*
X151833000Y-111601000D01*
G37*
G36*
X114941000Y-111601000D02*
G01*
X112859000Y-111601000D01*
X112859000Y-107539000D01*
X114941000Y-107539000D01*
X114941000Y-111601000D01*
X114941000Y-111601000D01*
G37*
G36*
X164279000Y-111601000D02*
G01*
X162197000Y-111601000D01*
X162197000Y-107539000D01*
X164279000Y-107539000D01*
X164279000Y-111601000D01*
X164279000Y-111601000D01*
G37*
G36*
X127291000Y-111601000D02*
G01*
X125209000Y-111601000D01*
X125209000Y-107539000D01*
X127291000Y-107539000D01*
X127291000Y-111601000D01*
X127291000Y-111601000D01*
G37*
G36*
X102749000Y-111601000D02*
G01*
X100667000Y-111601000D01*
X100667000Y-107539000D01*
X102749000Y-107539000D01*
X102749000Y-111601000D01*
X102749000Y-111601000D01*
G37*
G36*
X143704071Y-107484063D02*
G01*
X143900300Y-107543589D01*
X144081146Y-107640253D01*
X144122437Y-107674140D01*
X144239660Y-107770340D01*
X144369748Y-107928855D01*
X144407164Y-107998856D01*
X144466411Y-108109699D01*
X144525937Y-108305928D01*
X144541000Y-108458868D01*
X144541000Y-110541132D01*
X144525937Y-110694072D01*
X144466411Y-110890301D01*
X144466410Y-110890303D01*
X144369748Y-111071145D01*
X144239660Y-111229660D01*
X144081145Y-111359748D01*
X143950186Y-111429747D01*
X143900301Y-111456411D01*
X143704072Y-111515937D01*
X143500000Y-111536036D01*
X143295929Y-111515937D01*
X143099700Y-111456411D01*
X143049815Y-111429747D01*
X142918856Y-111359748D01*
X142760341Y-111229660D01*
X142630253Y-111071145D01*
X142533591Y-110890303D01*
X142533590Y-110890301D01*
X142474064Y-110694072D01*
X142459001Y-110541132D01*
X142459000Y-108458869D01*
X142474063Y-108305929D01*
X142533589Y-108109700D01*
X142630253Y-107928854D01*
X142664140Y-107887563D01*
X142760340Y-107770340D01*
X142918855Y-107640252D01*
X143099697Y-107543590D01*
X143099699Y-107543589D01*
X143295928Y-107484063D01*
X143500000Y-107463964D01*
X143704071Y-107484063D01*
X143704071Y-107484063D01*
G37*
G36*
X139541000Y-111531000D02*
G01*
X137459000Y-111531000D01*
X137459000Y-107469000D01*
X139541000Y-107469000D01*
X139541000Y-111531000D01*
X139541000Y-111531000D01*
G37*
G36*
X142615000Y-100585000D02*
G01*
X141313000Y-100585000D01*
X141313000Y-98283000D01*
X142615000Y-98283000D01*
X142615000Y-100585000D01*
X142615000Y-100585000D01*
G37*
G36*
X147175000Y-100585000D02*
G01*
X145873000Y-100585000D01*
X145873000Y-98283000D01*
X147175000Y-98283000D01*
X147175000Y-100585000D01*
X147175000Y-100585000D01*
G37*
G36*
X156318000Y-100550000D02*
G01*
X155016000Y-100550000D01*
X155016000Y-98248000D01*
X156318000Y-98248000D01*
X156318000Y-100550000D01*
X156318000Y-100550000D01*
G37*
G36*
X160904000Y-100550000D02*
G01*
X159602000Y-100550000D01*
X159602000Y-98248000D01*
X160904000Y-98248000D01*
X160904000Y-100550000D01*
X160904000Y-100550000D01*
G37*
G36*
X165464000Y-100550000D02*
G01*
X164162000Y-100550000D01*
X164162000Y-98248000D01*
X165464000Y-98248000D01*
X165464000Y-100550000D01*
X165464000Y-100550000D01*
G37*
G36*
X151758000Y-100550000D02*
G01*
X150456000Y-100550000D01*
X150456000Y-98248000D01*
X151758000Y-98248000D01*
X151758000Y-100550000D01*
X151758000Y-100550000D01*
G37*
G36*
X124327000Y-100331000D02*
G01*
X123025000Y-100331000D01*
X123025000Y-98029000D01*
X124327000Y-98029000D01*
X124327000Y-100331000D01*
X124327000Y-100331000D01*
G37*
G36*
X128887000Y-100331000D02*
G01*
X127585000Y-100331000D01*
X127585000Y-98029000D01*
X128887000Y-98029000D01*
X128887000Y-100331000D01*
X128887000Y-100331000D01*
G37*
G36*
X115183000Y-100331000D02*
G01*
X113881000Y-100331000D01*
X113881000Y-98029000D01*
X115183000Y-98029000D01*
X115183000Y-100331000D01*
X115183000Y-100331000D01*
G37*
G36*
X138031000Y-100331000D02*
G01*
X136729000Y-100331000D01*
X136729000Y-98029000D01*
X138031000Y-98029000D01*
X138031000Y-100331000D01*
X138031000Y-100331000D01*
G37*
G36*
X119743000Y-100331000D02*
G01*
X118441000Y-100331000D01*
X118441000Y-98029000D01*
X119743000Y-98029000D01*
X119743000Y-100331000D01*
X119743000Y-100331000D01*
G37*
G36*
X133471000Y-100331000D02*
G01*
X132169000Y-100331000D01*
X132169000Y-98029000D01*
X133471000Y-98029000D01*
X133471000Y-100331000D01*
X133471000Y-100331000D01*
G37*
G36*
X106040000Y-100296000D02*
G01*
X104738000Y-100296000D01*
X104738000Y-97994000D01*
X106040000Y-97994000D01*
X106040000Y-100296000D01*
X106040000Y-100296000D01*
G37*
G36*
X110600000Y-100296000D02*
G01*
X109298000Y-100296000D01*
X109298000Y-97994000D01*
X110600000Y-97994000D01*
X110600000Y-100296000D01*
X110600000Y-100296000D01*
G37*
G36*
X176501000Y-99069000D02*
G01*
X172439000Y-99069000D01*
X172439000Y-96987000D01*
X176501000Y-96987000D01*
X176501000Y-99069000D01*
X176501000Y-99069000D01*
G37*
G36*
X96568112Y-96150021D02*
G01*
X96670072Y-96160063D01*
X96866301Y-96219589D01*
X96866303Y-96219590D01*
X97047145Y-96316252D01*
X97205660Y-96446340D01*
X97335747Y-96604854D01*
X97432411Y-96785699D01*
X97491937Y-96981928D01*
X97512036Y-97186000D01*
X97491937Y-97390072D01*
X97432411Y-97586301D01*
X97432410Y-97586303D01*
X97335748Y-97767145D01*
X97205660Y-97925660D01*
X97047145Y-98055748D01*
X96866303Y-98152410D01*
X96866301Y-98152411D01*
X96670072Y-98211937D01*
X96568112Y-98221979D01*
X96517133Y-98227000D01*
X94434867Y-98227000D01*
X94383888Y-98221979D01*
X94281928Y-98211937D01*
X94085699Y-98152411D01*
X94085697Y-98152410D01*
X93904855Y-98055748D01*
X93746340Y-97925660D01*
X93616252Y-97767145D01*
X93519590Y-97586303D01*
X93519589Y-97586301D01*
X93460063Y-97390072D01*
X93439964Y-97186000D01*
X93460063Y-96981928D01*
X93519589Y-96785699D01*
X93616253Y-96604854D01*
X93746340Y-96446340D01*
X93904855Y-96316252D01*
X94085697Y-96219590D01*
X94085699Y-96219589D01*
X94281928Y-96160063D01*
X94383888Y-96150021D01*
X94434867Y-96145000D01*
X96517133Y-96145000D01*
X96568112Y-96150021D01*
X96568112Y-96150021D01*
G37*
G36*
X147195000Y-96385000D02*
G01*
X141293000Y-96385000D01*
X141293000Y-89883000D01*
X147195000Y-89883000D01*
X147195000Y-96385000D01*
X147195000Y-96385000D01*
G37*
G36*
X165484000Y-96350000D02*
G01*
X159582000Y-96350000D01*
X159582000Y-89848000D01*
X165484000Y-89848000D01*
X165484000Y-96350000D01*
X165484000Y-96350000D01*
G37*
G36*
X156338000Y-96350000D02*
G01*
X150436000Y-96350000D01*
X150436000Y-89848000D01*
X156338000Y-89848000D01*
X156338000Y-96350000D01*
X156338000Y-96350000D01*
G37*
G36*
X128907000Y-96131000D02*
G01*
X123005000Y-96131000D01*
X123005000Y-89629000D01*
X128907000Y-89629000D01*
X128907000Y-96131000D01*
X128907000Y-96131000D01*
G37*
G36*
X138051000Y-96131000D02*
G01*
X132149000Y-96131000D01*
X132149000Y-89629000D01*
X138051000Y-89629000D01*
X138051000Y-96131000D01*
X138051000Y-96131000D01*
G37*
G36*
X119763000Y-96131000D02*
G01*
X113861000Y-96131000D01*
X113861000Y-89629000D01*
X119763000Y-89629000D01*
X119763000Y-96131000D01*
X119763000Y-96131000D01*
G37*
G36*
X110620000Y-96096000D02*
G01*
X104718000Y-96096000D01*
X104718000Y-89594000D01*
X110620000Y-89594000D01*
X110620000Y-96096000D01*
X110620000Y-96096000D01*
G37*
G36*
X175562112Y-91992021D02*
G01*
X175664072Y-92002063D01*
X175860301Y-92061589D01*
X175860303Y-92061590D01*
X176041145Y-92158252D01*
X176199660Y-92288340D01*
X176329747Y-92446854D01*
X176426411Y-92627699D01*
X176485937Y-92823928D01*
X176506036Y-93028000D01*
X176485937Y-93232072D01*
X176426411Y-93428301D01*
X176426410Y-93428303D01*
X176329748Y-93609145D01*
X176199660Y-93767660D01*
X176041145Y-93897748D01*
X175860303Y-93994410D01*
X175860301Y-93994411D01*
X175664072Y-94053937D01*
X175562112Y-94063979D01*
X175511133Y-94069000D01*
X173428867Y-94069000D01*
X173377888Y-94063979D01*
X173275928Y-94053937D01*
X173079699Y-93994411D01*
X173079697Y-93994410D01*
X172898855Y-93897748D01*
X172740340Y-93767660D01*
X172610252Y-93609145D01*
X172513590Y-93428303D01*
X172513589Y-93428301D01*
X172454063Y-93232072D01*
X172433964Y-93028000D01*
X172454063Y-92823928D01*
X172513589Y-92627699D01*
X172610253Y-92446854D01*
X172740340Y-92288340D01*
X172898855Y-92158252D01*
X173079697Y-92061590D01*
X173079699Y-92061589D01*
X173275928Y-92002063D01*
X173377888Y-91992021D01*
X173428867Y-91987000D01*
X175511133Y-91987000D01*
X175562112Y-91992021D01*
X175562112Y-91992021D01*
G37*
G36*
X97507000Y-93227000D02*
G01*
X93445000Y-93227000D01*
X93445000Y-91145000D01*
X97507000Y-91145000D01*
X97507000Y-93227000D01*
X97507000Y-93227000D01*
G37*
G36*
X133138072Y-78486063D02*
G01*
X133334301Y-78545589D01*
X133334303Y-78545590D01*
X133515145Y-78642252D01*
X133673660Y-78772340D01*
X133803748Y-78930855D01*
X133863748Y-79043107D01*
X133900411Y-79111699D01*
X133959937Y-79307928D01*
X133975000Y-79460868D01*
X133975000Y-81543132D01*
X133959937Y-81696072D01*
X133900411Y-81892300D01*
X133900410Y-81892303D01*
X133803748Y-82073145D01*
X133673660Y-82231660D01*
X133556437Y-82327860D01*
X133515146Y-82361747D01*
X133334300Y-82458411D01*
X133138071Y-82517937D01*
X132934000Y-82538036D01*
X132729928Y-82517937D01*
X132533699Y-82458411D01*
X132533697Y-82458410D01*
X132352855Y-82361748D01*
X132194340Y-82231660D01*
X132098140Y-82114437D01*
X132064253Y-82073146D01*
X131967589Y-81892300D01*
X131908063Y-81696071D01*
X131893000Y-81543131D01*
X131893001Y-79460868D01*
X131908064Y-79307928D01*
X131967590Y-79111699D01*
X132004253Y-79043107D01*
X132064253Y-78930855D01*
X132194341Y-78772340D01*
X132352856Y-78642252D01*
X132533698Y-78545590D01*
X132533700Y-78545589D01*
X132729929Y-78486063D01*
X132934000Y-78465964D01*
X133138072Y-78486063D01*
X133138072Y-78486063D01*
G37*
G36*
X120946072Y-78486063D02*
G01*
X121142301Y-78545589D01*
X121142303Y-78545590D01*
X121323145Y-78642252D01*
X121481660Y-78772340D01*
X121611748Y-78930855D01*
X121671748Y-79043107D01*
X121708411Y-79111699D01*
X121767937Y-79307928D01*
X121783000Y-79460868D01*
X121783000Y-81543132D01*
X121767937Y-81696072D01*
X121708411Y-81892300D01*
X121708410Y-81892303D01*
X121611748Y-82073145D01*
X121481660Y-82231660D01*
X121364437Y-82327860D01*
X121323146Y-82361747D01*
X121142300Y-82458411D01*
X120946071Y-82517937D01*
X120742000Y-82538036D01*
X120537928Y-82517937D01*
X120341699Y-82458411D01*
X120341697Y-82458410D01*
X120160855Y-82361748D01*
X120002340Y-82231660D01*
X119906140Y-82114437D01*
X119872253Y-82073146D01*
X119775589Y-81892300D01*
X119716063Y-81696071D01*
X119701000Y-81543131D01*
X119701001Y-79460868D01*
X119716064Y-79307928D01*
X119775590Y-79111699D01*
X119812253Y-79043107D01*
X119872253Y-78930855D01*
X120002341Y-78772340D01*
X120160856Y-78642252D01*
X120341698Y-78545590D01*
X120341700Y-78545589D01*
X120537929Y-78486063D01*
X120742000Y-78465964D01*
X120946072Y-78486063D01*
X120946072Y-78486063D01*
G37*
G36*
X108500072Y-78486063D02*
G01*
X108696301Y-78545589D01*
X108696303Y-78545590D01*
X108877145Y-78642252D01*
X109035660Y-78772340D01*
X109165748Y-78930855D01*
X109225748Y-79043107D01*
X109262411Y-79111699D01*
X109321937Y-79307928D01*
X109337000Y-79460868D01*
X109337000Y-81543132D01*
X109321937Y-81696072D01*
X109262411Y-81892300D01*
X109262410Y-81892303D01*
X109165748Y-82073145D01*
X109035660Y-82231660D01*
X108918437Y-82327860D01*
X108877146Y-82361747D01*
X108696300Y-82458411D01*
X108500071Y-82517937D01*
X108296000Y-82538036D01*
X108091928Y-82517937D01*
X107895699Y-82458411D01*
X107895697Y-82458410D01*
X107714855Y-82361748D01*
X107556340Y-82231660D01*
X107460140Y-82114437D01*
X107426253Y-82073146D01*
X107329589Y-81892300D01*
X107270063Y-81696071D01*
X107255000Y-81543131D01*
X107255001Y-79460868D01*
X107270064Y-79307928D01*
X107329590Y-79111699D01*
X107366253Y-79043107D01*
X107426253Y-78930855D01*
X107556341Y-78772340D01*
X107714856Y-78642252D01*
X107895698Y-78545590D01*
X107895700Y-78545589D01*
X108091929Y-78486063D01*
X108296000Y-78465964D01*
X108500072Y-78486063D01*
X108500072Y-78486063D01*
G37*
G36*
X145584072Y-78486063D02*
G01*
X145780301Y-78545589D01*
X145780303Y-78545590D01*
X145961145Y-78642252D01*
X146119660Y-78772340D01*
X146249748Y-78930855D01*
X146309748Y-79043107D01*
X146346411Y-79111699D01*
X146405937Y-79307928D01*
X146421000Y-79460868D01*
X146421000Y-81543132D01*
X146405937Y-81696072D01*
X146346411Y-81892300D01*
X146346410Y-81892303D01*
X146249748Y-82073145D01*
X146119660Y-82231660D01*
X146002437Y-82327860D01*
X145961146Y-82361747D01*
X145780300Y-82458411D01*
X145584071Y-82517937D01*
X145380000Y-82538036D01*
X145175928Y-82517937D01*
X144979699Y-82458411D01*
X144979697Y-82458410D01*
X144798855Y-82361748D01*
X144640340Y-82231660D01*
X144544140Y-82114437D01*
X144510253Y-82073146D01*
X144413589Y-81892300D01*
X144354063Y-81696071D01*
X144339000Y-81543131D01*
X144339001Y-79460868D01*
X144354064Y-79307928D01*
X144413590Y-79111699D01*
X144450253Y-79043107D01*
X144510253Y-78930855D01*
X144640341Y-78772340D01*
X144798856Y-78642252D01*
X144979698Y-78545590D01*
X144979700Y-78545589D01*
X145175929Y-78486063D01*
X145380000Y-78465964D01*
X145584072Y-78486063D01*
X145584072Y-78486063D01*
G37*
G36*
X157776072Y-78486063D02*
G01*
X157972301Y-78545589D01*
X157972303Y-78545590D01*
X158153145Y-78642252D01*
X158311660Y-78772340D01*
X158441748Y-78930855D01*
X158501748Y-79043107D01*
X158538411Y-79111699D01*
X158597937Y-79307928D01*
X158613000Y-79460868D01*
X158613000Y-81543132D01*
X158597937Y-81696072D01*
X158538411Y-81892300D01*
X158538410Y-81892303D01*
X158441748Y-82073145D01*
X158311660Y-82231660D01*
X158194437Y-82327860D01*
X158153146Y-82361747D01*
X157972300Y-82458411D01*
X157776071Y-82517937D01*
X157572000Y-82538036D01*
X157367928Y-82517937D01*
X157171699Y-82458411D01*
X157171697Y-82458410D01*
X156990855Y-82361748D01*
X156832340Y-82231660D01*
X156736140Y-82114437D01*
X156702253Y-82073146D01*
X156605589Y-81892300D01*
X156546063Y-81696071D01*
X156531000Y-81543131D01*
X156531001Y-79460868D01*
X156546064Y-79307928D01*
X156605590Y-79111699D01*
X156642253Y-79043107D01*
X156702253Y-78930855D01*
X156832341Y-78772340D01*
X156990856Y-78642252D01*
X157171698Y-78545590D01*
X157171700Y-78545589D01*
X157367929Y-78486063D01*
X157572000Y-78465964D01*
X157776072Y-78486063D01*
X157776072Y-78486063D01*
G37*
G36*
X151421000Y-82533000D02*
G01*
X149339000Y-82533000D01*
X149339000Y-78471000D01*
X151421000Y-78471000D01*
X151421000Y-82533000D01*
X151421000Y-82533000D01*
G37*
G36*
X163613000Y-82533000D02*
G01*
X161531000Y-82533000D01*
X161531000Y-78471000D01*
X163613000Y-78471000D01*
X163613000Y-82533000D01*
X163613000Y-82533000D01*
G37*
G36*
X114337000Y-82533000D02*
G01*
X112255000Y-82533000D01*
X112255000Y-78471000D01*
X114337000Y-78471000D01*
X114337000Y-82533000D01*
X114337000Y-82533000D01*
G37*
G36*
X126783000Y-82533000D02*
G01*
X124701000Y-82533000D01*
X124701000Y-78471000D01*
X126783000Y-78471000D01*
X126783000Y-82533000D01*
X126783000Y-82533000D01*
G37*
G36*
X138975000Y-82533000D02*
G01*
X136893000Y-82533000D01*
X136893000Y-78471000D01*
X138975000Y-78471000D01*
X138975000Y-82533000D01*
X138975000Y-82533000D01*
G37*
G36*
X178548156Y-72672794D02*
G01*
X179269140Y-72816206D01*
X180060972Y-73144193D01*
X180773601Y-73620357D01*
X181379643Y-74226399D01*
X181855807Y-74939028D01*
X182183794Y-75730860D01*
X182351000Y-76571464D01*
X182351000Y-77428536D01*
X182183794Y-78269140D01*
X181855807Y-79060972D01*
X181379643Y-79773601D01*
X180773601Y-80379643D01*
X180060972Y-80855807D01*
X179269140Y-81183794D01*
X178548156Y-81327206D01*
X178428537Y-81351000D01*
X177571463Y-81351000D01*
X177451844Y-81327206D01*
X176730860Y-81183794D01*
X175939028Y-80855807D01*
X175226399Y-80379643D01*
X174620357Y-79773601D01*
X174144193Y-79060972D01*
X173816206Y-78269140D01*
X173649000Y-77428536D01*
X173649000Y-76571464D01*
X173816206Y-75730860D01*
X174144193Y-74939028D01*
X174620357Y-74226399D01*
X175226399Y-73620357D01*
X175939028Y-73144193D01*
X176730860Y-72816206D01*
X177451844Y-72672794D01*
X177571463Y-72649000D01*
X178428537Y-72649000D01*
X178548156Y-72672794D01*
X178548156Y-72672794D01*
G37*
G36*
X92548156Y-72672794D02*
G01*
X93269140Y-72816206D01*
X94060972Y-73144193D01*
X94773601Y-73620357D01*
X95379643Y-74226399D01*
X95855807Y-74939028D01*
X96183794Y-75730860D01*
X96351000Y-76571464D01*
X96351000Y-77428536D01*
X96183794Y-78269140D01*
X95855807Y-79060972D01*
X95379643Y-79773601D01*
X94773601Y-80379643D01*
X94060972Y-80855807D01*
X93269140Y-81183794D01*
X92548156Y-81327206D01*
X92428537Y-81351000D01*
X91571463Y-81351000D01*
X91451844Y-81327206D01*
X90730860Y-81183794D01*
X89939028Y-80855807D01*
X89226399Y-80379643D01*
X88620357Y-79773601D01*
X88144193Y-79060972D01*
X87816206Y-78269140D01*
X87649000Y-77428536D01*
X87649000Y-76571464D01*
X87816206Y-75730860D01*
X88144193Y-74939028D01*
X88620357Y-74226399D01*
X89226399Y-73620357D01*
X89939028Y-73144193D01*
X90730860Y-72816206D01*
X91451844Y-72672794D01*
X91571463Y-72649000D01*
X92428537Y-72649000D01*
X92548156Y-72672794D01*
X92548156Y-72672794D01*
G37*
M02*
