M48
; DRILL file {KiCad (5.1.4)-1} date 29/11/2019 00:28:37
; FORMAT={-:-/ absolute / metric / decimal}
; #@! TF.CreationDate,2019-11-29T00:28:37+00:00
; #@! TF.GenerationSoftware,Kicad,Pcbnew,(5.1.4)-1
FMAT,2
METRIC
T1C0.400
T2C0.600
T3C1.320
T4C4.300
%
G90
G05
T1
X106.25Y-101.5
X109.192Y-101.33
X115.542Y-101.33
X118.336Y-101.33
X124.25Y-101.5
X127.226Y-101.584
X133.25Y-101.5
X136.37Y-101.584
X142.75Y-101.5
X145.514Y-101.584
X151.75Y-101.5
X154.658Y-101.584
X160.75Y-101.5
X163.548Y-101.584
T2
X174.775Y-113.0
X175.72Y-110.72
X175.72Y-115.28
X178.0Y-109.775
X178.0Y-116.225
X180.28Y-110.72
X180.28Y-115.28
X181.225Y-113.0
X88.775Y-113.0
X89.72Y-110.72
X89.72Y-115.28
X92.0Y-109.775
X92.0Y-116.225
X94.28Y-110.72
X94.28Y-115.28
X95.225Y-113.0
X88.775Y-77.0
X89.72Y-74.72
X89.72Y-79.28
X92.0Y-73.775
X92.0Y-80.225
X94.28Y-74.72
X94.28Y-79.28
X95.225Y-77.0
X174.775Y-77.0
X175.72Y-74.72
X175.72Y-79.28
X178.0Y-73.775
X178.0Y-80.225
X180.28Y-74.72
X180.28Y-79.28
X181.225Y-77.0
T3
X163.238Y-109.57
X168.238Y-109.57
X108.296Y-80.502
X113.296Y-80.502
X126.25Y-109.57
X131.25Y-109.57
X113.9Y-109.57
X118.9Y-109.57
X174.47Y-93.028
X174.47Y-98.028
X95.476Y-92.186
X95.476Y-97.186
X138.5Y-109.5
X143.5Y-109.5
X120.742Y-80.502
X125.742Y-80.502
X150.792Y-109.57
X155.792Y-109.57
X157.572Y-80.502
X162.572Y-80.502
X101.708Y-109.57
X106.708Y-109.57
X132.934Y-80.502
X137.934Y-80.502
X145.38Y-80.502
X150.38Y-80.502
T4
X178.0Y-113.0
X92.0Y-113.0
X92.0Y-77.0
X178.0Y-77.0
T0
M30
