G04 #@! TF.GenerationSoftware,KiCad,Pcbnew,(5.1.4)-1*
G04 #@! TF.CreationDate,2019-11-29T00:22:24+00:00*
G04 #@! TF.ProjectId,relay-replacement-board,72656c61-792d-4726-9570-6c6163656d65,rev?*
G04 #@! TF.SameCoordinates,Original*
G04 #@! TF.FileFunction,Legend,Top*
G04 #@! TF.FilePolarity,Positive*
%FSLAX46Y46*%
G04 Gerber Fmt 4.6, Leading zero omitted, Abs format (unit mm)*
G04 Created by KiCad (PCBNEW (5.1.4)-1) date 2019-11-29 00:22:24*
%MOMM*%
%LPD*%
G04 APERTURE LIST*
%ADD10C,0.150000*%
%ADD11C,0.120000*%
%ADD12C,1.002000*%
%ADD13C,8.702000*%
%ADD14O,2.082000X4.062000*%
%ADD15R,2.082000X4.062000*%
%ADD16R,5.902000X6.502000*%
%ADD17R,1.302000X2.302000*%
%ADD18O,4.062000X2.082000*%
%ADD19R,4.062000X2.082000*%
G04 APERTURE END LIST*
D10*
X182452380Y-94285714D02*
X182404761Y-94380952D01*
X182357142Y-94428571D01*
X182261904Y-94476190D01*
X181976190Y-94476190D01*
X181880952Y-94428571D01*
X181833333Y-94380952D01*
X181785714Y-94285714D01*
X181785714Y-94142857D01*
X181833333Y-94047619D01*
X181880952Y-94000000D01*
X181976190Y-93952380D01*
X182261904Y-93952380D01*
X182357142Y-94000000D01*
X182404761Y-94047619D01*
X182452380Y-94142857D01*
X182452380Y-94285714D01*
X181785714Y-93095238D02*
X182452380Y-93095238D01*
X181785714Y-93523809D02*
X182309523Y-93523809D01*
X182404761Y-93476190D01*
X182452380Y-93380952D01*
X182452380Y-93238095D01*
X182404761Y-93142857D01*
X182357142Y-93095238D01*
X181785714Y-92761904D02*
X181785714Y-92380952D01*
X181452380Y-92619047D02*
X182309523Y-92619047D01*
X182404761Y-92571428D01*
X182452380Y-92476190D01*
X182452380Y-92380952D01*
X181452380Y-91857142D02*
X181452380Y-91761904D01*
X181500000Y-91666666D01*
X181547619Y-91619047D01*
X181642857Y-91571428D01*
X181833333Y-91523809D01*
X182071428Y-91523809D01*
X182261904Y-91571428D01*
X182357142Y-91619047D01*
X182404761Y-91666666D01*
X182452380Y-91761904D01*
X182452380Y-91857142D01*
X182404761Y-91952380D01*
X182357142Y-92000000D01*
X182261904Y-92047619D01*
X182071428Y-92095238D01*
X181833333Y-92095238D01*
X181642857Y-92047619D01*
X181547619Y-92000000D01*
X181500000Y-91952380D01*
X181452380Y-91857142D01*
X158785714Y-72547619D02*
X158880952Y-72595238D01*
X158928571Y-72642857D01*
X158976190Y-72738095D01*
X158976190Y-73023809D01*
X158928571Y-73119047D01*
X158880952Y-73166666D01*
X158785714Y-73214285D01*
X158642857Y-73214285D01*
X158547619Y-73166666D01*
X158500000Y-73119047D01*
X158452380Y-73023809D01*
X158452380Y-72738095D01*
X158500000Y-72642857D01*
X158547619Y-72595238D01*
X158642857Y-72547619D01*
X158785714Y-72547619D01*
X157595238Y-73214285D02*
X157595238Y-72547619D01*
X158023809Y-73214285D02*
X158023809Y-72690476D01*
X157976190Y-72595238D01*
X157880952Y-72547619D01*
X157738095Y-72547619D01*
X157642857Y-72595238D01*
X157595238Y-72642857D01*
X157261904Y-73214285D02*
X156880952Y-73214285D01*
X157119047Y-73547619D02*
X157119047Y-72690476D01*
X157071428Y-72595238D01*
X156976190Y-72547619D01*
X156880952Y-72547619D01*
X156023809Y-72547619D02*
X156595238Y-72547619D01*
X156309523Y-72547619D02*
X156309523Y-73547619D01*
X156404761Y-73404761D01*
X156500000Y-73309523D01*
X156595238Y-73261904D01*
X146785714Y-72547619D02*
X146880952Y-72595238D01*
X146928571Y-72642857D01*
X146976190Y-72738095D01*
X146976190Y-73023809D01*
X146928571Y-73119047D01*
X146880952Y-73166666D01*
X146785714Y-73214285D01*
X146642857Y-73214285D01*
X146547619Y-73166666D01*
X146500000Y-73119047D01*
X146452380Y-73023809D01*
X146452380Y-72738095D01*
X146500000Y-72642857D01*
X146547619Y-72595238D01*
X146642857Y-72547619D01*
X146785714Y-72547619D01*
X145595238Y-73214285D02*
X145595238Y-72547619D01*
X146023809Y-73214285D02*
X146023809Y-72690476D01*
X145976190Y-72595238D01*
X145880952Y-72547619D01*
X145738095Y-72547619D01*
X145642857Y-72595238D01*
X145595238Y-72642857D01*
X145261904Y-73214285D02*
X144880952Y-73214285D01*
X145119047Y-73547619D02*
X145119047Y-72690476D01*
X145071428Y-72595238D01*
X144976190Y-72547619D01*
X144880952Y-72547619D01*
X144595238Y-73452380D02*
X144547619Y-73500000D01*
X144452380Y-73547619D01*
X144214285Y-73547619D01*
X144119047Y-73500000D01*
X144071428Y-73452380D01*
X144023809Y-73357142D01*
X144023809Y-73261904D01*
X144071428Y-73119047D01*
X144642857Y-72547619D01*
X144023809Y-72547619D01*
X134285714Y-72547619D02*
X134380952Y-72595238D01*
X134428571Y-72642857D01*
X134476190Y-72738095D01*
X134476190Y-73023809D01*
X134428571Y-73119047D01*
X134380952Y-73166666D01*
X134285714Y-73214285D01*
X134142857Y-73214285D01*
X134047619Y-73166666D01*
X134000000Y-73119047D01*
X133952380Y-73023809D01*
X133952380Y-72738095D01*
X134000000Y-72642857D01*
X134047619Y-72595238D01*
X134142857Y-72547619D01*
X134285714Y-72547619D01*
X133095238Y-73214285D02*
X133095238Y-72547619D01*
X133523809Y-73214285D02*
X133523809Y-72690476D01*
X133476190Y-72595238D01*
X133380952Y-72547619D01*
X133238095Y-72547619D01*
X133142857Y-72595238D01*
X133095238Y-72642857D01*
X132761904Y-73214285D02*
X132380952Y-73214285D01*
X132619047Y-73547619D02*
X132619047Y-72690476D01*
X132571428Y-72595238D01*
X132476190Y-72547619D01*
X132380952Y-72547619D01*
X132142857Y-73547619D02*
X131523809Y-73547619D01*
X131857142Y-73166666D01*
X131714285Y-73166666D01*
X131619047Y-73119047D01*
X131571428Y-73071428D01*
X131523809Y-72976190D01*
X131523809Y-72738095D01*
X131571428Y-72642857D01*
X131619047Y-72595238D01*
X131714285Y-72547619D01*
X132000000Y-72547619D01*
X132095238Y-72595238D01*
X132142857Y-72642857D01*
X121785714Y-72547619D02*
X121880952Y-72595238D01*
X121928571Y-72642857D01*
X121976190Y-72738095D01*
X121976190Y-73023809D01*
X121928571Y-73119047D01*
X121880952Y-73166666D01*
X121785714Y-73214285D01*
X121642857Y-73214285D01*
X121547619Y-73166666D01*
X121500000Y-73119047D01*
X121452380Y-73023809D01*
X121452380Y-72738095D01*
X121500000Y-72642857D01*
X121547619Y-72595238D01*
X121642857Y-72547619D01*
X121785714Y-72547619D01*
X120595238Y-73214285D02*
X120595238Y-72547619D01*
X121023809Y-73214285D02*
X121023809Y-72690476D01*
X120976190Y-72595238D01*
X120880952Y-72547619D01*
X120738095Y-72547619D01*
X120642857Y-72595238D01*
X120595238Y-72642857D01*
X120261904Y-73214285D02*
X119880952Y-73214285D01*
X120119047Y-73547619D02*
X120119047Y-72690476D01*
X120071428Y-72595238D01*
X119976190Y-72547619D01*
X119880952Y-72547619D01*
X119119047Y-73214285D02*
X119119047Y-72547619D01*
X119357142Y-73595238D02*
X119595238Y-72880952D01*
X118976190Y-72880952D01*
X109285714Y-72547619D02*
X109380952Y-72595238D01*
X109428571Y-72642857D01*
X109476190Y-72738095D01*
X109476190Y-73023809D01*
X109428571Y-73119047D01*
X109380952Y-73166666D01*
X109285714Y-73214285D01*
X109142857Y-73214285D01*
X109047619Y-73166666D01*
X109000000Y-73119047D01*
X108952380Y-73023809D01*
X108952380Y-72738095D01*
X109000000Y-72642857D01*
X109047619Y-72595238D01*
X109142857Y-72547619D01*
X109285714Y-72547619D01*
X108095238Y-73214285D02*
X108095238Y-72547619D01*
X108523809Y-73214285D02*
X108523809Y-72690476D01*
X108476190Y-72595238D01*
X108380952Y-72547619D01*
X108238095Y-72547619D01*
X108142857Y-72595238D01*
X108095238Y-72642857D01*
X107761904Y-73214285D02*
X107380952Y-73214285D01*
X107619047Y-73547619D02*
X107619047Y-72690476D01*
X107571428Y-72595238D01*
X107476190Y-72547619D01*
X107380952Y-72547619D01*
X106571428Y-73547619D02*
X107047619Y-73547619D01*
X107095238Y-73071428D01*
X107047619Y-73119047D01*
X106952380Y-73166666D01*
X106714285Y-73166666D01*
X106619047Y-73119047D01*
X106571428Y-73071428D01*
X106523809Y-72976190D01*
X106523809Y-72738095D01*
X106571428Y-72642857D01*
X106619047Y-72595238D01*
X106714285Y-72547619D01*
X106952380Y-72547619D01*
X107047619Y-72595238D01*
X107095238Y-72642857D01*
X87547619Y-90714285D02*
X87595238Y-90619047D01*
X87642857Y-90571428D01*
X87738095Y-90523809D01*
X88023809Y-90523809D01*
X88119047Y-90571428D01*
X88166666Y-90619047D01*
X88214285Y-90714285D01*
X88214285Y-90857142D01*
X88166666Y-90952380D01*
X88119047Y-91000000D01*
X88023809Y-91047619D01*
X87738095Y-91047619D01*
X87642857Y-91000000D01*
X87595238Y-90952380D01*
X87547619Y-90857142D01*
X87547619Y-90714285D01*
X88214285Y-91904761D02*
X87547619Y-91904761D01*
X88214285Y-91476190D02*
X87690476Y-91476190D01*
X87595238Y-91523809D01*
X87547619Y-91619047D01*
X87547619Y-91761904D01*
X87595238Y-91857142D01*
X87642857Y-91904761D01*
X88214285Y-92238095D02*
X88214285Y-92619047D01*
X88547619Y-92380952D02*
X87690476Y-92380952D01*
X87595238Y-92428571D01*
X87547619Y-92523809D01*
X87547619Y-92619047D01*
X88547619Y-93380952D02*
X88547619Y-93190476D01*
X88500000Y-93095238D01*
X88452380Y-93047619D01*
X88309523Y-92952380D01*
X88119047Y-92904761D01*
X87738095Y-92904761D01*
X87642857Y-92952380D01*
X87595238Y-93000000D01*
X87547619Y-93095238D01*
X87547619Y-93285714D01*
X87595238Y-93380952D01*
X87642857Y-93428571D01*
X87738095Y-93476190D01*
X87976190Y-93476190D01*
X88071428Y-93428571D01*
X88119047Y-93380952D01*
X88166666Y-93285714D01*
X88166666Y-93095238D01*
X88119047Y-93000000D01*
X88071428Y-92952380D01*
X87976190Y-92904761D01*
X100571428Y-117452380D02*
X100571428Y-116785714D01*
X100571428Y-116452380D02*
X100523809Y-116500000D01*
X100571428Y-116547619D01*
X100619047Y-116500000D01*
X100571428Y-116452380D01*
X100571428Y-116547619D01*
X101047619Y-116785714D02*
X101047619Y-117452380D01*
X101047619Y-116880952D02*
X101095238Y-116833333D01*
X101190476Y-116785714D01*
X101333333Y-116785714D01*
X101428571Y-116833333D01*
X101476190Y-116928571D01*
X101476190Y-117452380D01*
X102380952Y-116452380D02*
X102190476Y-116452380D01*
X102095238Y-116500000D01*
X102047619Y-116547619D01*
X101952380Y-116690476D01*
X101904761Y-116880952D01*
X101904761Y-117261904D01*
X101952380Y-117357142D01*
X102000000Y-117404761D01*
X102095238Y-117452380D01*
X102285714Y-117452380D01*
X102380952Y-117404761D01*
X102428571Y-117357142D01*
X102476190Y-117261904D01*
X102476190Y-117023809D01*
X102428571Y-116928571D01*
X102380952Y-116880952D01*
X102285714Y-116833333D01*
X102095238Y-116833333D01*
X102000000Y-116880952D01*
X101952380Y-116928571D01*
X101904761Y-117023809D01*
X106071428Y-117452380D02*
X106071428Y-116785714D01*
X106071428Y-116452380D02*
X106023809Y-116500000D01*
X106071428Y-116547619D01*
X106119047Y-116500000D01*
X106071428Y-116452380D01*
X106071428Y-116547619D01*
X106547619Y-116785714D02*
X106547619Y-117452380D01*
X106547619Y-116880952D02*
X106595238Y-116833333D01*
X106690476Y-116785714D01*
X106833333Y-116785714D01*
X106928571Y-116833333D01*
X106976190Y-116928571D01*
X106976190Y-117452380D01*
X107928571Y-116452380D02*
X107452380Y-116452380D01*
X107404761Y-116928571D01*
X107452380Y-116880952D01*
X107547619Y-116833333D01*
X107785714Y-116833333D01*
X107880952Y-116880952D01*
X107928571Y-116928571D01*
X107976190Y-117023809D01*
X107976190Y-117261904D01*
X107928571Y-117357142D01*
X107880952Y-117404761D01*
X107785714Y-117452380D01*
X107547619Y-117452380D01*
X107452380Y-117404761D01*
X107404761Y-117357142D01*
X113071428Y-117452380D02*
X113071428Y-116785714D01*
X113071428Y-116452380D02*
X113023809Y-116500000D01*
X113071428Y-116547619D01*
X113119047Y-116500000D01*
X113071428Y-116452380D01*
X113071428Y-116547619D01*
X113547619Y-116785714D02*
X113547619Y-117452380D01*
X113547619Y-116880952D02*
X113595238Y-116833333D01*
X113690476Y-116785714D01*
X113833333Y-116785714D01*
X113928571Y-116833333D01*
X113976190Y-116928571D01*
X113976190Y-117452380D01*
X114880952Y-116785714D02*
X114880952Y-117452380D01*
X114642857Y-116404761D02*
X114404761Y-117119047D01*
X115023809Y-117119047D01*
X118071428Y-117452380D02*
X118071428Y-116785714D01*
X118071428Y-116452380D02*
X118023809Y-116500000D01*
X118071428Y-116547619D01*
X118119047Y-116500000D01*
X118071428Y-116452380D01*
X118071428Y-116547619D01*
X118547619Y-116785714D02*
X118547619Y-117452380D01*
X118547619Y-116880952D02*
X118595238Y-116833333D01*
X118690476Y-116785714D01*
X118833333Y-116785714D01*
X118928571Y-116833333D01*
X118976190Y-116928571D01*
X118976190Y-117452380D01*
X119357142Y-116452380D02*
X119976190Y-116452380D01*
X119642857Y-116833333D01*
X119785714Y-116833333D01*
X119880952Y-116880952D01*
X119928571Y-116928571D01*
X119976190Y-117023809D01*
X119976190Y-117261904D01*
X119928571Y-117357142D01*
X119880952Y-117404761D01*
X119785714Y-117452380D01*
X119500000Y-117452380D01*
X119404761Y-117404761D01*
X119357142Y-117357142D01*
X150071428Y-117452380D02*
X150071428Y-116785714D01*
X150071428Y-116452380D02*
X150023809Y-116500000D01*
X150071428Y-116547619D01*
X150119047Y-116500000D01*
X150071428Y-116452380D01*
X150071428Y-116547619D01*
X150547619Y-116785714D02*
X150547619Y-117452380D01*
X150547619Y-116880952D02*
X150595238Y-116833333D01*
X150690476Y-116785714D01*
X150833333Y-116785714D01*
X150928571Y-116833333D01*
X150976190Y-116928571D01*
X150976190Y-117452380D01*
X151404761Y-116547619D02*
X151452380Y-116500000D01*
X151547619Y-116452380D01*
X151785714Y-116452380D01*
X151880952Y-116500000D01*
X151928571Y-116547619D01*
X151976190Y-116642857D01*
X151976190Y-116738095D01*
X151928571Y-116880952D01*
X151357142Y-117452380D01*
X151976190Y-117452380D01*
X155071428Y-117452380D02*
X155071428Y-116785714D01*
X155071428Y-116452380D02*
X155023809Y-116500000D01*
X155071428Y-116547619D01*
X155119047Y-116500000D01*
X155071428Y-116452380D01*
X155071428Y-116547619D01*
X155547619Y-116785714D02*
X155547619Y-117452380D01*
X155547619Y-116880952D02*
X155595238Y-116833333D01*
X155690476Y-116785714D01*
X155833333Y-116785714D01*
X155928571Y-116833333D01*
X155976190Y-116928571D01*
X155976190Y-117452380D01*
X156976190Y-117452380D02*
X156404761Y-117452380D01*
X156690476Y-117452380D02*
X156690476Y-116452380D01*
X156595238Y-116595238D01*
X156500000Y-116690476D01*
X156404761Y-116738095D01*
X162571428Y-117452380D02*
X162571428Y-116785714D01*
X162571428Y-116452380D02*
X162523809Y-116500000D01*
X162571428Y-116547619D01*
X162619047Y-116500000D01*
X162571428Y-116452380D01*
X162571428Y-116547619D01*
X163047619Y-116785714D02*
X163047619Y-117452380D01*
X163047619Y-116880952D02*
X163095238Y-116833333D01*
X163190476Y-116785714D01*
X163333333Y-116785714D01*
X163428571Y-116833333D01*
X163476190Y-116928571D01*
X163476190Y-117452380D01*
X164142857Y-116452380D02*
X164238095Y-116452380D01*
X164333333Y-116500000D01*
X164380952Y-116547619D01*
X164428571Y-116642857D01*
X164476190Y-116833333D01*
X164476190Y-117071428D01*
X164428571Y-117261904D01*
X164380952Y-117357142D01*
X164333333Y-117404761D01*
X164238095Y-117452380D01*
X164142857Y-117452380D01*
X164047619Y-117404761D01*
X164000000Y-117357142D01*
X163952380Y-117261904D01*
X163904761Y-117071428D01*
X163904761Y-116833333D01*
X163952380Y-116642857D01*
X164000000Y-116547619D01*
X164047619Y-116500000D01*
X164142857Y-116452380D01*
X130738095Y-116500000D02*
X130642857Y-116452380D01*
X130500000Y-116452380D01*
X130357142Y-116500000D01*
X130261904Y-116595238D01*
X130214285Y-116690476D01*
X130166666Y-116880952D01*
X130166666Y-117023809D01*
X130214285Y-117214285D01*
X130261904Y-117309523D01*
X130357142Y-117404761D01*
X130500000Y-117452380D01*
X130595238Y-117452380D01*
X130738095Y-117404761D01*
X130785714Y-117357142D01*
X130785714Y-117023809D01*
X130595238Y-117023809D01*
X131214285Y-117452380D02*
X131214285Y-116452380D01*
X131785714Y-117452380D01*
X131785714Y-116452380D01*
X132261904Y-117452380D02*
X132261904Y-116452380D01*
X132500000Y-116452380D01*
X132642857Y-116500000D01*
X132738095Y-116595238D01*
X132785714Y-116690476D01*
X132833333Y-116880952D01*
X132833333Y-117023809D01*
X132785714Y-117214285D01*
X132738095Y-117309523D01*
X132642857Y-117404761D01*
X132500000Y-117452380D01*
X132261904Y-117452380D01*
X167238095Y-116500000D02*
X167142857Y-116452380D01*
X167000000Y-116452380D01*
X166857142Y-116500000D01*
X166761904Y-116595238D01*
X166714285Y-116690476D01*
X166666666Y-116880952D01*
X166666666Y-117023809D01*
X166714285Y-117214285D01*
X166761904Y-117309523D01*
X166857142Y-117404761D01*
X167000000Y-117452380D01*
X167095238Y-117452380D01*
X167238095Y-117404761D01*
X167285714Y-117357142D01*
X167285714Y-117023809D01*
X167095238Y-117023809D01*
X167714285Y-117452380D02*
X167714285Y-116452380D01*
X168285714Y-117452380D01*
X168285714Y-116452380D01*
X168761904Y-117452380D02*
X168761904Y-116452380D01*
X169000000Y-116452380D01*
X169142857Y-116500000D01*
X169238095Y-116595238D01*
X169285714Y-116690476D01*
X169333333Y-116880952D01*
X169333333Y-117023809D01*
X169285714Y-117214285D01*
X169238095Y-117309523D01*
X169142857Y-117404761D01*
X169000000Y-117452380D01*
X168761904Y-117452380D01*
X142738095Y-116500000D02*
X142642857Y-116452380D01*
X142500000Y-116452380D01*
X142357142Y-116500000D01*
X142261904Y-116595238D01*
X142214285Y-116690476D01*
X142166666Y-116880952D01*
X142166666Y-117023809D01*
X142214285Y-117214285D01*
X142261904Y-117309523D01*
X142357142Y-117404761D01*
X142500000Y-117452380D01*
X142595238Y-117452380D01*
X142738095Y-117404761D01*
X142785714Y-117357142D01*
X142785714Y-117023809D01*
X142595238Y-117023809D01*
X143214285Y-117452380D02*
X143214285Y-116452380D01*
X143785714Y-117452380D01*
X143785714Y-116452380D01*
X144261904Y-117452380D02*
X144261904Y-116452380D01*
X144500000Y-116452380D01*
X144642857Y-116500000D01*
X144738095Y-116595238D01*
X144785714Y-116690476D01*
X144833333Y-116880952D01*
X144833333Y-117023809D01*
X144785714Y-117214285D01*
X144738095Y-117309523D01*
X144642857Y-117404761D01*
X144500000Y-117452380D01*
X144261904Y-117452380D01*
X163761904Y-72928571D02*
X163000000Y-72928571D01*
X163380952Y-72547619D02*
X163380952Y-73309523D01*
X162000000Y-72547619D02*
X162571428Y-72547619D01*
X162285714Y-72547619D02*
X162285714Y-73547619D01*
X162380952Y-73404761D01*
X162476190Y-73309523D01*
X162571428Y-73261904D01*
X161619047Y-73452380D02*
X161571428Y-73500000D01*
X161476190Y-73547619D01*
X161238095Y-73547619D01*
X161142857Y-73500000D01*
X161095238Y-73452380D01*
X161047619Y-73357142D01*
X161047619Y-73261904D01*
X161095238Y-73119047D01*
X161666666Y-72547619D01*
X161047619Y-72547619D01*
X160761904Y-73547619D02*
X160428571Y-72547619D01*
X160095238Y-73547619D01*
X151761904Y-72928571D02*
X151000000Y-72928571D01*
X151380952Y-72547619D02*
X151380952Y-73309523D01*
X150000000Y-72547619D02*
X150571428Y-72547619D01*
X150285714Y-72547619D02*
X150285714Y-73547619D01*
X150380952Y-73404761D01*
X150476190Y-73309523D01*
X150571428Y-73261904D01*
X149619047Y-73452380D02*
X149571428Y-73500000D01*
X149476190Y-73547619D01*
X149238095Y-73547619D01*
X149142857Y-73500000D01*
X149095238Y-73452380D01*
X149047619Y-73357142D01*
X149047619Y-73261904D01*
X149095238Y-73119047D01*
X149666666Y-72547619D01*
X149047619Y-72547619D01*
X148761904Y-73547619D02*
X148428571Y-72547619D01*
X148095238Y-73547619D01*
X139261904Y-72928571D02*
X138500000Y-72928571D01*
X138880952Y-72547619D02*
X138880952Y-73309523D01*
X137500000Y-72547619D02*
X138071428Y-72547619D01*
X137785714Y-72547619D02*
X137785714Y-73547619D01*
X137880952Y-73404761D01*
X137976190Y-73309523D01*
X138071428Y-73261904D01*
X137119047Y-73452380D02*
X137071428Y-73500000D01*
X136976190Y-73547619D01*
X136738095Y-73547619D01*
X136642857Y-73500000D01*
X136595238Y-73452380D01*
X136547619Y-73357142D01*
X136547619Y-73261904D01*
X136595238Y-73119047D01*
X137166666Y-72547619D01*
X136547619Y-72547619D01*
X136261904Y-73547619D02*
X135928571Y-72547619D01*
X135595238Y-73547619D01*
X127261904Y-72928571D02*
X126500000Y-72928571D01*
X126880952Y-72547619D02*
X126880952Y-73309523D01*
X125500000Y-72547619D02*
X126071428Y-72547619D01*
X125785714Y-72547619D02*
X125785714Y-73547619D01*
X125880952Y-73404761D01*
X125976190Y-73309523D01*
X126071428Y-73261904D01*
X125119047Y-73452380D02*
X125071428Y-73500000D01*
X124976190Y-73547619D01*
X124738095Y-73547619D01*
X124642857Y-73500000D01*
X124595238Y-73452380D01*
X124547619Y-73357142D01*
X124547619Y-73261904D01*
X124595238Y-73119047D01*
X125166666Y-72547619D01*
X124547619Y-72547619D01*
X124261904Y-73547619D02*
X123928571Y-72547619D01*
X123595238Y-73547619D01*
X114761904Y-72928571D02*
X114000000Y-72928571D01*
X114380952Y-72547619D02*
X114380952Y-73309523D01*
X113000000Y-72547619D02*
X113571428Y-72547619D01*
X113285714Y-72547619D02*
X113285714Y-73547619D01*
X113380952Y-73404761D01*
X113476190Y-73309523D01*
X113571428Y-73261904D01*
X112619047Y-73452380D02*
X112571428Y-73500000D01*
X112476190Y-73547619D01*
X112238095Y-73547619D01*
X112142857Y-73500000D01*
X112095238Y-73452380D01*
X112047619Y-73357142D01*
X112047619Y-73261904D01*
X112095238Y-73119047D01*
X112666666Y-72547619D01*
X112047619Y-72547619D01*
X111761904Y-73547619D02*
X111428571Y-72547619D01*
X111095238Y-73547619D01*
X182071428Y-100261904D02*
X182071428Y-99500000D01*
X182452380Y-99880952D02*
X181690476Y-99880952D01*
X182452380Y-98500000D02*
X182452380Y-99071428D01*
X182452380Y-98785714D02*
X181452380Y-98785714D01*
X181595238Y-98880952D01*
X181690476Y-98976190D01*
X181738095Y-99071428D01*
X181547619Y-98119047D02*
X181500000Y-98071428D01*
X181452380Y-97976190D01*
X181452380Y-97738095D01*
X181500000Y-97642857D01*
X181547619Y-97595238D01*
X181642857Y-97547619D01*
X181738095Y-97547619D01*
X181880952Y-97595238D01*
X182452380Y-98166666D01*
X182452380Y-97547619D01*
X181452380Y-97261904D02*
X182452380Y-96928571D01*
X181452380Y-96595238D01*
X87928571Y-95238095D02*
X87928571Y-96000000D01*
X87547619Y-95619047D02*
X88309523Y-95619047D01*
X87547619Y-97000000D02*
X87547619Y-96428571D01*
X87547619Y-96714285D02*
X88547619Y-96714285D01*
X88404761Y-96619047D01*
X88309523Y-96523809D01*
X88261904Y-96428571D01*
X88452380Y-97380952D02*
X88500000Y-97428571D01*
X88547619Y-97523809D01*
X88547619Y-97761904D01*
X88500000Y-97857142D01*
X88452380Y-97904761D01*
X88357142Y-97952380D01*
X88261904Y-97952380D01*
X88119047Y-97904761D01*
X87547619Y-97333333D01*
X87547619Y-97952380D01*
X88547619Y-98238095D02*
X87547619Y-98571428D01*
X88547619Y-98904761D01*
X136238095Y-117071428D02*
X137000000Y-117071428D01*
X136619047Y-117452380D02*
X136619047Y-116690476D01*
X138000000Y-117452380D02*
X137428571Y-117452380D01*
X137714285Y-117452380D02*
X137714285Y-116452380D01*
X137619047Y-116595238D01*
X137523809Y-116690476D01*
X137428571Y-116738095D01*
X138380952Y-116547619D02*
X138428571Y-116500000D01*
X138523809Y-116452380D01*
X138761904Y-116452380D01*
X138857142Y-116500000D01*
X138904761Y-116547619D01*
X138952380Y-116642857D01*
X138952380Y-116738095D01*
X138904761Y-116880952D01*
X138333333Y-117452380D01*
X138952380Y-117452380D01*
X139238095Y-116452380D02*
X139571428Y-117452380D01*
X139904761Y-116452380D01*
X124238095Y-117071428D02*
X125000000Y-117071428D01*
X124619047Y-117452380D02*
X124619047Y-116690476D01*
X126000000Y-117452380D02*
X125428571Y-117452380D01*
X125714285Y-117452380D02*
X125714285Y-116452380D01*
X125619047Y-116595238D01*
X125523809Y-116690476D01*
X125428571Y-116738095D01*
X126380952Y-116547619D02*
X126428571Y-116500000D01*
X126523809Y-116452380D01*
X126761904Y-116452380D01*
X126857142Y-116500000D01*
X126904761Y-116547619D01*
X126952380Y-116642857D01*
X126952380Y-116738095D01*
X126904761Y-116880952D01*
X126333333Y-117452380D01*
X126952380Y-117452380D01*
X127238095Y-116452380D02*
X127571428Y-117452380D01*
X127904761Y-116452380D01*
D11*
X109908000Y-103270000D02*
X99058000Y-103270000D01*
X109908000Y-108370000D02*
X109908000Y-103270000D01*
X109408000Y-108070000D02*
X109908000Y-108370000D01*
X109408000Y-113470000D02*
X109408000Y-108070000D01*
X109908000Y-113220000D02*
X109408000Y-113470000D01*
X109908000Y-113270000D02*
X109908000Y-113220000D01*
X109908000Y-115170000D02*
X109908000Y-113270000D01*
X109408000Y-114920000D02*
X109908000Y-115170000D01*
X109408000Y-115870000D02*
X109408000Y-114920000D01*
X99058000Y-115870000D02*
X109408000Y-115870000D01*
X99058000Y-103270000D02*
X99058000Y-115870000D01*
X146700000Y-103200000D02*
X135850000Y-103200000D01*
X146700000Y-108300000D02*
X146700000Y-103200000D01*
X146200000Y-108000000D02*
X146700000Y-108300000D01*
X146200000Y-113400000D02*
X146200000Y-108000000D01*
X146700000Y-113150000D02*
X146200000Y-113400000D01*
X146700000Y-113200000D02*
X146700000Y-113150000D01*
X146700000Y-115100000D02*
X146700000Y-113200000D01*
X146200000Y-114850000D02*
X146700000Y-115100000D01*
X146200000Y-115800000D02*
X146200000Y-114850000D01*
X135850000Y-115800000D02*
X146200000Y-115800000D01*
X135850000Y-103200000D02*
X135850000Y-115800000D01*
X110849000Y-97415000D02*
X110849000Y-98515000D01*
X111119000Y-97415000D02*
X110849000Y-97415000D01*
X111119000Y-95915000D02*
X111119000Y-97415000D01*
X104489000Y-97415000D02*
X104489000Y-100245000D01*
X104219000Y-97415000D02*
X104489000Y-97415000D01*
X104219000Y-95915000D02*
X104219000Y-97415000D01*
X119992000Y-97450000D02*
X119992000Y-98550000D01*
X120262000Y-97450000D02*
X119992000Y-97450000D01*
X120262000Y-95950000D02*
X120262000Y-97450000D01*
X113632000Y-97450000D02*
X113632000Y-100280000D01*
X113362000Y-97450000D02*
X113632000Y-97450000D01*
X113362000Y-95950000D02*
X113362000Y-97450000D01*
X129136000Y-97450000D02*
X129136000Y-98550000D01*
X129406000Y-97450000D02*
X129136000Y-97450000D01*
X129406000Y-95950000D02*
X129406000Y-97450000D01*
X122776000Y-97450000D02*
X122776000Y-100280000D01*
X122506000Y-97450000D02*
X122776000Y-97450000D01*
X122506000Y-95950000D02*
X122506000Y-97450000D01*
X138280000Y-97450000D02*
X138280000Y-98550000D01*
X138550000Y-97450000D02*
X138280000Y-97450000D01*
X138550000Y-95950000D02*
X138550000Y-97450000D01*
X131920000Y-97450000D02*
X131920000Y-100280000D01*
X131650000Y-97450000D02*
X131920000Y-97450000D01*
X131650000Y-95950000D02*
X131650000Y-97450000D01*
X140794000Y-96204000D02*
X140794000Y-97704000D01*
X140794000Y-97704000D02*
X141064000Y-97704000D01*
X141064000Y-97704000D02*
X141064000Y-100534000D01*
X147694000Y-96204000D02*
X147694000Y-97704000D01*
X147694000Y-97704000D02*
X147424000Y-97704000D01*
X147424000Y-97704000D02*
X147424000Y-98804000D01*
X156567000Y-97669000D02*
X156567000Y-98769000D01*
X156837000Y-97669000D02*
X156567000Y-97669000D01*
X156837000Y-96169000D02*
X156837000Y-97669000D01*
X150207000Y-97669000D02*
X150207000Y-100499000D01*
X149937000Y-97669000D02*
X150207000Y-97669000D01*
X149937000Y-96169000D02*
X149937000Y-97669000D01*
X165713000Y-97669000D02*
X165713000Y-98769000D01*
X165983000Y-97669000D02*
X165713000Y-97669000D01*
X165983000Y-96169000D02*
X165983000Y-97669000D01*
X159353000Y-97669000D02*
X159353000Y-100499000D01*
X159083000Y-97669000D02*
X159353000Y-97669000D01*
X159083000Y-96169000D02*
X159083000Y-97669000D01*
X101776000Y-100386000D02*
X101776000Y-89536000D01*
X96676000Y-100386000D02*
X101776000Y-100386000D01*
X96976000Y-99886000D02*
X96676000Y-100386000D01*
X91576000Y-99886000D02*
X96976000Y-99886000D01*
X91826000Y-100386000D02*
X91576000Y-99886000D01*
X91776000Y-100386000D02*
X91826000Y-100386000D01*
X89876000Y-100386000D02*
X91776000Y-100386000D01*
X90126000Y-99886000D02*
X89876000Y-100386000D01*
X89176000Y-99886000D02*
X90126000Y-99886000D01*
X89176000Y-89536000D02*
X89176000Y-99886000D01*
X101776000Y-89536000D02*
X89176000Y-89536000D01*
X105096000Y-86802000D02*
X115946000Y-86802000D01*
X105096000Y-81702000D02*
X105096000Y-86802000D01*
X105596000Y-82002000D02*
X105096000Y-81702000D01*
X105596000Y-76602000D02*
X105596000Y-82002000D01*
X105096000Y-76852000D02*
X105596000Y-76602000D01*
X105096000Y-76802000D02*
X105096000Y-76852000D01*
X105096000Y-74902000D02*
X105096000Y-76802000D01*
X105596000Y-75152000D02*
X105096000Y-74902000D01*
X105596000Y-74202000D02*
X105596000Y-75152000D01*
X115946000Y-74202000D02*
X105596000Y-74202000D01*
X115946000Y-86802000D02*
X115946000Y-74202000D01*
X134450000Y-103270000D02*
X123600000Y-103270000D01*
X134450000Y-108370000D02*
X134450000Y-103270000D01*
X133950000Y-108070000D02*
X134450000Y-108370000D01*
X133950000Y-113470000D02*
X133950000Y-108070000D01*
X134450000Y-113220000D02*
X133950000Y-113470000D01*
X134450000Y-113270000D02*
X134450000Y-113220000D01*
X134450000Y-115170000D02*
X134450000Y-113270000D01*
X133950000Y-114920000D02*
X134450000Y-115170000D01*
X133950000Y-115870000D02*
X133950000Y-114920000D01*
X123600000Y-115870000D02*
X133950000Y-115870000D01*
X123600000Y-103270000D02*
X123600000Y-115870000D01*
X117542000Y-86802000D02*
X128392000Y-86802000D01*
X117542000Y-81702000D02*
X117542000Y-86802000D01*
X118042000Y-82002000D02*
X117542000Y-81702000D01*
X118042000Y-76602000D02*
X118042000Y-82002000D01*
X117542000Y-76852000D02*
X118042000Y-76602000D01*
X117542000Y-76802000D02*
X117542000Y-76852000D01*
X117542000Y-74902000D02*
X117542000Y-76802000D01*
X118042000Y-75152000D02*
X117542000Y-74902000D01*
X118042000Y-74202000D02*
X118042000Y-75152000D01*
X128392000Y-74202000D02*
X118042000Y-74202000D01*
X128392000Y-86802000D02*
X128392000Y-74202000D01*
X129734000Y-86802000D02*
X140584000Y-86802000D01*
X129734000Y-81702000D02*
X129734000Y-86802000D01*
X130234000Y-82002000D02*
X129734000Y-81702000D01*
X130234000Y-76602000D02*
X130234000Y-82002000D01*
X129734000Y-76852000D02*
X130234000Y-76602000D01*
X129734000Y-76802000D02*
X129734000Y-76852000D01*
X129734000Y-74902000D02*
X129734000Y-76802000D01*
X130234000Y-75152000D02*
X129734000Y-74902000D01*
X130234000Y-74202000D02*
X130234000Y-75152000D01*
X140584000Y-74202000D02*
X130234000Y-74202000D01*
X140584000Y-86802000D02*
X140584000Y-74202000D01*
X142180000Y-86802000D02*
X153030000Y-86802000D01*
X142180000Y-81702000D02*
X142180000Y-86802000D01*
X142680000Y-82002000D02*
X142180000Y-81702000D01*
X142680000Y-76602000D02*
X142680000Y-82002000D01*
X142180000Y-76852000D02*
X142680000Y-76602000D01*
X142180000Y-76802000D02*
X142180000Y-76852000D01*
X142180000Y-74902000D02*
X142180000Y-76802000D01*
X142680000Y-75152000D02*
X142180000Y-74902000D01*
X142680000Y-74202000D02*
X142680000Y-75152000D01*
X153030000Y-74202000D02*
X142680000Y-74202000D01*
X153030000Y-86802000D02*
X153030000Y-74202000D01*
X154372000Y-86802000D02*
X165222000Y-86802000D01*
X154372000Y-81702000D02*
X154372000Y-86802000D01*
X154872000Y-82002000D02*
X154372000Y-81702000D01*
X154872000Y-76602000D02*
X154872000Y-82002000D01*
X154372000Y-76852000D02*
X154872000Y-76602000D01*
X154372000Y-76802000D02*
X154372000Y-76852000D01*
X154372000Y-74902000D02*
X154372000Y-76802000D01*
X154872000Y-75152000D02*
X154372000Y-74902000D01*
X154872000Y-74202000D02*
X154872000Y-75152000D01*
X165222000Y-74202000D02*
X154872000Y-74202000D01*
X165222000Y-86802000D02*
X165222000Y-74202000D01*
X168170000Y-89828000D02*
X168170000Y-100678000D01*
X173270000Y-89828000D02*
X168170000Y-89828000D01*
X172970000Y-90328000D02*
X173270000Y-89828000D01*
X178370000Y-90328000D02*
X172970000Y-90328000D01*
X178120000Y-89828000D02*
X178370000Y-90328000D01*
X178170000Y-89828000D02*
X178120000Y-89828000D01*
X180070000Y-89828000D02*
X178170000Y-89828000D01*
X179820000Y-90328000D02*
X180070000Y-89828000D01*
X180770000Y-90328000D02*
X179820000Y-90328000D01*
X180770000Y-100678000D02*
X180770000Y-90328000D01*
X168170000Y-100678000D02*
X180770000Y-100678000D01*
X171438000Y-103270000D02*
X160588000Y-103270000D01*
X171438000Y-108370000D02*
X171438000Y-103270000D01*
X170938000Y-108070000D02*
X171438000Y-108370000D01*
X170938000Y-113470000D02*
X170938000Y-108070000D01*
X171438000Y-113220000D02*
X170938000Y-113470000D01*
X171438000Y-113270000D02*
X171438000Y-113220000D01*
X171438000Y-115170000D02*
X171438000Y-113270000D01*
X170938000Y-114920000D02*
X171438000Y-115170000D01*
X170938000Y-115870000D02*
X170938000Y-114920000D01*
X160588000Y-115870000D02*
X170938000Y-115870000D01*
X160588000Y-103270000D02*
X160588000Y-115870000D01*
X122100000Y-103270000D02*
X111250000Y-103270000D01*
X122100000Y-108370000D02*
X122100000Y-103270000D01*
X121600000Y-108070000D02*
X122100000Y-108370000D01*
X121600000Y-113470000D02*
X121600000Y-108070000D01*
X122100000Y-113220000D02*
X121600000Y-113470000D01*
X122100000Y-113270000D02*
X122100000Y-113220000D01*
X122100000Y-115170000D02*
X122100000Y-113270000D01*
X121600000Y-114920000D02*
X122100000Y-115170000D01*
X121600000Y-115870000D02*
X121600000Y-114920000D01*
X111250000Y-115870000D02*
X121600000Y-115870000D01*
X111250000Y-103270000D02*
X111250000Y-115870000D01*
X158992000Y-103270000D02*
X148142000Y-103270000D01*
X158992000Y-108370000D02*
X158992000Y-103270000D01*
X158492000Y-108070000D02*
X158992000Y-108370000D01*
X158492000Y-113470000D02*
X158492000Y-108070000D01*
X158992000Y-113220000D02*
X158492000Y-113470000D01*
X158992000Y-113270000D02*
X158992000Y-113220000D01*
X158992000Y-115170000D02*
X158992000Y-113270000D01*
X158492000Y-114920000D02*
X158992000Y-115170000D01*
X158492000Y-115870000D02*
X158492000Y-114920000D01*
X148142000Y-115870000D02*
X158492000Y-115870000D01*
X148142000Y-103270000D02*
X148142000Y-115870000D01*
D10*
X91238095Y-71952380D02*
X91238095Y-70952380D01*
X91238095Y-71428571D02*
X91809523Y-71428571D01*
X91809523Y-71952380D02*
X91809523Y-70952380D01*
X92238095Y-71047619D02*
X92285714Y-71000000D01*
X92380952Y-70952380D01*
X92619047Y-70952380D01*
X92714285Y-71000000D01*
X92761904Y-71047619D01*
X92809523Y-71142857D01*
X92809523Y-71238095D01*
X92761904Y-71380952D01*
X92190476Y-71952380D01*
X92809523Y-71952380D01*
X177238095Y-71952380D02*
X177238095Y-70952380D01*
X177238095Y-71428571D02*
X177809523Y-71428571D01*
X177809523Y-71952380D02*
X177809523Y-70952380D01*
X178809523Y-71952380D02*
X178238095Y-71952380D01*
X178523809Y-71952380D02*
X178523809Y-70952380D01*
X178428571Y-71095238D01*
X178333333Y-71190476D01*
X178238095Y-71238095D01*
X91238095Y-107952380D02*
X91238095Y-106952380D01*
X91238095Y-107428571D02*
X91809523Y-107428571D01*
X91809523Y-107952380D02*
X91809523Y-106952380D01*
X92190476Y-106952380D02*
X92809523Y-106952380D01*
X92476190Y-107333333D01*
X92619047Y-107333333D01*
X92714285Y-107380952D01*
X92761904Y-107428571D01*
X92809523Y-107523809D01*
X92809523Y-107761904D01*
X92761904Y-107857142D01*
X92714285Y-107904761D01*
X92619047Y-107952380D01*
X92333333Y-107952380D01*
X92238095Y-107904761D01*
X92190476Y-107857142D01*
X177238095Y-107952380D02*
X177238095Y-106952380D01*
X177238095Y-107428571D02*
X177809523Y-107428571D01*
X177809523Y-107952380D02*
X177809523Y-106952380D01*
X178714285Y-107285714D02*
X178714285Y-107952380D01*
X178476190Y-106904761D02*
X178238095Y-107619047D01*
X178857142Y-107619047D01*
X98978476Y-102032380D02*
X98978476Y-102746666D01*
X98930857Y-102889523D01*
X98835619Y-102984761D01*
X98692761Y-103032380D01*
X98597523Y-103032380D01*
X99978476Y-103032380D02*
X99407047Y-103032380D01*
X99692761Y-103032380D02*
X99692761Y-102032380D01*
X99597523Y-102175238D01*
X99502285Y-102270476D01*
X99407047Y-102318095D01*
X100597523Y-102032380D02*
X100692761Y-102032380D01*
X100788000Y-102080000D01*
X100835619Y-102127619D01*
X100883238Y-102222857D01*
X100930857Y-102413333D01*
X100930857Y-102651428D01*
X100883238Y-102841904D01*
X100835619Y-102937142D01*
X100788000Y-102984761D01*
X100692761Y-103032380D01*
X100597523Y-103032380D01*
X100502285Y-102984761D01*
X100454666Y-102937142D01*
X100407047Y-102841904D01*
X100359428Y-102651428D01*
X100359428Y-102413333D01*
X100407047Y-102222857D01*
X100454666Y-102127619D01*
X100502285Y-102080000D01*
X100597523Y-102032380D01*
X135770476Y-101962380D02*
X135770476Y-102676666D01*
X135722857Y-102819523D01*
X135627619Y-102914761D01*
X135484761Y-102962380D01*
X135389523Y-102962380D01*
X136770476Y-102962380D02*
X136199047Y-102962380D01*
X136484761Y-102962380D02*
X136484761Y-101962380D01*
X136389523Y-102105238D01*
X136294285Y-102200476D01*
X136199047Y-102248095D01*
X137103809Y-101962380D02*
X137722857Y-101962380D01*
X137389523Y-102343333D01*
X137532380Y-102343333D01*
X137627619Y-102390952D01*
X137675238Y-102438571D01*
X137722857Y-102533809D01*
X137722857Y-102771904D01*
X137675238Y-102867142D01*
X137627619Y-102914761D01*
X137532380Y-102962380D01*
X137246666Y-102962380D01*
X137151428Y-102914761D01*
X137103809Y-102867142D01*
X103716619Y-95040238D02*
X103669000Y-95135476D01*
X103573761Y-95230714D01*
X103430904Y-95373571D01*
X103383285Y-95468809D01*
X103383285Y-95564047D01*
X103621380Y-95516428D02*
X103573761Y-95611666D01*
X103478523Y-95706904D01*
X103288047Y-95754523D01*
X102954714Y-95754523D01*
X102764238Y-95706904D01*
X102669000Y-95611666D01*
X102621380Y-95516428D01*
X102621380Y-95325952D01*
X102669000Y-95230714D01*
X102764238Y-95135476D01*
X102954714Y-95087857D01*
X103288047Y-95087857D01*
X103478523Y-95135476D01*
X103573761Y-95230714D01*
X103621380Y-95325952D01*
X103621380Y-95516428D01*
X102621380Y-94754523D02*
X102621380Y-94087857D01*
X103621380Y-94516428D01*
X112859619Y-95075238D02*
X112812000Y-95170476D01*
X112716761Y-95265714D01*
X112573904Y-95408571D01*
X112526285Y-95503809D01*
X112526285Y-95599047D01*
X112764380Y-95551428D02*
X112716761Y-95646666D01*
X112621523Y-95741904D01*
X112431047Y-95789523D01*
X112097714Y-95789523D01*
X111907238Y-95741904D01*
X111812000Y-95646666D01*
X111764380Y-95551428D01*
X111764380Y-95360952D01*
X111812000Y-95265714D01*
X111907238Y-95170476D01*
X112097714Y-95122857D01*
X112431047Y-95122857D01*
X112621523Y-95170476D01*
X112716761Y-95265714D01*
X112764380Y-95360952D01*
X112764380Y-95551428D01*
X111764380Y-94265714D02*
X111764380Y-94456190D01*
X111812000Y-94551428D01*
X111859619Y-94599047D01*
X112002476Y-94694285D01*
X112192952Y-94741904D01*
X112573904Y-94741904D01*
X112669142Y-94694285D01*
X112716761Y-94646666D01*
X112764380Y-94551428D01*
X112764380Y-94360952D01*
X112716761Y-94265714D01*
X112669142Y-94218095D01*
X112573904Y-94170476D01*
X112335809Y-94170476D01*
X112240571Y-94218095D01*
X112192952Y-94265714D01*
X112145333Y-94360952D01*
X112145333Y-94551428D01*
X112192952Y-94646666D01*
X112240571Y-94694285D01*
X112335809Y-94741904D01*
X122003619Y-95075238D02*
X121956000Y-95170476D01*
X121860761Y-95265714D01*
X121717904Y-95408571D01*
X121670285Y-95503809D01*
X121670285Y-95599047D01*
X121908380Y-95551428D02*
X121860761Y-95646666D01*
X121765523Y-95741904D01*
X121575047Y-95789523D01*
X121241714Y-95789523D01*
X121051238Y-95741904D01*
X120956000Y-95646666D01*
X120908380Y-95551428D01*
X120908380Y-95360952D01*
X120956000Y-95265714D01*
X121051238Y-95170476D01*
X121241714Y-95122857D01*
X121575047Y-95122857D01*
X121765523Y-95170476D01*
X121860761Y-95265714D01*
X121908380Y-95360952D01*
X121908380Y-95551428D01*
X120908380Y-94218095D02*
X120908380Y-94694285D01*
X121384571Y-94741904D01*
X121336952Y-94694285D01*
X121289333Y-94599047D01*
X121289333Y-94360952D01*
X121336952Y-94265714D01*
X121384571Y-94218095D01*
X121479809Y-94170476D01*
X121717904Y-94170476D01*
X121813142Y-94218095D01*
X121860761Y-94265714D01*
X121908380Y-94360952D01*
X121908380Y-94599047D01*
X121860761Y-94694285D01*
X121813142Y-94741904D01*
X131147619Y-95075238D02*
X131100000Y-95170476D01*
X131004761Y-95265714D01*
X130861904Y-95408571D01*
X130814285Y-95503809D01*
X130814285Y-95599047D01*
X131052380Y-95551428D02*
X131004761Y-95646666D01*
X130909523Y-95741904D01*
X130719047Y-95789523D01*
X130385714Y-95789523D01*
X130195238Y-95741904D01*
X130100000Y-95646666D01*
X130052380Y-95551428D01*
X130052380Y-95360952D01*
X130100000Y-95265714D01*
X130195238Y-95170476D01*
X130385714Y-95122857D01*
X130719047Y-95122857D01*
X130909523Y-95170476D01*
X131004761Y-95265714D01*
X131052380Y-95360952D01*
X131052380Y-95551428D01*
X130385714Y-94265714D02*
X131052380Y-94265714D01*
X130004761Y-94503809D02*
X130719047Y-94741904D01*
X130719047Y-94122857D01*
X140291619Y-95329238D02*
X140244000Y-95424476D01*
X140148761Y-95519714D01*
X140005904Y-95662571D01*
X139958285Y-95757809D01*
X139958285Y-95853047D01*
X140196380Y-95805428D02*
X140148761Y-95900666D01*
X140053523Y-95995904D01*
X139863047Y-96043523D01*
X139529714Y-96043523D01*
X139339238Y-95995904D01*
X139244000Y-95900666D01*
X139196380Y-95805428D01*
X139196380Y-95614952D01*
X139244000Y-95519714D01*
X139339238Y-95424476D01*
X139529714Y-95376857D01*
X139863047Y-95376857D01*
X140053523Y-95424476D01*
X140148761Y-95519714D01*
X140196380Y-95614952D01*
X140196380Y-95805428D01*
X139196380Y-95043523D02*
X139196380Y-94424476D01*
X139577333Y-94757809D01*
X139577333Y-94614952D01*
X139624952Y-94519714D01*
X139672571Y-94472095D01*
X139767809Y-94424476D01*
X140005904Y-94424476D01*
X140101142Y-94472095D01*
X140148761Y-94519714D01*
X140196380Y-94614952D01*
X140196380Y-94900666D01*
X140148761Y-94995904D01*
X140101142Y-95043523D01*
X149434619Y-95294238D02*
X149387000Y-95389476D01*
X149291761Y-95484714D01*
X149148904Y-95627571D01*
X149101285Y-95722809D01*
X149101285Y-95818047D01*
X149339380Y-95770428D02*
X149291761Y-95865666D01*
X149196523Y-95960904D01*
X149006047Y-96008523D01*
X148672714Y-96008523D01*
X148482238Y-95960904D01*
X148387000Y-95865666D01*
X148339380Y-95770428D01*
X148339380Y-95579952D01*
X148387000Y-95484714D01*
X148482238Y-95389476D01*
X148672714Y-95341857D01*
X149006047Y-95341857D01*
X149196523Y-95389476D01*
X149291761Y-95484714D01*
X149339380Y-95579952D01*
X149339380Y-95770428D01*
X148434619Y-94960904D02*
X148387000Y-94913285D01*
X148339380Y-94818047D01*
X148339380Y-94579952D01*
X148387000Y-94484714D01*
X148434619Y-94437095D01*
X148529857Y-94389476D01*
X148625095Y-94389476D01*
X148767952Y-94437095D01*
X149339380Y-95008523D01*
X149339380Y-94389476D01*
X158580619Y-95294238D02*
X158533000Y-95389476D01*
X158437761Y-95484714D01*
X158294904Y-95627571D01*
X158247285Y-95722809D01*
X158247285Y-95818047D01*
X158485380Y-95770428D02*
X158437761Y-95865666D01*
X158342523Y-95960904D01*
X158152047Y-96008523D01*
X157818714Y-96008523D01*
X157628238Y-95960904D01*
X157533000Y-95865666D01*
X157485380Y-95770428D01*
X157485380Y-95579952D01*
X157533000Y-95484714D01*
X157628238Y-95389476D01*
X157818714Y-95341857D01*
X158152047Y-95341857D01*
X158342523Y-95389476D01*
X158437761Y-95484714D01*
X158485380Y-95579952D01*
X158485380Y-95770428D01*
X158485380Y-94389476D02*
X158485380Y-94960904D01*
X158485380Y-94675190D02*
X157485380Y-94675190D01*
X157628238Y-94770428D01*
X157723476Y-94865666D01*
X157771095Y-94960904D01*
X101918380Y-91075523D02*
X102632666Y-91075523D01*
X102775523Y-91123142D01*
X102870761Y-91218380D01*
X102918380Y-91361238D01*
X102918380Y-91456476D01*
X102918380Y-90075523D02*
X102918380Y-90646952D01*
X102918380Y-90361238D02*
X101918380Y-90361238D01*
X102061238Y-90456476D01*
X102156476Y-90551714D01*
X102204095Y-90646952D01*
X102013619Y-89694571D02*
X101966000Y-89646952D01*
X101918380Y-89551714D01*
X101918380Y-89313619D01*
X101966000Y-89218380D01*
X102013619Y-89170761D01*
X102108857Y-89123142D01*
X102204095Y-89123142D01*
X102346952Y-89170761D01*
X102918380Y-89742190D01*
X102918380Y-89123142D01*
X114406476Y-86944380D02*
X114406476Y-87658666D01*
X114358857Y-87801523D01*
X114263619Y-87896761D01*
X114120761Y-87944380D01*
X114025523Y-87944380D01*
X115406476Y-87944380D02*
X114835047Y-87944380D01*
X115120761Y-87944380D02*
X115120761Y-86944380D01*
X115025523Y-87087238D01*
X114930285Y-87182476D01*
X114835047Y-87230095D01*
X116358857Y-87944380D02*
X115787428Y-87944380D01*
X116073142Y-87944380D02*
X116073142Y-86944380D01*
X115977904Y-87087238D01*
X115882666Y-87182476D01*
X115787428Y-87230095D01*
X123996666Y-102032380D02*
X123996666Y-102746666D01*
X123949047Y-102889523D01*
X123853809Y-102984761D01*
X123710952Y-103032380D01*
X123615714Y-103032380D01*
X124520476Y-103032380D02*
X124710952Y-103032380D01*
X124806190Y-102984761D01*
X124853809Y-102937142D01*
X124949047Y-102794285D01*
X124996666Y-102603809D01*
X124996666Y-102222857D01*
X124949047Y-102127619D01*
X124901428Y-102080000D01*
X124806190Y-102032380D01*
X124615714Y-102032380D01*
X124520476Y-102080000D01*
X124472857Y-102127619D01*
X124425238Y-102222857D01*
X124425238Y-102460952D01*
X124472857Y-102556190D01*
X124520476Y-102603809D01*
X124615714Y-102651428D01*
X124806190Y-102651428D01*
X124901428Y-102603809D01*
X124949047Y-102556190D01*
X124996666Y-102460952D01*
X127328666Y-86944380D02*
X127328666Y-87658666D01*
X127281047Y-87801523D01*
X127185809Y-87896761D01*
X127042952Y-87944380D01*
X126947714Y-87944380D01*
X127947714Y-87372952D02*
X127852476Y-87325333D01*
X127804857Y-87277714D01*
X127757238Y-87182476D01*
X127757238Y-87134857D01*
X127804857Y-87039619D01*
X127852476Y-86992000D01*
X127947714Y-86944380D01*
X128138190Y-86944380D01*
X128233428Y-86992000D01*
X128281047Y-87039619D01*
X128328666Y-87134857D01*
X128328666Y-87182476D01*
X128281047Y-87277714D01*
X128233428Y-87325333D01*
X128138190Y-87372952D01*
X127947714Y-87372952D01*
X127852476Y-87420571D01*
X127804857Y-87468190D01*
X127757238Y-87563428D01*
X127757238Y-87753904D01*
X127804857Y-87849142D01*
X127852476Y-87896761D01*
X127947714Y-87944380D01*
X128138190Y-87944380D01*
X128233428Y-87896761D01*
X128281047Y-87849142D01*
X128328666Y-87753904D01*
X128328666Y-87563428D01*
X128281047Y-87468190D01*
X128233428Y-87420571D01*
X128138190Y-87372952D01*
X139520666Y-86944380D02*
X139520666Y-87658666D01*
X139473047Y-87801523D01*
X139377809Y-87896761D01*
X139234952Y-87944380D01*
X139139714Y-87944380D01*
X139901619Y-86944380D02*
X140568285Y-86944380D01*
X140139714Y-87944380D01*
X151966666Y-86944380D02*
X151966666Y-87658666D01*
X151919047Y-87801523D01*
X151823809Y-87896761D01*
X151680952Y-87944380D01*
X151585714Y-87944380D01*
X152871428Y-86944380D02*
X152680952Y-86944380D01*
X152585714Y-86992000D01*
X152538095Y-87039619D01*
X152442857Y-87182476D01*
X152395238Y-87372952D01*
X152395238Y-87753904D01*
X152442857Y-87849142D01*
X152490476Y-87896761D01*
X152585714Y-87944380D01*
X152776190Y-87944380D01*
X152871428Y-87896761D01*
X152919047Y-87849142D01*
X152966666Y-87753904D01*
X152966666Y-87515809D01*
X152919047Y-87420571D01*
X152871428Y-87372952D01*
X152776190Y-87325333D01*
X152585714Y-87325333D01*
X152490476Y-87372952D01*
X152442857Y-87420571D01*
X152395238Y-87515809D01*
X164158666Y-86944380D02*
X164158666Y-87658666D01*
X164111047Y-87801523D01*
X164015809Y-87896761D01*
X163872952Y-87944380D01*
X163777714Y-87944380D01*
X165111047Y-86944380D02*
X164634857Y-86944380D01*
X164587238Y-87420571D01*
X164634857Y-87372952D01*
X164730095Y-87325333D01*
X164968190Y-87325333D01*
X165063428Y-87372952D01*
X165111047Y-87420571D01*
X165158666Y-87515809D01*
X165158666Y-87753904D01*
X165111047Y-87849142D01*
X165063428Y-87896761D01*
X164968190Y-87944380D01*
X164730095Y-87944380D01*
X164634857Y-87896761D01*
X164587238Y-87849142D01*
X166932380Y-100281333D02*
X167646666Y-100281333D01*
X167789523Y-100328952D01*
X167884761Y-100424190D01*
X167932380Y-100567047D01*
X167932380Y-100662285D01*
X167265714Y-99376571D02*
X167932380Y-99376571D01*
X166884761Y-99614666D02*
X167599047Y-99852761D01*
X167599047Y-99233714D01*
X160984666Y-102032380D02*
X160984666Y-102746666D01*
X160937047Y-102889523D01*
X160841809Y-102984761D01*
X160698952Y-103032380D01*
X160603714Y-103032380D01*
X161365619Y-102032380D02*
X161984666Y-102032380D01*
X161651333Y-102413333D01*
X161794190Y-102413333D01*
X161889428Y-102460952D01*
X161937047Y-102508571D01*
X161984666Y-102603809D01*
X161984666Y-102841904D01*
X161937047Y-102937142D01*
X161889428Y-102984761D01*
X161794190Y-103032380D01*
X161508476Y-103032380D01*
X161413238Y-102984761D01*
X161365619Y-102937142D01*
X111646666Y-102032380D02*
X111646666Y-102746666D01*
X111599047Y-102889523D01*
X111503809Y-102984761D01*
X111360952Y-103032380D01*
X111265714Y-103032380D01*
X112075238Y-102127619D02*
X112122857Y-102080000D01*
X112218095Y-102032380D01*
X112456190Y-102032380D01*
X112551428Y-102080000D01*
X112599047Y-102127619D01*
X112646666Y-102222857D01*
X112646666Y-102318095D01*
X112599047Y-102460952D01*
X112027619Y-103032380D01*
X112646666Y-103032380D01*
X148538666Y-102032380D02*
X148538666Y-102746666D01*
X148491047Y-102889523D01*
X148395809Y-102984761D01*
X148252952Y-103032380D01*
X148157714Y-103032380D01*
X149538666Y-103032380D02*
X148967238Y-103032380D01*
X149252952Y-103032380D02*
X149252952Y-102032380D01*
X149157714Y-102175238D01*
X149062476Y-102270476D01*
X148967238Y-102318095D01*
%LPC*%
D12*
X94280419Y-74719581D03*
X92000000Y-73775000D03*
X89719581Y-74719581D03*
X88775000Y-77000000D03*
X89719581Y-79280419D03*
X92000000Y-80225000D03*
X94280419Y-79280419D03*
X95225000Y-77000000D03*
D13*
X92000000Y-77000000D03*
D12*
X180280419Y-74719581D03*
X178000000Y-73775000D03*
X175719581Y-74719581D03*
X174775000Y-77000000D03*
X175719581Y-79280419D03*
X178000000Y-80225000D03*
X180280419Y-79280419D03*
X181225000Y-77000000D03*
D13*
X178000000Y-77000000D03*
D12*
X94280419Y-110719581D03*
X92000000Y-109775000D03*
X89719581Y-110719581D03*
X88775000Y-113000000D03*
X89719581Y-115280419D03*
X92000000Y-116225000D03*
X94280419Y-115280419D03*
X95225000Y-113000000D03*
D13*
X92000000Y-113000000D03*
D12*
X180280419Y-110719581D03*
X178000000Y-109775000D03*
X175719581Y-110719581D03*
X174775000Y-113000000D03*
X175719581Y-115280419D03*
X178000000Y-116225000D03*
X180280419Y-115280419D03*
X181225000Y-113000000D03*
D13*
X178000000Y-113000000D03*
D14*
X106708000Y-109570000D03*
D15*
X101708000Y-109570000D03*
D14*
X143500000Y-109500000D03*
D15*
X138500000Y-109500000D03*
D16*
X107669000Y-92845000D03*
D17*
X109949000Y-99145000D03*
X105389000Y-99145000D03*
D16*
X116812000Y-92880000D03*
D17*
X119092000Y-99180000D03*
X114532000Y-99180000D03*
D16*
X125956000Y-92880000D03*
D17*
X128236000Y-99180000D03*
X123676000Y-99180000D03*
D16*
X135100000Y-92880000D03*
D17*
X137380000Y-99180000D03*
X132820000Y-99180000D03*
X141964000Y-99434000D03*
X146524000Y-99434000D03*
D16*
X144244000Y-93134000D03*
X153387000Y-93099000D03*
D17*
X155667000Y-99399000D03*
X151107000Y-99399000D03*
D16*
X162533000Y-93099000D03*
D17*
X164813000Y-99399000D03*
X160253000Y-99399000D03*
D18*
X95476000Y-97186000D03*
D19*
X95476000Y-92186000D03*
D14*
X108296000Y-80502000D03*
D15*
X113296000Y-80502000D03*
D14*
X131250000Y-109570000D03*
D15*
X126250000Y-109570000D03*
D14*
X120742000Y-80502000D03*
D15*
X125742000Y-80502000D03*
D14*
X132934000Y-80502000D03*
D15*
X137934000Y-80502000D03*
D14*
X145380000Y-80502000D03*
D15*
X150380000Y-80502000D03*
D14*
X157572000Y-80502000D03*
D15*
X162572000Y-80502000D03*
D18*
X174470000Y-93028000D03*
D19*
X174470000Y-98028000D03*
D14*
X168238000Y-109570000D03*
D15*
X163238000Y-109570000D03*
D14*
X118900000Y-109570000D03*
D15*
X113900000Y-109570000D03*
D14*
X155792000Y-109570000D03*
D15*
X150792000Y-109570000D03*
M02*
